{"glyphs":{"0":{"ha":935,"x_min":0,"x_max":0,"o":"m 476 182 b 636 383 606 182 636 211 l 636 561 b 476 763 636 733 606 763 l 458 763 b 299 561 329 763 299 733 l 299 383 b 458 182 299 211 329 182 m 453 -11 b 71 397 147 -11 71 69 l 71 547 b 453 956 71 875 147 956 l 482 956 b 864 547 788 956 864 875 l 864 397 b 482 -11 864 69 788 -11 "},"1":{"ha":722,"x_min":0,"x_max":0,"o":"m 579 0 l 346 0 l 346 731 l 342 731 l 132 549 l 18 696 l 306 944 l 579 944 "},"2":{"ha":915,"x_min":0,"x_max":0,"o":"m 843 0 l 76 0 l 76 165 b 413 514 76 383 106 458 b 607 657 585 544 607 568 l 607 679 b 461 778 607 754 593 778 l 443 778 b 296 651 308 778 296 758 l 296 625 l 78 625 l 78 644 b 433 956 78 901 131 956 l 451 956 b 843 688 768 956 843 896 l 843 657 b 526 342 843 444 788 393 b 310 211 317 300 310 286 l 310 182 l 843 182 "},"3":{"ha":922,"x_min":0,"x_max":0,"o":"m 854 238 b 463 -11 854 44 779 -11 l 435 -11 b 72 276 124 -11 72 36 l 72 319 l 290 319 l 290 271 b 429 171 290 179 307 171 l 444 171 b 619 261 597 171 619 183 l 619 290 b 504 388 619 367 597 388 l 358 388 l 358 561 l 506 561 b 604 656 583 561 604 583 l 604 686 b 446 775 604 757 581 775 l 431 775 b 290 674 310 775 290 765 l 290 633 l 75 633 l 75 671 b 421 956 75 903 132 956 l 449 956 b 839 704 767 956 839 908 l 839 676 b 704 478 839 543 806 504 l 704 474 b 854 275 810 453 854 418 "},"4":{"ha":928,"x_min":0,"x_max":0,"o":"m 767 0 l 543 0 l 543 190 l 54 190 l 54 428 l 458 944 l 767 944 l 767 369 l 881 369 l 881 190 l 767 190 m 543 369 l 543 769 l 539 769 l 247 375 l 247 369 "},"5":{"ha":910,"x_min":0,"x_max":0,"o":"m 433 -11 b 76 257 128 -11 76 46 l 76 281 l 290 281 l 290 264 b 453 175 290 188 313 175 l 474 175 b 617 300 603 175 617 199 l 617 326 b 461 456 617 435 607 456 l 435 456 b 303 376 324 456 304 436 l 89 376 l 89 944 l 814 944 l 814 763 l 306 763 l 306 561 l 308 561 b 507 635 338 614 386 635 l 544 635 b 847 371 782 635 847 576 l 847 299 b 467 -11 847 53 779 -11 "},"6":{"ha":917,"x_min":0,"x_max":0,"o":"m 444 -11 b 75 361 131 -11 75 50 l 75 563 b 463 956 75 903 140 956 l 492 956 b 829 688 785 956 829 904 l 829 664 l 615 664 l 615 681 b 485 772 615 754 603 772 l 468 772 b 306 603 321 772 306 756 l 306 528 l 308 528 b 492 599 338 574 394 599 l 518 599 b 850 326 792 599 850 550 l 850 279 b 476 -11 850 46 783 -11 m 469 171 b 624 290 610 171 624 189 l 624 311 b 469 425 624 410 610 425 l 458 425 b 303 311 318 425 303 410 l 303 290 b 458 171 303 188 317 171 "},"7":{"ha":833,"x_min":0,"x_max":0,"o":"m 415 0 l 156 0 l 525 747 l 525 751 l 46 751 l 46 944 l 786 944 l 786 772 "},"8":{"ha":917,"x_min":0,"x_max":0,"o":"m 464 569 b 617 660 608 569 617 585 l 617 690 b 464 785 617 768 608 785 l 453 785 b 299 690 308 785 299 768 l 299 660 b 453 569 299 585 308 569 m 464 167 b 621 260 606 167 621 179 l 621 306 b 464 394 621 382 606 394 l 453 394 b 296 306 311 394 296 382 l 296 260 b 453 167 296 179 311 167 m 444 -11 b 69 219 144 -11 69 21 l 69 250 b 224 481 69 397 103 461 l 224 483 b 75 693 106 503 75 549 l 75 724 b 444 956 75 917 139 956 l 472 956 b 840 724 776 956 840 917 l 840 693 b 685 483 840 551 810 504 l 685 481 b 847 250 813 461 847 400 l 847 219 b 472 -11 847 21 772 -11 "},"9":{"ha":917,"x_min":0,"x_max":0,"o":"m 426 -11 b 81 257 132 -11 81 40 l 81 281 l 296 281 l 296 264 b 435 175 296 192 314 175 l 451 175 b 613 342 599 175 613 188 l 613 418 l 610 418 b 426 347 582 372 522 347 l 400 347 b 68 619 131 347 68 400 l 68 665 b 442 956 68 896 135 956 l 474 956 b 843 583 783 956 843 893 l 843 382 b 457 -11 843 42 778 -11 m 461 521 b 615 640 601 521 615 539 l 615 661 b 461 775 615 760 601 775 l 450 775 b 294 661 310 775 294 760 l 294 640 b 450 521 294 538 308 521 "},"\r":{"ha":0,"x_min":0,"x_max":0,"o":""}," ":{"ha":346,"x_min":0,"x_max":0,"o":""},"!":{"ha":431,"x_min":0,"x_max":0,"o":"m 329 0 l 101 0 l 101 229 l 329 229 m 317 340 l 113 340 l 96 944 l 335 944 "},"\"":{"ha":558,"x_min":0,"x_max":0,"o":"m 242 607 l 86 607 l 86 983 l 242 983 m 472 607 l 317 607 l 317 983 l 472 983 "},"#":{"ha":907,"x_min":0,"x_max":0,"o":"m 618 0 l 454 0 l 492 249 l 340 249 l 303 0 l 139 0 l 178 249 l 75 249 l 75 396 l 200 396 l 226 565 l 106 565 l 106 713 l 250 713 l 286 944 l 449 944 l 413 713 l 565 713 l 601 944 l 764 944 l 728 713 l 842 713 l 842 565 l 706 565 l 679 396 l 813 396 l 813 249 l 656 249 m 517 396 l 542 565 l 389 565 l 364 396 "},"$":{"ha":942,"x_min":0,"x_max":0,"o":"m 519 -112 l 426 -112 l 426 -11 b 82 244 124 -7 82 53 l 82 301 l 304 301 l 304 267 b 426 165 304 188 322 167 l 426 389 b 85 676 139 424 85 486 l 85 699 b 426 956 85 888 160 956 l 426 1042 l 519 1042 l 519 954 b 847 704 806 949 847 886 l 847 661 l 628 661 l 628 693 b 519 782 628 751 615 778 l 519 575 b 872 297 803 543 872 489 l 872 271 b 519 -11 872 53 799 -11 m 519 165 b 649 263 633 168 649 193 l 649 279 b 519 375 649 333 635 361 m 307 678 b 426 589 307 625 318 603 l 426 783 b 307 696 324 781 307 760 "},"%":{"ha":1142,"x_min":0,"x_max":0,"o":"m 269 481 b 78 689 118 481 78 525 l 78 739 b 269 946 78 901 118 946 l 292 946 b 485 739 444 946 485 901 l 485 689 b 292 481 485 525 444 481 m 289 585 b 340 683 332 585 340 603 l 340 744 b 289 840 340 824 332 840 l 275 840 b 222 744 231 840 222 824 l 222 683 b 275 585 222 603 231 585 m 446 0 l 314 0 l 694 944 l 825 944 m 849 -1 b 657 207 697 -1 657 43 l 657 257 b 849 464 657 419 697 464 l 871 464 b 1064 257 1024 464 1064 419 l 1064 207 b 871 -1 1064 43 1024 -1 m 868 103 b 919 201 911 103 919 121 l 919 263 b 868 358 919 342 911 358 l 854 358 b 801 263 810 358 801 342 l 801 201 b 854 103 801 121 810 103 "},"&":{"ha":1078,"x_min":0,"x_max":0,"o":"m 1040 140 l 928 -6 l 831 68 b 481 -11 799 7 719 -11 l 460 -11 b 93 265 138 -11 93 38 l 93 292 b 246 522 93 450 139 507 b 157 715 181 585 157 622 l 157 746 b 474 956 157 903 229 956 l 497 956 b 839 690 797 956 839 919 l 839 664 l 633 664 l 633 699 b 513 783 633 768 617 783 l 493 783 b 381 715 403 783 381 769 l 381 704 b 456 589 381 661 404 628 l 697 403 b 696 533 697 438 696 469 l 881 533 l 881 263 m 483 163 b 669 190 597 163 650 163 l 374 417 b 315 311 325 406 315 374 l 315 292 b 474 163 315 175 339 163 "},"'":{"ha":328,"x_min":0,"x_max":0,"o":"m 242 607 l 86 607 l 86 983 l 242 983 "},"(":{"ha":519,"x_min":0,"x_max":0,"o":"m 428 -11 l 406 -11 b 76 457 147 -11 76 26 l 76 488 b 406 956 76 918 147 956 l 428 956 l 428 779 l 410 779 b 292 482 315 779 292 757 l 292 463 b 410 165 292 189 315 165 l 428 165 "},")":{"ha":519,"x_min":0,"x_max":0,"o":"m 92 -11 l 92 165 l 108 165 b 228 464 203 165 228 189 l 228 483 b 108 779 228 757 203 779 l 92 779 l 92 956 l 114 956 b 443 488 371 956 443 919 l 443 458 b 114 -11 443 26 371 -11 "},"*":{"ha":650,"x_min":0,"x_max":0,"o":"m 400 971 l 382 800 l 267 800 l 249 971 m 589 779 l 438 713 l 390 794 l 522 894 m 522 519 l 390 619 l 438 700 l 589 633 m 249 443 l 267 614 l 382 614 l 400 443 m 61 633 l 211 700 l 258 619 l 128 519 m 128 894 l 258 794 l 211 713 l 61 779 "},"+":{"ha":788,"x_min":0,"x_max":0,"o":"m 482 99 l 306 99 l 306 338 l 78 338 l 78 506 l 306 506 l 306 738 l 482 738 l 482 506 l 710 506 l 710 338 l 482 338 "},",":{"ha":371,"x_min":0,"x_max":0,"o":"m 300 18 b 42 -218 300 -167 244 -218 l 42 -96 b 142 -12 124 -96 142 -75 l 142 0 l 71 0 l 71 229 l 300 229 "},"-":{"ha":586,"x_min":0,"x_max":0,"o":"m 497 244 l 89 244 l 89 443 l 497 443 "},".":{"ha":371,"x_min":0,"x_max":0,"o":"m 300 0 l 71 0 l 71 229 l 300 229 "},"/":{"ha":647,"x_min":0,"x_max":0,"o":"m 224 -11 l 54 -11 l 424 956 l 593 956 "},":":{"ha":388,"x_min":0,"x_max":0,"o":"m 308 0 l 79 0 l 79 229 l 308 229 m 308 438 l 79 438 l 79 667 l 308 667 "},";":{"ha":388,"x_min":0,"x_max":0,"o":"m 308 18 b 50 -218 308 -167 253 -218 l 50 -96 b 150 -12 132 -96 150 -75 l 150 0 l 79 0 l 79 229 l 308 229 m 307 438 l 78 438 l 78 667 l 307 667 "},"<":{"ha":788,"x_min":0,"x_max":0,"o":"m 710 104 l 78 336 l 78 499 l 710 731 l 710 553 l 289 418 l 289 415 l 710 283 "},"=":{"ha":788,"x_min":0,"x_max":0,"o":"m 710 468 l 78 468 l 78 636 l 710 636 m 710 192 l 78 192 l 78 360 l 710 360 "},">":{"ha":788,"x_min":0,"x_max":0,"o":"m 710 336 l 78 104 l 78 283 l 499 415 l 499 418 l 78 553 l 78 731 l 710 499 "},"?":{"ha":792,"x_min":0,"x_max":0,"o":"m 479 319 l 275 319 l 275 364 b 415 569 275 490 301 531 b 531 679 519 604 531 618 l 531 689 b 410 785 531 769 507 785 l 392 785 b 265 658 285 785 265 772 l 265 629 l 67 629 l 67 675 b 393 956 67 906 135 956 l 414 956 b 735 711 667 956 735 904 l 735 686 b 571 431 735 532 706 475 b 479 340 490 404 479 399 m 493 0 l 265 0 l 265 222 l 493 222 "},"@":{"ha":1164,"x_min":0,"x_max":0,"o":"m 594 250 b 679 372 663 250 679 267 l 679 397 b 594 519 679 503 663 519 l 582 519 b 496 397 517 519 496 503 l 496 372 b 582 250 496 267 517 250 m 1038 15 b 604 -150 1038 -115 950 -150 l 543 -150 b 74 296 153 -150 74 -97 l 74 426 b 543 875 74 808 154 875 l 603 875 b 1090 417 1025 875 1090 831 l 1090 347 b 875 88 1090 126 1026 88 b 694 193 768 88 722 108 l 690 193 b 533 88 665 110 632 88 l 515 88 b 325 353 379 88 325 135 l 325 404 b 518 668 325 615 381 668 l 535 668 b 690 568 628 668 664 647 l 693 568 l 693 657 l 839 657 l 839 306 b 893 217 839 235 851 217 b 951 331 940 217 951 229 l 951 411 b 603 764 951 742 931 764 l 543 764 b 214 397 246 764 214 735 l 214 325 b 543 -31 214 3 249 -31 l 603 -31 b 878 21 851 -31 878 -17 l 878 29 l 1038 29 "},"A":{"ha":982,"x_min":0,"x_max":0,"o":"m 969 0 l 713 0 l 660 183 l 314 183 l 261 0 l 13 0 l 321 944 l 658 944 m 607 361 l 490 771 l 483 771 l 364 361 "},"B":{"ha":942,"x_min":0,"x_max":0,"o":"m 76 0 l 76 944 l 565 944 b 869 701 797 944 869 896 b 736 492 869 560 835 514 l 736 488 b 893 260 849 465 893 418 b 607 0 893 54 810 0 m 556 178 b 657 289 638 178 657 203 b 556 400 657 376 633 400 l 311 400 l 311 178 m 553 565 b 639 668 617 565 639 581 b 553 771 639 754 618 771 l 311 771 l 311 565 "},"C":{"ha":943,"x_min":0,"x_max":0,"o":"m 467 -11 b 58 403 140 -11 58 75 l 58 544 b 468 956 58 867 142 956 l 494 956 b 882 651 804 956 882 881 l 882 607 l 647 607 l 647 638 b 493 767 647 721 621 767 l 476 767 b 306 543 333 767 306 726 l 306 406 b 474 181 306 211 342 181 l 492 181 b 653 317 608 181 653 211 l 653 353 l 886 353 l 886 296 b 493 -11 886 58 793 -11 "},"D":{"ha":996,"x_min":0,"x_max":0,"o":"m 935 392 b 492 0 935 67 871 0 l 76 0 l 76 944 l 492 944 b 935 561 851 944 935 886 m 482 189 b 690 413 658 189 690 225 l 690 544 b 482 760 690 725 658 760 l 319 760 l 319 189 "},"E":{"ha":813,"x_min":0,"x_max":0,"o":"m 771 0 l 76 0 l 76 944 l 757 944 l 757 760 l 318 760 l 318 569 l 728 569 l 728 394 l 318 394 l 318 189 l 771 189 "},"F":{"ha":751,"x_min":0,"x_max":0,"o":"m 318 0 l 76 0 l 76 944 l 729 944 l 729 754 l 318 754 l 318 524 l 703 524 l 703 342 l 318 342 "},"G":{"ha":947,"x_min":0,"x_max":0,"o":"m 468 -11 b 58 406 140 -11 58 72 l 58 547 b 465 956 58 869 140 956 l 492 956 b 882 669 783 956 882 885 l 882 638 l 647 638 l 647 657 b 490 767 647 738 618 767 l 474 767 b 304 543 332 767 304 731 l 304 406 b 476 181 304 225 333 181 l 494 181 b 660 313 629 181 660 215 l 660 342 l 463 342 l 463 517 l 889 517 l 889 338 b 493 -11 889 60 808 -11 "},"H":{"ha":972,"x_min":0,"x_max":0,"o":"m 896 0 l 653 0 l 653 376 l 319 376 l 319 0 l 76 0 l 76 944 l 319 944 l 319 588 l 653 588 l 653 944 l 896 944 "},"I":{"ha":396,"x_min":0,"x_max":0,"o":"m 319 0 l 76 0 l 76 944 l 319 944 "},"J":{"ha":789,"x_min":0,"x_max":0,"o":"m 350 -11 b 33 310 75 -11 33 53 l 33 381 l 253 381 l 253 328 b 361 181 253 197 267 181 l 378 181 b 474 300 461 181 474 200 l 474 944 l 717 944 l 717 321 b 381 -11 717 47 658 -11 "},"K":{"ha":932,"x_min":0,"x_max":0,"o":"m 929 0 l 631 0 l 386 393 l 315 393 l 315 0 l 76 0 l 76 944 l 315 944 l 315 574 l 390 574 l 621 944 l 899 944 l 594 489 "},"L":{"ha":718,"x_min":0,"x_max":0,"o":"m 697 0 l 76 0 l 76 944 l 319 944 l 319 190 l 697 190 "},"M":{"ha":1297,"x_min":0,"x_max":0,"o":"m 1221 0 l 993 0 l 1001 740 l 996 740 l 757 0 l 536 0 l 300 740 l 294 740 l 303 0 l 76 0 l 76 944 l 442 944 l 649 249 l 653 249 l 860 944 l 1221 944 "},"N":{"ha":1053,"x_min":0,"x_max":0,"o":"m 976 0 l 628 0 l 300 736 l 293 736 l 300 0 l 76 0 l 76 944 l 433 944 l 756 213 l 763 213 l 751 944 l 976 944 "},"O":{"ha":990,"x_min":0,"x_max":0,"o":"m 479 -11 b 58 401 140 -11 58 88 l 58 543 b 479 956 58 857 140 956 l 511 956 b 932 543 850 956 932 857 l 932 401 b 511 -11 932 88 850 -11 m 507 181 b 685 406 650 181 685 222 l 685 542 b 507 767 685 725 650 767 l 483 767 b 306 542 340 767 306 725 l 306 406 b 483 181 306 222 340 181 "},"P":{"ha":894,"x_min":0,"x_max":0,"o":"m 471 442 b 614 569 592 442 614 472 l 614 632 b 469 763 614 736 590 763 l 314 763 l 314 442 m 314 0 l 76 0 l 76 944 l 486 944 b 851 629 776 944 851 886 l 851 572 b 497 257 851 313 767 257 l 314 257 "},"Q":{"ha":1004,"x_min":0,"x_max":0,"o":"m 58 543 b 479 956 58 853 140 956 l 511 956 b 931 543 850 956 931 853 l 931 401 b 906 182 931 311 924 239 l 1008 113 l 915 -19 l 822 57 b 511 -11 757 8 658 -11 l 479 -11 b 58 401 140 -11 58 92 m 689 542 b 507 768 689 725 650 768 l 483 768 b 303 542 340 768 303 725 l 303 406 b 483 179 303 222 340 179 l 507 179 b 626 203 560 179 599 185 l 467 311 l 563 444 l 686 344 b 689 406 688 363 689 383 "},"R":{"ha":928,"x_min":0,"x_max":0,"o":"m 482 472 b 621 606 593 472 621 499 l 621 635 b 481 763 621 743 593 763 l 314 763 l 314 472 m 861 0 l 622 0 l 622 133 b 442 296 622 275 597 296 l 314 296 l 314 0 l 76 0 l 76 944 l 535 944 b 860 667 803 944 860 867 l 860 644 b 724 403 860 497 824 424 l 724 397 b 861 153 838 376 861 332 "},"S":{"ha":913,"x_min":0,"x_max":0,"o":"m 857 271 b 517 -11 857 57 774 -11 l 479 -11 b 60 253 108 -11 60 36 l 60 301 l 286 301 l 286 267 b 457 171 286 190 315 171 l 483 171 b 625 263 604 171 625 193 l 625 279 b 418 390 625 347 606 378 b 63 676 113 411 63 482 l 63 699 b 408 956 63 882 132 956 l 451 956 b 832 704 783 956 832 892 l 832 661 l 607 661 l 607 693 b 460 776 607 751 588 776 l 429 776 b 292 696 315 776 292 760 l 292 678 b 497 576 292 614 308 593 b 857 297 803 549 857 490 "},"T":{"ha":792,"x_min":0,"x_max":0,"o":"m 518 0 l 275 0 l 275 756 l 17 756 l 17 944 l 775 944 l 775 756 l 518 756 "},"U":{"ha":969,"x_min":0,"x_max":0,"o":"m 471 -11 b 74 326 140 -11 74 57 l 74 944 l 317 944 l 317 350 b 474 181 317 206 336 181 l 494 181 b 653 350 633 181 653 206 l 653 944 l 896 944 l 896 326 b 497 -11 896 57 831 -11 "},"V":{"ha":942,"x_min":0,"x_max":0,"o":"m 628 0 l 311 0 l 13 944 l 267 944 l 474 196 l 478 196 l 682 944 l 929 944 "},"W":{"ha":1325,"x_min":0,"x_max":0,"o":"m 1106 0 l 807 0 l 667 717 l 663 717 l 521 0 l 222 0 l 18 944 l 261 944 l 379 199 l 385 199 l 532 944 l 801 944 l 950 199 l 954 199 l 1071 944 l 1307 944 "},"X":{"ha":960,"x_min":0,"x_max":0,"o":"m 943 0 l 658 0 l 478 375 l 296 0 l 17 0 l 293 485 l 40 944 l 317 944 l 482 592 l 650 944 l 921 944 l 667 485 "},"Y":{"ha":903,"x_min":0,"x_max":0,"o":"m 572 0 l 329 0 l 329 306 l 10 944 l 271 944 l 453 518 l 457 518 l 632 944 l 893 944 l 572 306 "},"Z":{"ha":840,"x_min":0,"x_max":0,"o":"m 792 0 l 50 0 l 50 188 l 503 761 l 503 763 l 61 763 l 61 944 l 782 944 l 782 756 l 331 186 l 331 183 l 792 183 "},"[":{"ha":546,"x_min":0,"x_max":0,"o":"m 457 -11 l 99 -11 l 99 956 l 457 956 l 457 781 l 311 781 l 311 164 l 457 164 "},"\\":{"ha":649,"x_min":0,"x_max":0,"o":"m 594 -11 l 424 -11 l 54 956 l 224 956 "},"]":{"ha":546,"x_min":0,"x_max":0,"o":"m 447 -11 l 89 -11 l 89 164 l 235 164 l 235 781 l 89 781 l 89 956 l 447 956 "},"^":{"ha":853,"x_min":0,"x_max":0,"o":"m 792 419 l 594 419 l 428 749 l 425 749 l 256 419 l 61 419 l 346 944 l 504 944 "},"_":{"ha":549,"x_min":0,"x_max":0,"o":"m 549 -207 l 0 -207 l 0 -100 l 549 -100 "},"`":{"ha":594,"x_min":0,"x_max":0,"o":"m 388 733 l 96 865 l 190 1000 l 440 806 "},"a":{"ha":760,"x_min":0,"x_max":0,"o":"m 692 0 l 482 0 l 482 68 l 478 68 b 303 -11 449 14 407 -11 l 281 -11 b 56 196 103 -11 56 40 l 56 226 b 294 425 56 374 119 425 l 304 425 b 476 372 400 425 449 408 l 482 372 l 482 432 b 386 533 482 517 474 533 l 369 533 b 274 488 290 533 274 521 l 274 469 l 72 469 l 72 483 b 381 678 72 642 140 678 l 406 678 b 692 386 649 678 692 632 m 381 136 b 485 201 471 136 485 151 l 485 226 b 378 292 485 278 474 292 l 365 292 b 260 226 274 292 260 276 l 260 201 b 369 136 260 150 275 136 "},"b":{"ha":801,"x_min":0,"x_max":0,"o":"m 482 -11 b 289 82 386 -11 329 8 l 286 82 l 286 0 l 72 0 l 72 944 l 293 944 l 293 590 l 294 590 b 476 678 329 656 388 678 l 497 678 b 747 364 688 678 747 606 l 747 307 b 494 -11 747 65 688 -11 m 417 156 b 525 307 503 156 525 182 l 525 363 b 417 514 525 488 503 514 l 394 514 b 286 363 310 514 286 488 l 286 307 b 394 156 286 182 310 156 "},"c":{"ha":743,"x_min":0,"x_max":0,"o":"m 363 -11 b 54 296 121 -11 54 61 l 54 372 b 368 678 54 607 125 678 l 400 678 b 692 446 631 678 692 608 l 692 414 l 490 414 l 490 429 b 399 514 490 492 468 514 l 375 514 b 275 372 290 514 275 485 l 275 296 b 379 156 275 183 294 156 l 404 156 b 489 243 474 156 489 178 l 489 257 l 692 257 l 692 232 b 394 -11 692 56 632 -11 "},"d":{"ha":800,"x_min":0,"x_max":0,"o":"m 728 0 l 514 0 l 514 82 l 511 82 b 319 -11 469 1 406 -11 l 306 -11 b 54 307 114 -11 54 65 l 54 364 b 301 678 54 606 114 678 l 324 678 b 506 590 408 678 471 657 l 507 590 l 507 944 l 728 944 m 406 156 b 514 307 492 156 514 182 l 514 363 b 406 514 514 488 492 514 l 383 514 b 275 363 299 514 275 488 l 275 307 b 383 156 275 182 299 156 "},"e":{"ha":751,"x_min":0,"x_max":0,"o":"m 361 -11 b 54 296 119 -11 54 58 l 54 372 b 358 678 54 615 136 678 l 388 678 b 694 388 625 678 694 617 l 694 282 l 267 282 l 267 251 b 376 143 267 160 283 143 l 396 143 b 496 207 479 143 496 156 l 496 219 l 697 219 l 697 204 b 400 -11 697 44 614 -11 m 493 410 l 493 426 b 383 535 493 510 478 535 l 374 535 b 265 410 281 535 265 515 "},"f":{"ha":476,"x_min":0,"x_max":0,"o":"m 326 0 l 107 0 l 107 511 l 21 511 l 21 667 l 107 667 l 107 717 b 349 954 107 894 174 954 b 471 947 392 954 436 951 l 471 793 b 411 796 454 794 432 796 b 326 704 343 796 326 782 l 326 667 l 476 667 l 476 511 l 326 511 "},"g":{"ha":793,"x_min":0,"x_max":0,"o":"m 371 -247 b 74 -49 139 -247 74 -215 l 74 -32 l 279 -32 l 279 -39 b 369 -89 279 -75 293 -89 l 394 -89 b 504 29 494 -89 504 -76 l 504 124 l 500 124 b 314 33 465 57 406 33 l 301 33 b 54 328 121 33 54 89 l 54 378 b 300 678 54 610 119 678 l 315 678 b 506 590 400 678 465 661 l 507 590 l 507 667 l 721 667 l 721 47 b 394 -247 721 -199 649 -247 m 401 193 b 507 333 486 193 507 218 l 507 374 b 401 514 507 489 486 514 l 381 514 b 275 374 297 514 275 489 l 275 333 b 381 193 275 218 297 193 "},"h":{"ha":808,"x_min":0,"x_max":0,"o":"m 739 0 l 518 0 l 518 379 b 415 508 518 486 504 508 l 404 508 b 293 378 314 508 293 476 l 293 0 l 72 0 l 72 944 l 293 944 l 293 567 l 294 567 b 490 678 329 644 388 678 l 500 678 b 739 404 686 678 739 618 "},"i":{"ha":365,"x_min":0,"x_max":0,"o":"m 293 0 l 72 0 l 72 667 l 293 667 m 293 772 l 72 772 l 72 944 l 293 944 "},"j":{"ha":369,"x_min":0,"x_max":0,"o":"m 297 -39 b 79 -242 297 -196 224 -242 b 6 -236 54 -242 31 -240 l 6 -76 b 32 -78 18 -78 26 -78 b 76 -7 67 -78 76 -64 l 76 667 l 297 667 m 297 772 l 76 772 l 76 944 l 297 944 "},"k":{"ha":738,"x_min":0,"x_max":0,"o":"m 735 0 l 478 0 l 318 289 l 292 289 l 292 0 l 72 0 l 72 944 l 292 944 l 292 417 l 318 417 l 469 667 l 715 667 l 507 356 "},"l":{"ha":365,"x_min":0,"x_max":0,"o":"m 293 0 l 72 0 l 72 944 l 293 944 "},"m":{"ha":1200,"x_min":0,"x_max":0,"o":"m 1132 0 l 911 0 l 911 379 b 818 508 911 482 897 508 l 807 508 b 713 390 732 508 713 478 l 713 0 l 492 0 l 492 379 b 408 508 492 483 474 508 l 397 508 b 293 379 308 508 293 481 l 293 0 l 72 0 l 72 667 l 290 667 l 290 567 l 292 567 b 482 678 318 633 378 678 l 493 678 b 694 554 607 678 669 644 l 696 554 b 899 678 726 633 790 678 l 910 678 b 1132 404 1086 678 1132 614 "},"n":{"ha":808,"x_min":0,"x_max":0,"o":"m 739 0 l 518 0 l 518 379 b 415 508 518 485 504 508 l 404 508 b 293 378 317 508 293 476 l 293 0 l 72 0 l 72 667 l 290 667 l 290 567 l 292 567 b 490 678 326 644 386 678 l 500 678 b 739 404 686 678 739 617 "},"o":{"ha":781,"x_min":0,"x_max":0,"o":"m 401 156 b 508 296 489 156 508 186 l 508 372 b 401 514 508 485 489 514 l 379 514 b 272 372 293 514 272 485 l 272 296 b 379 156 272 186 293 156 m 374 -11 b 54 296 125 -11 54 60 l 54 372 b 374 678 54 606 126 678 l 408 678 b 726 372 656 678 726 606 l 726 296 b 408 -11 726 60 656 -11 "},"p":{"ha":801,"x_min":0,"x_max":0,"o":"m 293 -236 l 72 -236 l 72 667 l 286 667 l 286 590 l 289 590 b 482 678 329 663 393 678 l 497 678 b 747 364 688 678 747 606 l 747 307 b 494 -11 747 65 688 -11 l 476 -11 b 296 82 393 -11 335 6 l 293 82 m 417 156 b 525 307 503 156 525 182 l 525 363 b 417 514 525 488 503 514 l 394 514 b 286 363 310 514 286 488 l 286 307 b 394 156 286 182 310 156 "},"q":{"ha":800,"x_min":0,"x_max":0,"o":"m 728 -236 l 507 -236 l 507 82 l 504 82 b 324 -11 465 6 406 -11 l 306 -11 b 54 307 114 -11 54 65 l 54 364 b 301 678 54 606 114 678 l 319 678 b 513 590 407 678 471 663 l 514 590 l 514 667 l 728 667 m 406 156 b 514 307 492 156 514 182 l 514 363 b 406 514 514 488 492 514 l 383 514 b 275 363 299 514 275 488 l 275 307 b 383 156 275 182 299 156 "},"r":{"ha":661,"x_min":0,"x_max":0,"o":"m 293 0 l 72 0 l 72 667 l 286 667 l 286 546 l 290 546 b 472 678 318 636 364 678 l 481 678 b 642 465 607 678 642 622 b 639 371 642 447 642 414 l 451 371 l 451 414 b 383 499 451 476 438 499 l 372 499 b 293 364 313 499 293 468 "},"s":{"ha":731,"x_min":0,"x_max":0,"o":"m 353 -11 b 56 176 100 -11 56 39 l 56 207 l 260 207 l 260 197 b 353 138 260 149 274 138 l 383 138 b 476 192 460 138 476 147 l 476 200 b 315 274 476 243 468 264 b 60 472 104 288 60 333 l 60 486 b 326 678 60 626 119 678 l 356 678 b 658 493 613 678 658 636 l 658 475 l 460 475 l 460 481 b 372 535 460 521 449 535 l 353 535 b 265 486 275 535 265 524 l 265 476 b 389 425 265 443 278 433 b 683 222 635 406 683 361 l 683 200 b 388 -11 683 38 611 -11 "},"t":{"ha":644,"x_min":0,"x_max":0,"o":"m 343 -11 b 106 257 149 -11 106 35 l 106 508 l 17 508 l 17 667 l 106 667 l 106 840 l 322 840 l 322 667 l 597 667 l 597 508 l 321 508 l 321 281 b 379 156 321 163 329 156 l 389 156 b 443 272 438 156 443 165 l 443 293 l 614 293 l 614 229 b 367 -11 614 39 567 -11 "},"u":{"ha":804,"x_min":0,"x_max":0,"o":"m 732 0 l 514 0 l 514 101 l 513 101 b 311 -11 481 22 418 -11 l 301 -11 b 65 269 122 -11 65 53 l 65 667 l 286 667 l 286 289 b 388 156 286 179 300 156 l 399 156 b 511 290 488 156 511 183 l 511 667 l 732 667 "},"v":{"ha":729,"x_min":0,"x_max":0,"o":"m 514 0 l 215 0 l 10 667 l 244 667 l 368 167 l 372 167 l 492 667 l 719 667 "},"w":{"ha":1150,"x_min":0,"x_max":0,"o":"m 958 0 l 661 0 l 578 449 l 574 449 l 492 0 l 193 0 l 17 667 l 250 667 l 347 160 l 353 160 l 458 667 l 699 667 l 808 160 l 814 160 l 908 667 l 1133 667 "},"x":{"ha":726,"x_min":0,"x_max":0,"o":"m 721 0 l 475 0 l 363 258 l 246 0 l 6 0 l 197 349 l 25 667 l 269 667 l 363 432 l 465 667 l 703 667 l 528 349 "},"y":{"ha":713,"x_min":0,"x_max":0,"o":"m 128 -75 b 176 -78 146 -78 169 -78 b 315 28 257 -78 297 -54 l 196 28 l 10 667 l 239 667 l 354 179 l 363 179 l 476 667 l 703 667 l 528 75 b 221 -242 450 -189 386 -242 b 128 -236 192 -242 158 -239 "},"z":{"ha":636,"x_min":0,"x_max":0,"o":"m 606 0 l 36 0 l 36 161 l 331 504 l 331 507 l 53 507 l 53 667 l 590 667 l 590 499 l 301 164 l 301 161 l 606 161 "},"{":{"ha":543,"x_min":0,"x_max":0,"o":"m 451 -11 l 310 -11 b 128 154 193 -11 128 26 l 128 318 b 50 417 128 382 110 417 l 50 536 b 128 635 110 536 128 571 l 128 790 b 310 956 128 918 193 956 l 451 956 l 451 814 l 419 814 b 335 749 349 814 335 793 l 335 639 b 226 478 335 543 333 490 l 226 475 b 335 314 333 463 335 410 l 335 196 b 419 131 335 151 349 131 l 451 131 "},"|":{"ha":436,"x_min":0,"x_max":0,"o":"m 296 -97 l 140 -97 l 140 1042 l 296 1042 "},"}":{"ha":543,"x_min":0,"x_max":0,"o":"m 92 -11 l 92 131 l 124 131 b 208 196 194 131 208 151 l 208 314 b 317 475 208 410 210 463 l 317 478 b 208 639 210 490 208 543 l 208 749 b 124 814 208 793 194 814 l 92 814 l 92 956 l 232 956 b 415 790 350 956 415 918 l 415 635 b 493 536 415 571 433 536 l 493 417 b 415 318 433 417 415 382 l 415 154 b 232 -11 415 26 350 -11 "},"~":{"ha":788,"x_min":0,"x_max":0,"o":"m 707 460 b 521 301 663 361 613 301 b 396 336 472 301 433 317 b 281 374 358 356 321 374 b 196 306 236 374 215 350 l 82 371 b 268 529 125 472 178 529 b 393 494 315 529 354 514 b 507 457 432 475 469 457 b 593 525 554 457 572 483 "},"€":{"ha":1025,"x_min":0,"x_max":0,"o":"m 940 235 b 581 -11 940 57 878 -11 l 558 -11 b 172 354 239 -11 179 58 l 68 354 l 68 447 l 172 447 l 172 507 l 68 507 l 68 599 l 174 599 b 557 956 181 893 246 956 l 582 956 b 933 717 879 956 933 897 l 933 692 l 707 692 l 707 703 b 582 776 707 756 689 776 l 564 776 b 413 599 440 776 417 760 l 746 599 l 746 507 l 411 507 l 411 447 l 746 447 l 746 354 l 411 354 b 563 172 415 190 438 172 l 581 172 b 715 247 694 172 715 192 l 715 265 l 940 265 "},"‚":{"ha":357,"x_min":0,"x_max":0,"o":"m 285 13 b 61 -221 285 -153 242 -221 l 61 -108 b 146 -14 131 -108 146 -76 l 146 0 l 81 0 l 81 215 l 285 215 "},"ƒ":{"ha":972,"x_min":0,"x_max":0,"o":"m 547 63 b 214 -232 519 -118 443 -232 b 61 -217 160 -232 96 -225 l 61 -47 b 169 -65 79 -53 128 -65 b 335 115 269 -65 311 -36 l 372 358 l 168 358 l 168 528 l 399 528 l 419 656 b 750 954 456 879 567 954 b 907 938 810 954 856 949 l 907 768 b 788 785 879 775 833 785 b 628 597 692 785 651 749 l 617 528 l 853 528 l 853 358 l 592 358 "},"„":{"ha":664,"x_min":0,"x_max":0,"o":"m 592 13 b 368 -221 592 -153 549 -221 l 368 -108 b 453 -14 438 -108 453 -76 l 453 0 l 388 0 l 388 215 l 592 215 m 285 13 b 61 -221 285 -153 242 -221 l 61 -108 b 146 -14 131 -108 146 -76 l 146 0 l 81 0 l 81 215 l 285 215 "},"…":{"ha":1113,"x_min":0,"x_max":0,"o":"m 300 0 l 71 0 l 71 229 l 300 229 m 671 0 l 442 0 l 442 229 l 671 229 m 1042 0 l 813 0 l 813 229 l 1042 229 "},"†":{"ha":826,"x_min":0,"x_max":0,"o":"m 503 -125 l 322 -125 l 322 522 l 103 522 l 103 690 l 322 690 l 322 944 l 503 944 l 503 690 l 724 690 l 724 522 l 503 522 "},"‡":{"ha":799,"x_min":0,"x_max":0,"o":"m 489 -125 l 308 -125 l 308 88 l 103 88 l 103 247 l 308 247 l 308 576 l 103 576 l 103 736 l 308 736 l 308 944 l 489 944 l 489 736 l 696 736 l 696 576 l 489 576 l 489 247 l 696 247 l 696 88 l 489 88 "},"ˆ":{"ha":594,"x_min":0,"x_max":0,"o":"m 453 744 l 297 836 l 142 744 l 74 819 l 297 993 l 521 819 "},"‰":{"ha":1606,"x_min":0,"x_max":0,"o":"m 269 481 b 78 689 118 481 78 525 l 78 739 b 269 946 78 901 118 946 l 292 946 b 485 739 444 946 485 901 l 485 689 b 292 481 485 525 444 481 m 289 585 b 340 683 332 585 340 603 l 340 744 b 289 840 340 824 332 840 l 275 840 b 222 744 231 840 222 824 l 222 683 b 275 585 222 603 231 585 m 446 0 l 314 0 l 694 944 l 825 944 m 849 -1 b 657 207 697 -1 657 43 l 657 257 b 849 464 657 419 697 464 l 871 464 b 1064 257 1024 464 1064 419 l 1064 207 b 871 -1 1064 43 1024 -1 m 868 103 b 919 201 911 103 919 121 l 919 263 b 868 358 919 342 911 358 l 854 358 b 801 263 810 358 801 342 l 801 201 b 854 103 801 121 810 103 m 1313 -1 b 1121 207 1161 -1 1121 43 l 1121 257 b 1313 464 1121 419 1161 464 l 1335 464 b 1528 257 1488 464 1528 419 l 1528 207 b 1335 -1 1528 43 1488 -1 m 1332 103 b 1383 201 1375 103 1383 121 l 1383 263 b 1332 358 1383 342 1375 358 l 1318 358 b 1265 263 1274 358 1265 342 l 1265 201 b 1318 103 1265 121 1274 103 "},"Š":{"ha":913,"x_min":0,"x_max":0,"o":"m 857 271 b 517 -11 857 57 774 -11 l 479 -11 b 60 253 108 -11 60 36 l 60 301 l 286 301 l 286 267 b 457 171 286 190 315 171 l 483 171 b 625 263 604 171 625 193 l 625 279 b 418 390 625 347 606 378 b 63 676 113 411 63 482 l 63 699 b 408 956 63 882 132 956 l 451 956 b 832 704 783 956 832 892 l 832 661 l 607 661 l 607 693 b 460 776 607 751 588 776 l 429 776 b 292 696 315 776 292 760 l 292 678 b 497 576 292 614 308 593 b 857 297 803 549 857 490 m 451 986 l 228 1158 l 296 1233 l 451 1142 l 607 1233 l 675 1158 "},"‹":{"ha":426,"x_min":0,"x_max":0,"o":"m 351 154 l 201 99 l 67 376 l 201 656 l 351 600 l 247 376 "},"Œ":{"ha":1411,"x_min":0,"x_max":0,"o":"m 1369 0 l 696 0 l 696 67 l 693 67 b 463 -11 653 18 594 -11 l 439 -11 b 58 403 156 -11 58 88 l 58 543 b 433 956 58 857 157 956 l 457 956 b 694 874 594 956 658 929 l 696 874 l 696 944 l 1356 944 l 1356 760 l 917 760 l 917 569 l 1326 569 l 1326 394 l 917 394 l 917 189 l 1369 189 m 685 542 b 507 767 685 725 650 767 l 483 767 b 306 542 340 767 306 725 l 306 406 b 483 181 306 222 340 181 l 507 181 b 685 406 650 181 685 222 "},"Ž":{"ha":840,"x_min":0,"x_max":0,"o":"m 792 0 l 50 0 l 50 188 l 503 761 l 503 763 l 61 763 l 61 944 l 782 944 l 782 756 l 331 186 l 331 183 l 792 183 m 426 986 l 203 1158 l 271 1233 l 426 1142 l 582 1233 l 650 1158 "},"‘":{"ha":357,"x_min":0,"x_max":0,"o":"m 276 508 l 72 508 l 72 711 b 296 944 72 876 115 944 l 296 832 b 211 738 226 832 211 800 l 211 724 l 276 724 "},"’":{"ha":357,"x_min":0,"x_max":0,"o":"m 288 742 b 64 508 288 576 244 508 l 64 621 b 149 715 133 621 149 653 l 149 729 l 83 729 l 83 944 l 288 944 "},"“":{"ha":664,"x_min":0,"x_max":0,"o":"m 276 508 l 72 508 l 72 711 b 296 944 72 876 115 944 l 296 832 b 211 738 226 832 211 800 l 211 724 l 276 724 m 583 508 l 379 508 l 379 711 b 603 944 379 876 422 944 l 603 832 b 518 738 533 832 518 800 l 518 724 l 583 724 "},"”":{"ha":664,"x_min":0,"x_max":0,"o":"m 594 742 b 371 508 594 576 551 508 l 371 621 b 456 715 440 621 456 653 l 456 729 l 390 729 l 390 944 l 594 944 m 288 742 b 64 508 288 576 244 508 l 64 621 b 149 715 133 621 149 653 l 149 729 l 83 729 l 83 944 l 288 944 "},"•":{"ha":703,"x_min":0,"x_max":0,"o":"m 557 474 b 351 268 557 360 464 268 b 146 474 238 268 146 360 b 351 679 146 588 238 679 b 557 474 464 679 557 588 "},"–":{"ha":839,"x_min":0,"x_max":0,"o":"m 839 282 l 0 282 l 0 421 l 839 421 "},"—":{"ha":1265,"x_min":0,"x_max":0,"o":"m 1226 282 l 39 282 l 39 421 l 1226 421 "},"˜":{"ha":594,"x_min":0,"x_max":0,"o":"m 503 935 b 376 765 499 832 467 765 b 289 792 340 765 315 778 b 222 815 265 806 244 815 b 174 764 197 815 178 804 l 92 783 b 215 950 94 881 131 950 b 301 924 249 950 274 939 b 372 897 326 910 350 897 b 418 953 400 897 417 917 "},"™":{"ha":1103,"x_min":0,"x_max":0,"o":"m 303 486 l 164 486 l 164 833 l 50 833 l 50 944 l 418 944 l 418 833 l 303 833 m 1033 486 l 901 486 l 903 793 l 900 793 l 806 486 l 707 486 l 611 794 l 607 794 l 611 486 l 479 486 l 479 944 l 669 944 l 757 636 l 760 636 l 847 944 l 1033 944 "},"š":{"ha":731,"x_min":0,"x_max":0,"o":"m 353 -11 b 56 176 100 -11 56 39 l 56 207 l 260 207 l 260 197 b 353 138 260 149 274 138 l 383 138 b 476 192 460 138 476 147 l 476 200 b 315 274 476 243 468 264 b 60 472 104 288 60 333 l 60 486 b 326 678 60 626 119 678 l 356 678 b 658 493 613 678 658 636 l 658 475 l 460 475 l 460 481 b 372 535 460 521 449 535 l 353 535 b 265 486 275 535 265 524 l 265 476 b 389 425 265 443 278 433 b 683 222 635 406 683 361 l 683 200 b 388 -11 683 38 611 -11 m 361 724 l 138 897 l 206 972 l 361 881 l 517 972 l 585 897 "},"›":{"ha":426,"x_min":0,"x_max":0,"o":"m 225 100 l 75 156 l 179 379 l 75 601 l 225 657 l 360 379 "},"œ":{"ha":1208,"x_min":0,"x_max":0,"o":"m 1154 204 b 868 -11 1154 29 1061 -11 l 828 -11 b 622 51 714 -11 654 11 l 621 51 b 396 -11 592 10 511 -11 l 361 -11 b 54 296 128 -11 54 61 l 54 372 b 365 678 54 607 131 678 l 400 678 b 621 614 524 678 589 650 l 622 614 b 819 678 649 650 717 678 l 850 678 b 1153 389 1074 678 1153 622 l 1153 282 l 725 282 l 725 251 b 833 143 725 160 743 143 l 854 143 b 954 207 936 143 954 158 l 954 219 l 1154 219 m 951 410 l 951 429 b 843 535 951 513 933 535 l 833 535 b 725 410 742 535 725 513 m 401 156 b 508 296 489 156 508 186 l 508 372 b 401 514 508 485 489 514 l 379 514 b 272 372 293 514 272 485 l 272 296 b 379 156 272 186 293 156 "},"ž":{"ha":636,"x_min":0,"x_max":0,"o":"m 606 0 l 36 0 l 36 161 l 331 504 l 331 507 l 53 507 l 53 667 l 590 667 l 590 499 l 301 164 l 301 161 l 606 161 m 321 724 l 97 897 l 165 972 l 321 881 l 476 972 l 544 897 "},"Ÿ":{"ha":903,"x_min":0,"x_max":0,"o":"m 572 0 l 329 0 l 329 306 l 10 944 l 271 944 l 453 518 l 457 518 l 632 944 l 893 944 l 572 306 m 396 1033 l 210 1033 l 210 1206 l 396 1206 m 701 1033 l 515 1033 l 515 1206 l 701 1206 "}," ":{"ha":346,"x_min":0,"x_max":0,"o":""},"¡":{"ha":431,"x_min":0,"x_max":0,"o":"m 328 438 l 100 438 l 100 667 l 328 667 m 335 -278 l 96 -278 l 113 326 l 317 326 "},"¢":{"ha":854,"x_min":0,"x_max":0,"o":"m 482 -44 l 390 -44 l 390 111 b 88 404 147 114 88 178 l 88 508 b 390 800 88 733 151 797 l 390 944 l 482 944 l 482 800 b 767 568 706 799 767 739 l 767 536 l 572 536 l 572 557 b 482 638 572 615 557 636 l 482 276 b 572 358 558 278 572 303 l 572 379 l 767 379 l 767 343 b 482 111 767 174 707 113 m 297 404 b 390 276 297 299 311 279 l 390 636 b 297 508 311 635 297 615 "},"£":{"ha":938,"x_min":0,"x_max":0,"o":"m 865 0 l 76 0 l 76 182 b 185 358 157 188 179 222 l 76 358 l 76 519 l 186 519 l 186 582 b 507 956 189 889 250 956 l 542 956 b 853 688 782 956 853 911 l 853 668 l 638 668 l 638 686 b 536 776 638 758 622 776 l 519 776 b 403 615 422 776 403 760 l 403 519 l 689 519 l 689 358 l 400 358 b 278 189 390 256 357 215 l 278 185 l 865 185 "},"¤":{"ha":846,"x_min":0,"x_max":0,"o":"m 692 63 l 574 179 b 424 140 531 154 479 140 b 274 182 372 140 324 153 l 154 63 l 61 157 l 176 274 b 135 429 149 314 135 367 b 174 579 135 486 147 536 l 60 693 l 154 788 l 269 672 b 424 714 314 699 367 714 b 578 675 482 714 533 700 l 690 788 l 785 693 l 675 583 b 717 429 701 542 717 489 b 672 271 717 367 701 314 l 786 157 m 425 299 b 549 429 500 299 549 356 b 425 558 549 500 499 558 b 303 429 350 558 303 500 b 425 299 303 356 350 299 "},"¥":{"ha":924,"x_min":0,"x_max":0,"o":"m 578 0 l 346 0 l 346 257 l 100 257 l 100 368 l 343 368 l 343 375 l 289 483 l 100 483 l 100 594 l 231 594 l 47 944 l 297 944 l 461 519 l 464 519 l 628 944 l 876 944 l 694 596 l 824 596 l 824 483 l 635 483 l 579 375 l 579 368 l 824 368 l 824 257 l 578 257 "},"¦":{"ha":436,"x_min":0,"x_max":0,"o":"m 296 593 l 140 593 l 140 1042 l 296 1042 m 296 -97 l 140 -97 l 140 360 l 296 360 "},"§":{"ha":953,"x_min":0,"x_max":0,"o":"m 864 -54 b 504 -300 864 -244 793 -300 l 467 -300 b 96 -37 135 -300 96 -257 l 96 -7 l 319 -7 l 319 -21 b 471 -124 319 -108 335 -124 l 482 -124 b 633 -26 621 -124 633 -107 l 633 -19 b 483 67 633 47 613 67 l 449 67 b 94 288 174 67 94 128 l 94 307 b 218 485 94 406 124 463 l 218 488 b 94 689 122 507 94 575 l 94 703 b 450 956 94 900 160 956 l 497 956 b 851 686 828 956 851 897 l 851 657 l 632 657 l 632 672 b 500 781 632 763 618 781 l 475 781 b 322 690 338 781 322 765 l 322 678 b 489 585 322 608 343 585 l 504 585 b 864 365 790 585 864 531 l 864 349 b 731 164 864 232 824 181 l 731 161 b 864 -40 829 138 864 94 m 485 231 b 633 319 617 231 633 244 l 633 333 b 485 424 633 408 617 424 l 472 424 b 322 333 339 424 322 408 l 322 319 b 472 231 322 244 339 231 "},"¨":{"ha":594,"x_min":0,"x_max":0,"o":"m 239 772 l 53 772 l 53 944 l 239 944 m 542 772 l 356 772 l 356 944 l 542 944 "},"©":{"ha":1131,"x_min":0,"x_max":0,"o":"m 572 190 b 315 431 368 190 315 232 l 315 515 b 574 753 315 711 367 753 l 589 753 b 815 564 765 753 815 706 l 815 536 l 649 536 l 649 556 b 582 615 649 600 635 615 l 575 615 b 494 515 504 615 494 600 l 494 431 b 574 332 494 343 503 332 l 582 332 b 649 393 638 332 649 347 l 649 411 l 815 411 l 815 381 b 586 190 815 235 763 190 m 585 68 b 964 464 931 68 964 106 l 964 481 b 585 876 964 839 931 876 l 546 876 b 167 481 200 876 167 839 l 167 464 b 546 68 167 106 200 68 m 546 -11 b 76 458 146 -11 76 43 l 76 486 b 546 956 76 901 146 956 l 585 956 b 1054 486 985 956 1054 901 l 1054 458 b 585 -11 1054 43 985 -11 "},"ª":{"ha":540,"x_min":0,"x_max":0,"o":"m 272 610 b 340 650 326 610 340 617 l 340 658 b 269 701 340 693 325 701 l 258 701 b 194 658 204 701 194 693 l 194 651 b 261 610 194 617 203 610 m 471 526 l 343 526 l 343 564 l 340 564 b 222 521 324 538 292 521 l 206 521 b 64 639 97 521 64 549 l 64 665 b 211 783 64 763 108 783 l 225 783 b 336 753 294 783 317 772 l 339 753 l 339 786 b 272 853 339 838 331 853 l 257 853 b 204 818 217 853 204 843 l 204 813 l 78 813 l 78 818 b 268 944 78 922 119 944 l 290 944 b 471 771 438 944 471 914 "},"«":{"ha":717,"x_min":0,"x_max":0,"o":"m 356 154 l 206 99 l 71 376 l 206 656 l 356 600 l 251 376 m 642 154 l 490 99 l 356 376 l 490 656 l 642 600 l 536 376 "},"¬":{"ha":788,"x_min":0,"x_max":0,"o":"m 710 249 l 533 249 l 533 451 l 78 451 l 78 614 l 710 614 "},"­":{"ha":586,"x_min":0,"x_max":0,"o":"m 497 244 l 89 244 l 89 443 l 497 443 "},"®":{"ha":779,"x_min":0,"x_max":0,"o":"m 401 664 b 447 704 435 664 447 674 l 447 717 b 400 760 447 750 435 760 l 350 760 l 350 664 m 546 489 l 449 489 l 449 535 b 388 593 449 583 439 593 l 350 593 l 350 489 l 253 489 l 253 828 l 431 828 b 542 728 513 828 542 807 l 542 715 b 500 635 542 671 528 646 l 500 633 b 546 544 535 624 546 601 m 400 432 b 636 650 604 432 636 458 l 636 665 b 400 883 636 857 604 883 l 378 883 b 143 665 175 883 143 857 l 143 650 b 378 432 143 458 175 432 m 378 369 b 71 650 126 369 71 410 l 71 665 b 378 946 71 906 126 946 l 400 946 b 708 665 651 946 708 906 l 708 650 b 400 369 708 410 651 369 "},"¯":{"ha":594,"x_min":0,"x_max":0,"o":"m 499 793 l 96 793 l 96 924 l 499 924 "},"°":{"ha":532,"x_min":0,"x_max":0,"o":"m 265 538 b 47 753 139 538 47 625 b 265 969 47 881 139 969 b 485 753 394 969 485 881 b 265 538 485 625 394 538 m 265 644 b 375 754 332 644 375 688 b 265 865 375 818 332 865 b 157 754 200 865 157 818 b 265 644 157 688 200 644 "},"±":{"ha":788,"x_min":0,"x_max":0,"o":"m 710 0 l 78 0 l 78 168 l 710 168 m 710 444 l 482 444 l 482 238 l 306 238 l 306 444 l 78 444 l 78 613 l 306 613 l 306 819 l 482 819 l 482 613 l 710 613 "},"²":{"ha":567,"x_min":0,"x_max":0,"o":"m 521 629 l 57 629 l 57 731 b 265 919 57 853 100 892 b 369 981 363 936 369 947 l 369 1000 b 279 1043 369 1035 357 1043 l 271 1043 b 196 985 203 1043 196 1032 l 196 965 l 56 965 l 56 989 b 269 1151 56 1114 86 1151 l 283 1151 b 518 1001 479 1151 518 1114 l 518 988 b 313 815 518 883 496 846 b 200 756 219 800 200 789 l 200 742 l 521 742 "},"³":{"ha":572,"x_min":0,"x_max":0,"o":"m 272 624 b 53 783 93 624 53 651 l 53 807 l 192 807 l 192 782 b 271 732 192 739 201 732 l 279 732 b 378 775 368 732 378 739 l 378 794 b 317 840 378 829 367 840 l 225 840 l 225 938 l 318 938 b 368 982 360 938 368 947 l 368 1003 b 278 1043 368 1035 358 1043 l 269 1043 b 192 994 203 1043 192 1038 l 192 972 l 56 972 l 56 993 b 271 1151 56 1124 96 1151 l 288 1151 b 517 1017 475 1151 517 1124 l 517 1004 b 450 892 517 928 499 907 l 450 890 b 526 783 503 879 526 856 l 526 764 b 289 624 526 653 474 624 "},"´":{"ha":594,"x_min":0,"x_max":0,"o":"m 203 733 l 150 806 l 400 1000 l 493 865 "},"µ":{"ha":817,"x_min":0,"x_max":0,"o":"m 744 0 l 528 0 l 528 99 l 525 99 b 369 -6 499 28 446 -6 l 364 -6 b 296 10 340 -6 308 1 l 293 10 l 293 -236 l 72 -236 l 72 667 l 293 667 l 293 279 b 399 156 293 175 314 156 l 410 156 b 524 289 499 156 524 182 l 524 667 l 744 667 "},"¶":{"ha":904,"x_min":0,"x_max":0,"o":"m 824 -228 l 668 -228 l 668 825 l 583 825 l 583 -228 l 429 -228 l 429 254 l 374 254 b 83 572 142 254 83 343 l 83 629 b 444 944 83 882 142 944 l 824 944 "},"·":{"ha":371,"x_min":0,"x_max":0,"o":"m 300 256 l 71 256 l 71 485 l 300 485 "},"¸":{"ha":594,"x_min":0,"x_max":0,"o":"m 165 -294 l 104 -225 l 332 -12 l 443 -136 "},"¹":{"ha":457,"x_min":0,"x_max":0,"o":"m 342 629 l 189 629 l 189 1011 l 186 1011 l 78 928 l 13 1025 l 168 1146 l 342 1146 "},"º":{"ha":546,"x_min":0,"x_max":0,"o":"m 283 632 b 347 713 338 632 347 651 l 347 760 b 283 839 347 819 338 839 l 261 839 b 197 760 208 839 197 819 l 197 713 b 261 632 197 651 208 632 m 256 525 b 63 713 101 525 63 569 l 63 760 b 256 944 63 901 101 944 l 289 944 b 485 760 444 944 485 901 l 485 713 b 289 525 485 569 444 525 "},"»":{"ha":717,"x_min":0,"x_max":0,"o":"m 225 100 l 75 156 l 179 379 l 75 601 l 225 657 l 360 379 m 510 100 l 360 156 l 464 379 l 360 601 l 510 657 l 644 379 "},"¼":{"ha":1276,"x_min":0,"x_max":0,"o":"m 476 0 l 346 0 l 726 944 l 857 944 m 408 428 l 256 428 l 256 810 l 253 810 l 144 726 l 72 822 l 235 944 l 408 944 m 1133 0 l 986 0 l 986 104 l 683 104 l 683 240 l 929 517 l 1133 517 l 1133 208 l 1201 208 l 1201 104 l 1133 104 m 986 208 l 986 415 l 982 415 l 807 210 l 807 208 "},"½":{"ha":1278,"x_min":0,"x_max":0,"o":"m 476 0 l 346 0 l 726 944 l 857 944 m 408 428 l 256 428 l 256 810 l 253 810 l 144 726 l 72 822 l 235 944 l 408 944 m 1201 0 l 738 0 l 738 101 b 946 290 738 224 781 263 b 1050 351 1043 307 1050 318 l 1050 371 b 960 414 1050 406 1038 414 l 951 414 b 876 356 883 414 876 403 l 876 336 l 736 336 l 736 360 b 950 522 736 485 767 522 l 964 522 b 1199 372 1160 522 1199 485 l 1199 358 b 993 186 1199 254 1176 217 b 881 126 900 171 881 160 l 881 113 l 1201 113 "},"¾":{"ha":1392,"x_min":0,"x_max":0,"o":"m 593 0 l 461 0 l 843 944 l 972 944 m 1249 0 l 1101 0 l 1101 104 l 799 104 l 799 240 l 1044 517 l 1249 517 l 1249 208 l 1317 208 l 1317 104 l 1249 104 m 1101 208 l 1101 415 l 1097 415 l 922 210 l 922 208 m 317 422 b 97 582 138 422 97 450 l 97 606 l 236 606 l 236 581 b 315 531 236 538 246 531 l 324 531 b 422 574 413 531 422 538 l 422 593 b 361 639 422 628 411 639 l 269 639 l 269 736 l 363 736 b 413 781 404 736 413 746 l 413 801 b 322 842 413 833 403 842 l 314 842 b 236 793 247 842 236 836 l 236 771 l 100 771 l 100 792 b 315 950 100 922 140 950 l 332 950 b 561 815 519 950 561 922 l 561 803 b 494 690 561 726 543 706 l 494 689 b 571 582 547 678 571 654 l 571 563 b 333 422 571 451 518 422 "},"¿":{"ha":792,"x_min":0,"x_max":0,"o":"m 526 444 l 299 444 l 299 667 l 526 667 m 378 -289 b 57 -44 125 -289 57 -237 l 57 -19 b 221 236 57 135 86 192 b 313 326 301 263 313 268 l 313 347 l 517 347 l 517 303 b 376 97 517 176 490 136 b 261 -12 272 63 261 49 l 261 -22 b 382 -118 261 -103 285 -118 l 400 -118 b 526 8 507 -118 526 -106 l 526 38 l 725 38 l 725 -8 b 399 -289 725 -239 657 -289 "},"À":{"ha":982,"x_min":0,"x_max":0,"o":"m 969 0 l 713 0 l 660 183 l 314 183 l 261 0 l 13 0 l 321 944 l 658 944 m 607 361 l 490 771 l 483 771 l 364 361 m 575 1007 l 272 1101 l 344 1247 l 618 1085 "},"Á":{"ha":982,"x_min":0,"x_max":0,"o":"m 969 0 l 713 0 l 660 183 l 314 183 l 261 0 l 13 0 l 321 944 l 658 944 m 607 361 l 490 771 l 483 771 l 364 361 m 692 1101 l 389 1007 l 346 1085 l 619 1247 "},"Â":{"ha":982,"x_min":0,"x_max":0,"o":"m 969 0 l 713 0 l 660 183 l 314 183 l 261 0 l 13 0 l 321 944 l 658 944 m 607 361 l 490 771 l 483 771 l 364 361 m 643 1011 l 488 1101 l 332 1011 l 264 1086 l 488 1258 l 711 1086 "},"Ã":{"ha":982,"x_min":0,"x_max":0,"o":"m 969 0 l 713 0 l 660 183 l 314 183 l 261 0 l 13 0 l 321 944 l 658 944 m 607 361 l 490 771 l 483 771 l 364 361 m 692 1197 b 565 1028 688 1094 656 1028 b 478 1054 529 1028 504 1040 b 411 1078 454 1068 433 1078 b 363 1026 386 1078 367 1067 l 281 1046 b 404 1213 283 1143 319 1213 b 490 1186 438 1213 463 1201 b 561 1160 515 1172 539 1160 b 607 1215 589 1160 606 1179 "},"Ä":{"ha":982,"x_min":0,"x_max":0,"o":"m 969 0 l 713 0 l 660 183 l 314 183 l 261 0 l 13 0 l 321 944 l 658 944 m 607 361 l 490 771 l 483 771 l 364 361 m 426 1033 l 240 1033 l 240 1206 l 426 1206 m 732 1033 l 546 1033 l 546 1206 l 732 1206 "},"Å":{"ha":982,"x_min":0,"x_max":0,"o":"m 969 0 l 713 0 l 660 183 l 314 183 l 261 0 l 13 0 l 321 944 l 658 944 m 607 361 l 490 771 l 483 771 l 364 361 m 483 992 b 322 1113 358 992 322 1024 l 322 1121 b 483 1240 322 1208 358 1240 l 489 1240 b 650 1121 614 1240 650 1208 l 650 1113 b 489 992 650 1024 614 992 m 489 1058 b 564 1111 550 1058 564 1069 l 564 1119 b 489 1172 564 1161 550 1172 l 483 1172 b 408 1119 422 1172 408 1161 l 408 1111 b 483 1058 408 1069 422 1058 "},"Æ":{"ha":1378,"x_min":0,"x_max":0,"o":"m 1336 0 l 647 0 l 647 183 l 342 183 l 275 0 l 21 0 l 401 944 l 1322 944 l 1322 760 l 883 760 l 883 569 l 1293 569 l 1293 394 l 883 394 l 883 189 l 1336 189 m 647 361 l 647 763 l 557 763 l 408 361 "},"Ç":{"ha":943,"x_min":0,"x_max":0,"o":"m 467 -11 b 58 403 140 -11 58 75 l 58 544 b 468 956 58 867 142 956 l 494 956 b 882 651 804 956 882 881 l 882 607 l 647 607 l 647 638 b 493 767 647 721 621 767 l 476 767 b 306 543 333 767 306 726 l 306 406 b 474 181 306 211 342 181 l 492 181 b 653 317 608 181 653 211 l 653 353 l 886 353 l 886 296 b 493 -11 886 58 793 -11 m 335 -294 l 274 -225 l 501 -12 l 613 -136 "},"È":{"ha":813,"x_min":0,"x_max":0,"o":"m 771 0 l 76 0 l 76 944 l 757 944 l 757 760 l 318 760 l 318 569 l 728 569 l 728 394 l 318 394 l 318 189 l 771 189 m 524 1007 l 221 1101 l 293 1247 l 567 1085 "},"É":{"ha":813,"x_min":0,"x_max":0,"o":"m 771 0 l 76 0 l 76 944 l 757 944 l 757 760 l 318 760 l 318 569 l 728 569 l 728 394 l 318 394 l 318 189 l 771 189 m 600 1101 l 297 1007 l 254 1085 l 528 1247 "},"Ê":{"ha":813,"x_min":0,"x_max":0,"o":"m 771 0 l 76 0 l 76 944 l 757 944 l 757 760 l 318 760 l 318 569 l 728 569 l 728 394 l 318 394 l 318 189 l 771 189 m 575 1011 l 419 1101 l 264 1011 l 196 1086 l 419 1258 l 643 1086 "},"Ë":{"ha":813,"x_min":0,"x_max":0,"o":"m 771 0 l 76 0 l 76 944 l 757 944 l 757 760 l 318 760 l 318 569 l 728 569 l 728 394 l 318 394 l 318 189 l 771 189 m 356 1033 l 169 1033 l 169 1206 l 356 1206 m 661 1033 l 475 1033 l 475 1206 l 661 1206 "},"Ì":{"ha":396,"x_min":0,"x_max":0,"o":"m 319 0 l 76 0 l 76 944 l 319 944 m 256 1007 l -47 1101 l 25 1247 l 299 1085 "},"Í":{"ha":396,"x_min":0,"x_max":0,"o":"m 319 0 l 76 0 l 76 944 l 319 944 m 439 1101 l 136 1007 l 93 1085 l 367 1247 "},"Î":{"ha":396,"x_min":0,"x_max":0,"o":"m 319 0 l 76 0 l 76 944 l 319 944 m 353 1011 l 197 1101 l 42 1011 l -26 1086 l 197 1258 l 421 1086 "},"Ï":{"ha":396,"x_min":0,"x_max":0,"o":"m 319 0 l 76 0 l 76 944 l 319 944 m 138 1033 l -49 1033 l -49 1206 l 138 1206 m 443 1033 l 257 1033 l 257 1206 l 443 1206 "},"Ð":{"ha":996,"x_min":0,"x_max":0,"o":"m 15 549 l 76 549 l 76 944 l 492 944 b 935 561 851 944 935 886 l 935 392 b 492 0 935 67 871 0 l 76 0 l 76 414 l 15 414 m 482 189 b 690 413 658 189 690 225 l 690 544 b 482 760 690 725 658 760 l 319 760 l 319 549 l 479 549 l 479 414 l 319 414 l 319 189 "},"Ñ":{"ha":1053,"x_min":0,"x_max":0,"o":"m 976 0 l 628 0 l 300 736 l 293 736 l 300 0 l 76 0 l 76 944 l 433 944 l 756 213 l 763 213 l 751 944 l 976 944 m 736 1197 b 610 1028 732 1094 700 1028 b 522 1054 574 1028 549 1040 b 456 1078 499 1068 478 1078 b 407 1026 431 1078 411 1067 l 325 1046 b 449 1213 328 1143 364 1213 b 535 1186 482 1213 507 1201 b 606 1160 560 1172 583 1160 b 651 1215 633 1160 650 1179 "},"Ò":{"ha":990,"x_min":0,"x_max":0,"o":"m 479 -11 b 58 401 140 -11 58 88 l 58 543 b 479 956 58 857 140 956 l 511 956 b 932 543 850 956 932 857 l 932 401 b 511 -11 932 88 850 -11 m 507 181 b 685 406 650 181 685 222 l 685 542 b 507 767 685 725 650 767 l 483 767 b 306 542 340 767 306 725 l 306 406 b 483 181 306 222 340 181 m 606 1007 l 303 1101 l 375 1247 l 649 1085 "},"Ó":{"ha":990,"x_min":0,"x_max":0,"o":"m 479 -11 b 58 401 140 -11 58 88 l 58 543 b 479 956 58 857 140 956 l 511 956 b 932 543 850 956 932 857 l 932 401 b 511 -11 932 88 850 -11 m 507 181 b 685 406 650 181 685 222 l 685 542 b 507 767 685 725 650 767 l 483 767 b 306 542 340 767 306 725 l 306 406 b 483 181 306 222 340 181 m 681 1101 l 378 1007 l 335 1085 l 608 1247 "},"Ô":{"ha":990,"x_min":0,"x_max":0,"o":"m 479 -11 b 58 401 140 -11 58 88 l 58 543 b 479 956 58 857 140 956 l 511 956 b 932 543 850 956 932 857 l 932 401 b 511 -11 932 88 850 -11 m 507 181 b 685 406 650 181 685 222 l 685 542 b 507 767 685 725 650 767 l 483 767 b 306 542 340 767 306 725 l 306 406 b 483 181 306 222 340 181 m 650 1011 l 494 1101 l 339 1011 l 271 1086 l 494 1258 l 718 1086 "},"Õ":{"ha":990,"x_min":0,"x_max":0,"o":"m 479 -11 b 58 401 140 -11 58 88 l 58 543 b 479 956 58 857 140 956 l 511 956 b 932 543 850 956 932 857 l 932 401 b 511 -11 932 88 850 -11 m 507 181 b 685 406 650 181 685 222 l 685 542 b 507 767 685 725 650 767 l 483 767 b 306 542 340 767 306 725 l 306 406 b 483 181 306 222 340 181 m 700 1197 b 574 1028 696 1094 664 1028 b 486 1054 538 1028 513 1040 b 419 1078 463 1068 442 1078 b 371 1026 394 1078 375 1067 l 289 1046 b 413 1213 292 1143 328 1213 b 499 1186 446 1213 471 1201 b 569 1160 524 1172 547 1160 b 615 1215 597 1160 614 1179 "},"Ö":{"ha":990,"x_min":0,"x_max":0,"o":"m 479 -11 b 58 401 140 -11 58 88 l 58 543 b 479 956 58 857 140 956 l 511 956 b 932 543 850 956 932 857 l 932 401 b 511 -11 932 88 850 -11 m 507 181 b 685 406 650 181 685 222 l 685 542 b 507 767 685 725 650 767 l 483 767 b 306 542 340 767 306 725 l 306 406 b 483 181 306 222 340 181 m 435 1033 l 249 1033 l 249 1206 l 435 1206 m 740 1033 l 554 1033 l 554 1206 l 740 1206 "},"×":{"ha":788,"x_min":0,"x_max":0,"o":"m 704 211 l 585 94 l 393 290 l 203 94 l 83 208 l 279 410 l 89 606 l 208 719 l 394 528 l 581 718 l 700 607 l 510 411 "},"Ø":{"ha":988,"x_min":0,"x_max":0,"o":"m 874 990 l 953 922 l 872 832 b 929 543 914 768 929 675 l 929 401 b 510 -11 929 88 849 -11 l 478 -11 b 181 46 339 -11 244 6 l 101 -43 l 25 25 l 108 121 b 58 401 71 185 58 275 l 58 543 b 478 956 58 857 139 956 l 510 956 b 797 904 640 956 733 940 m 689 542 b 686 618 689 571 688 596 l 339 217 b 482 178 367 188 411 178 l 506 178 b 689 406 653 178 689 222 m 506 769 l 482 769 b 299 542 335 769 299 726 l 299 406 b 301 331 299 378 299 353 l 646 731 b 506 769 618 760 574 769 "},"Ù":{"ha":969,"x_min":0,"x_max":0,"o":"m 471 -11 b 74 326 140 -11 74 57 l 74 944 l 317 944 l 317 350 b 474 181 317 206 336 181 l 494 181 b 653 350 633 181 653 206 l 653 944 l 896 944 l 896 326 b 497 -11 896 57 831 -11 m 597 1007 l 294 1101 l 367 1247 l 640 1085 "},"Ú":{"ha":969,"x_min":0,"x_max":0,"o":"m 471 -11 b 74 326 140 -11 74 57 l 74 944 l 317 944 l 317 350 b 474 181 317 206 336 181 l 494 181 b 653 350 633 181 653 206 l 653 944 l 896 944 l 896 326 b 497 -11 896 57 831 -11 m 656 1101 l 353 1007 l 310 1085 l 583 1247 "},"Û":{"ha":969,"x_min":0,"x_max":0,"o":"m 471 -11 b 74 326 140 -11 74 57 l 74 944 l 317 944 l 317 350 b 474 181 317 206 336 181 l 494 181 b 653 350 633 181 653 206 l 653 944 l 896 944 l 896 326 b 497 -11 896 57 831 -11 m 640 1011 l 485 1101 l 329 1011 l 261 1086 l 485 1258 l 708 1086 "},"Ü":{"ha":969,"x_min":0,"x_max":0,"o":"m 471 -11 b 74 326 140 -11 74 57 l 74 944 l 317 944 l 317 350 b 474 181 317 206 336 181 l 494 181 b 653 350 633 181 653 206 l 653 944 l 896 944 l 896 326 b 497 -11 896 57 831 -11 m 425 1033 l 239 1033 l 239 1206 l 425 1206 m 731 1033 l 544 1033 l 544 1206 l 731 1206 "},"Ý":{"ha":903,"x_min":0,"x_max":0,"o":"m 572 0 l 329 0 l 329 306 l 10 944 l 271 944 l 453 518 l 457 518 l 632 944 l 893 944 l 572 306 m 683 1101 l 381 1007 l 338 1085 l 611 1247 "},"Þ":{"ha":896,"x_min":0,"x_max":0,"o":"m 314 0 l 76 0 l 76 944 l 314 944 l 314 826 l 486 826 b 851 511 776 826 851 768 l 851 454 b 497 139 851 194 767 139 l 314 139 m 471 324 b 614 451 592 324 614 354 l 614 514 b 469 644 614 618 590 644 l 314 644 l 314 324 "},"ß":{"ha":819,"x_min":0,"x_max":0,"o":"m 501 -11 b 353 13 436 -11 385 -1 l 369 168 b 461 151 388 161 425 151 b 547 294 529 151 547 176 l 547 367 b 429 499 547 478 526 499 l 403 499 l 403 646 l 421 646 b 492 717 475 646 492 658 l 492 732 b 406 804 492 788 476 804 l 375 804 b 292 696 307 804 292 786 l 292 0 l 72 0 l 72 696 b 357 954 72 885 138 954 l 417 954 b 700 763 621 954 700 900 l 700 740 b 589 590 700 644 663 607 l 589 588 b 765 350 706 576 765 526 l 765 275 b 501 -11 765 69 690 -11 "},"à":{"ha":760,"x_min":0,"x_max":0,"o":"m 692 0 l 482 0 l 482 68 l 478 68 b 303 -11 449 14 407 -11 l 281 -11 b 56 196 103 -11 56 40 l 56 226 b 294 425 56 374 119 425 l 304 425 b 476 372 400 425 449 408 l 482 372 l 482 432 b 386 533 482 517 474 533 l 369 533 b 274 488 290 533 274 521 l 274 469 l 72 469 l 72 483 b 381 678 72 642 140 678 l 406 678 b 692 386 649 678 692 632 m 381 136 b 485 201 471 136 485 151 l 485 226 b 378 292 485 278 474 292 l 365 292 b 260 226 274 292 260 276 l 260 201 b 369 136 260 150 275 136 m 494 733 l 203 865 l 297 1000 l 547 806 "},"á":{"ha":760,"x_min":0,"x_max":0,"o":"m 692 0 l 482 0 l 482 68 l 478 68 b 303 -11 449 14 407 -11 l 281 -11 b 56 196 103 -11 56 40 l 56 226 b 294 425 56 374 119 425 l 304 425 b 476 372 400 425 449 408 l 482 372 l 482 432 b 386 533 482 517 474 533 l 369 533 b 274 488 290 533 274 521 l 274 469 l 72 469 l 72 483 b 381 678 72 642 140 678 l 406 678 b 692 386 649 678 692 632 m 381 136 b 485 201 471 136 485 151 l 485 226 b 378 292 485 278 474 292 l 365 292 b 260 226 274 292 260 276 l 260 201 b 369 136 260 150 275 136 m 282 733 l 229 806 l 479 1000 l 572 865 "},"â":{"ha":760,"x_min":0,"x_max":0,"o":"m 692 0 l 482 0 l 482 68 l 478 68 b 303 -11 449 14 407 -11 l 281 -11 b 56 196 103 -11 56 40 l 56 226 b 294 425 56 374 119 425 l 304 425 b 476 372 400 425 449 408 l 482 372 l 482 432 b 386 533 482 517 474 533 l 369 533 b 274 488 290 533 274 521 l 274 469 l 72 469 l 72 483 b 381 678 72 642 140 678 l 406 678 b 692 386 649 678 692 632 m 381 136 b 485 201 471 136 485 151 l 485 226 b 378 292 485 278 474 292 l 365 292 b 260 226 274 292 260 276 l 260 201 b 369 136 260 150 275 136 m 539 744 l 383 836 l 228 744 l 160 819 l 383 993 l 607 819 "},"ã":{"ha":760,"x_min":0,"x_max":0,"o":"m 692 0 l 482 0 l 482 68 l 478 68 b 303 -11 449 14 407 -11 l 281 -11 b 56 196 103 -11 56 40 l 56 226 b 294 425 56 374 119 425 l 304 425 b 476 372 400 425 449 408 l 482 372 l 482 432 b 386 533 482 517 474 533 l 369 533 b 274 488 290 533 274 521 l 274 469 l 72 469 l 72 483 b 381 678 72 642 140 678 l 406 678 b 692 386 649 678 692 632 m 381 136 b 485 201 471 136 485 151 l 485 226 b 378 292 485 278 474 292 l 365 292 b 260 226 274 292 260 276 l 260 201 b 369 136 260 150 275 136 m 582 935 b 456 765 578 832 546 765 b 368 792 419 765 394 778 b 301 815 344 806 324 815 b 253 764 276 815 257 804 l 171 783 b 294 950 174 881 210 950 b 381 924 328 950 353 939 b 451 897 406 910 429 897 b 497 953 479 897 496 917 "},"ä":{"ha":760,"x_min":0,"x_max":0,"o":"m 692 0 l 482 0 l 482 68 l 478 68 b 303 -11 449 14 407 -11 l 281 -11 b 56 196 103 -11 56 40 l 56 226 b 294 425 56 374 119 425 l 304 425 b 476 372 400 425 449 408 l 482 372 l 482 432 b 386 533 482 517 474 533 l 369 533 b 274 488 290 533 274 521 l 274 469 l 72 469 l 72 483 b 381 678 72 642 140 678 l 406 678 b 692 386 649 678 692 632 m 381 136 b 485 201 471 136 485 151 l 485 226 b 378 292 485 278 474 292 l 365 292 b 260 226 274 292 260 276 l 260 201 b 369 136 260 150 275 136 m 324 772 l 138 772 l 138 944 l 324 944 m 626 772 l 440 772 l 440 944 l 626 944 "},"å":{"ha":760,"x_min":0,"x_max":0,"o":"m 692 0 l 482 0 l 482 68 l 478 68 b 303 -11 449 14 407 -11 l 281 -11 b 56 196 103 -11 56 40 l 56 226 b 294 425 56 374 119 425 l 304 425 b 476 372 400 425 449 408 l 482 372 l 482 432 b 386 533 482 517 474 533 l 369 533 b 274 488 290 533 274 521 l 274 469 l 72 469 l 72 483 b 381 678 72 642 140 678 l 406 678 b 692 386 649 678 692 632 m 381 136 b 485 201 471 136 485 151 l 485 226 b 378 292 485 278 474 292 l 365 292 b 260 226 274 292 260 276 l 260 201 b 369 136 260 150 275 136 m 382 743 b 221 864 257 743 221 775 l 221 872 b 382 992 221 960 257 992 l 388 992 b 549 872 513 992 549 960 l 549 864 b 388 743 549 775 513 743 m 388 810 b 463 863 449 810 463 821 l 463 871 b 388 924 463 913 449 924 l 382 924 b 307 871 321 924 307 913 l 307 863 b 382 810 307 821 321 810 "},"æ":{"ha":1176,"x_min":0,"x_max":0,"o":"m 1122 204 b 840 -11 1122 36 1025 -11 l 800 -11 b 531 114 638 -11 564 17 l 526 114 b 307 -11 489 13 419 -11 l 281 -11 b 56 196 103 -11 56 40 l 56 226 b 294 425 56 374 119 425 l 313 425 b 476 372 403 425 449 408 l 482 372 l 482 432 b 386 533 482 515 474 533 l 369 533 b 274 488 290 533 274 521 l 274 469 l 72 469 l 72 483 b 372 678 72 642 140 678 l 397 678 b 594 615 514 678 569 658 l 596 615 b 783 678 628 654 682 678 l 814 678 b 1121 388 1039 678 1121 628 l 1121 282 l 693 282 l 693 251 b 803 143 693 156 713 143 l 822 143 b 922 207 904 143 922 154 l 922 219 l 1122 219 m 381 136 b 485 201 471 136 485 151 l 485 226 b 378 292 485 278 474 292 l 365 292 b 260 226 274 292 260 276 l 260 201 b 369 136 260 150 275 136 m 919 410 l 919 429 b 810 535 919 511 904 535 l 799 535 b 692 410 707 535 692 517 "},"ç":{"ha":743,"x_min":0,"x_max":0,"o":"m 363 -11 b 54 296 121 -11 54 61 l 54 372 b 368 678 54 607 125 678 l 400 678 b 692 446 631 678 692 608 l 692 414 l 490 414 l 490 429 b 399 514 490 492 468 514 l 375 514 b 275 372 290 514 275 485 l 275 296 b 379 156 275 183 294 156 l 404 156 b 489 243 474 156 489 178 l 489 257 l 692 257 l 692 232 b 394 -11 692 56 632 -11 m 232 -294 l 171 -225 l 399 -12 l 510 -136 "},"è":{"ha":751,"x_min":0,"x_max":0,"o":"m 361 -11 b 54 296 119 -11 54 58 l 54 372 b 358 678 54 615 136 678 l 388 678 b 694 388 625 678 694 617 l 694 282 l 267 282 l 267 251 b 376 143 267 160 283 143 l 396 143 b 496 207 479 143 496 156 l 496 219 l 697 219 l 697 204 b 400 -11 697 44 614 -11 m 493 410 l 493 426 b 383 535 493 510 478 535 l 374 535 b 265 410 281 535 265 515 m 490 733 l 199 865 l 293 1000 l 543 806 "},"é":{"ha":751,"x_min":0,"x_max":0,"o":"m 361 -11 b 54 296 119 -11 54 58 l 54 372 b 358 678 54 615 136 678 l 388 678 b 694 388 625 678 694 617 l 694 282 l 267 282 l 267 251 b 376 143 267 160 283 143 l 396 143 b 496 207 479 143 496 156 l 496 219 l 697 219 l 697 204 b 400 -11 697 44 614 -11 m 493 410 l 493 426 b 383 535 493 510 478 535 l 374 535 b 265 410 281 535 265 515 m 274 733 l 221 806 l 471 1000 l 564 865 "},"ê":{"ha":751,"x_min":0,"x_max":0,"o":"m 361 -11 b 54 296 119 -11 54 58 l 54 372 b 358 678 54 615 136 678 l 388 678 b 694 388 625 678 694 617 l 694 282 l 267 282 l 267 251 b 376 143 267 160 283 143 l 396 143 b 496 207 479 143 496 156 l 496 219 l 697 219 l 697 204 b 400 -11 697 44 614 -11 m 493 410 l 493 426 b 383 535 493 510 478 535 l 374 535 b 265 410 281 535 265 515 m 535 744 l 379 836 l 224 744 l 156 819 l 379 993 l 603 819 "},"ë":{"ha":751,"x_min":0,"x_max":0,"o":"m 361 -11 b 54 296 119 -11 54 58 l 54 372 b 358 678 54 615 136 678 l 388 678 b 694 388 625 678 694 617 l 694 282 l 267 282 l 267 251 b 376 143 267 160 283 143 l 396 143 b 496 207 479 143 496 156 l 496 219 l 697 219 l 697 204 b 400 -11 697 44 614 -11 m 493 410 l 493 426 b 383 535 493 510 478 535 l 374 535 b 265 410 281 535 265 515 m 322 772 l 136 772 l 136 944 l 322 944 m 625 772 l 439 772 l 439 944 l 625 944 "},"ì":{"ha":365,"x_min":0,"x_max":0,"o":"m 293 0 l 72 0 l 72 667 l 293 667 m 228 733 l -64 865 l 31 1000 l 281 806 "},"í":{"ha":365,"x_min":0,"x_max":0,"o":"m 293 0 l 72 0 l 72 667 l 293 667 m 132 733 l 79 806 l 329 1000 l 422 865 "},"î":{"ha":365,"x_min":0,"x_max":0,"o":"m 293 0 l 72 0 l 72 667 l 293 667 m 338 744 l 182 836 l 26 744 l -42 819 l 182 993 l 406 819 "},"ï":{"ha":365,"x_min":0,"x_max":0,"o":"m 293 0 l 72 0 l 72 667 l 293 667 m 132 772 l -54 772 l -54 944 l 132 944 m 419 772 l 233 772 l 233 944 l 419 944 "},"ð":{"ha":775,"x_min":0,"x_max":0,"o":"m 360 -11 b 54 293 113 -11 54 61 l 54 340 b 303 635 54 563 126 635 l 315 635 b 501 558 421 635 474 608 l 503 558 b 354 757 499 654 439 719 l 214 686 l 176 761 l 246 796 b 82 824 197 810 142 819 l 150 956 b 429 900 265 947 356 929 l 565 969 l 603 896 l 521 854 b 721 326 683 754 721 581 l 721 308 b 399 -11 721 60 664 -11 m 399 156 b 504 297 486 156 504 179 l 504 335 b 399 475 504 454 483 475 l 375 475 b 269 335 292 475 269 456 l 269 297 b 375 156 269 178 289 156 "},"ñ":{"ha":808,"x_min":0,"x_max":0,"o":"m 739 0 l 518 0 l 518 379 b 415 508 518 485 504 508 l 404 508 b 293 378 317 508 293 476 l 293 0 l 72 0 l 72 667 l 290 667 l 290 567 l 292 567 b 490 678 326 644 386 678 l 500 678 b 739 404 686 678 739 617 m 618 935 b 492 765 614 832 582 765 b 404 792 456 765 431 778 b 338 815 381 806 360 815 b 289 764 313 815 293 804 l 207 783 b 331 950 210 881 246 950 b 417 924 364 950 389 939 b 488 897 442 910 465 897 b 533 953 515 897 532 917 "},"ò":{"ha":781,"x_min":0,"x_max":0,"o":"m 401 156 b 508 296 489 156 508 186 l 508 372 b 401 514 508 485 489 514 l 379 514 b 272 372 293 514 272 485 l 272 296 b 379 156 272 186 293 156 m 374 -11 b 54 296 125 -11 54 60 l 54 372 b 374 678 54 606 126 678 l 408 678 b 726 372 656 678 726 606 l 726 296 b 408 -11 726 60 656 -11 m 507 733 l 215 865 l 310 1000 l 560 806 "},"ó":{"ha":781,"x_min":0,"x_max":0,"o":"m 401 156 b 508 296 489 156 508 186 l 508 372 b 401 514 508 485 489 514 l 379 514 b 272 372 293 514 272 485 l 272 296 b 379 156 272 186 293 156 m 374 -11 b 54 296 125 -11 54 60 l 54 372 b 374 678 54 606 126 678 l 408 678 b 726 372 656 678 726 606 l 726 296 b 408 -11 726 60 656 -11 m 290 733 l 238 806 l 488 1000 l 581 865 "},"ô":{"ha":781,"x_min":0,"x_max":0,"o":"m 401 156 b 508 296 489 156 508 186 l 508 372 b 401 514 508 485 489 514 l 379 514 b 272 372 293 514 272 485 l 272 296 b 379 156 272 186 293 156 m 374 -11 b 54 296 125 -11 54 60 l 54 372 b 374 678 54 606 126 678 l 408 678 b 726 372 656 678 726 606 l 726 296 b 408 -11 726 60 656 -11 m 546 744 l 390 836 l 235 744 l 167 819 l 390 993 l 614 819 "},"õ":{"ha":781,"x_min":0,"x_max":0,"o":"m 401 156 b 508 296 489 156 508 186 l 508 372 b 401 514 508 485 489 514 l 379 514 b 272 372 293 514 272 485 l 272 296 b 379 156 272 186 293 156 m 374 -11 b 54 296 125 -11 54 60 l 54 372 b 374 678 54 606 126 678 l 408 678 b 726 372 656 678 726 606 l 726 296 b 408 -11 726 60 656 -11 m 594 935 b 468 765 590 832 558 765 b 381 792 432 765 407 778 b 314 815 357 806 336 815 b 265 764 289 815 269 804 l 183 783 b 307 950 186 881 222 950 b 393 924 340 950 365 939 b 464 897 418 910 442 897 b 510 953 492 897 508 917 "},"ö":{"ha":781,"x_min":0,"x_max":0,"o":"m 401 156 b 508 296 489 156 508 186 l 508 372 b 401 514 508 485 489 514 l 379 514 b 272 372 293 514 272 485 l 272 296 b 379 156 272 186 293 156 m 374 -11 b 54 296 125 -11 54 60 l 54 372 b 374 678 54 606 126 678 l 408 678 b 726 372 656 678 726 606 l 726 296 b 408 -11 726 60 656 -11 m 332 772 l 146 772 l 146 944 l 332 944 m 635 772 l 449 772 l 449 944 l 635 944 "},"÷":{"ha":788,"x_min":0,"x_max":0,"o":"m 499 688 b 394 583 499 631 450 583 b 289 688 338 583 289 631 b 394 790 289 744 338 790 b 499 688 450 790 499 744 m 499 151 b 394 47 499 94 450 47 b 289 151 338 47 289 94 b 394 254 289 208 338 254 b 499 151 450 254 499 208 m 710 338 l 78 338 l 78 506 l 710 506 "},"ø":{"ha":778,"x_min":0,"x_max":0,"o":"m 90 -36 l 32 21 l 94 85 b 54 296 65 132 54 200 l 54 372 b 372 678 54 607 125 678 l 407 678 b 628 636 507 678 578 665 l 686 694 l 744 638 l 685 578 b 724 372 713 531 724 464 l 724 296 b 407 -11 724 58 654 -11 l 372 -11 b 153 28 272 -11 203 0 m 400 518 l 378 518 b 265 372 288 518 265 490 l 265 261 l 489 490 b 400 518 472 511 449 518 m 400 151 b 513 296 490 151 513 179 l 513 397 l 294 172 b 378 151 311 156 335 151 "},"ù":{"ha":804,"x_min":0,"x_max":0,"o":"m 732 0 l 514 0 l 514 101 l 513 101 b 311 -11 481 22 418 -11 l 301 -11 b 65 269 122 -11 65 53 l 65 667 l 286 667 l 286 289 b 388 156 286 179 300 156 l 399 156 b 511 290 488 156 511 183 l 511 667 l 732 667 m 524 733 l 232 865 l 326 1000 l 576 806 "},"ú":{"ha":804,"x_min":0,"x_max":0,"o":"m 732 0 l 514 0 l 514 101 l 513 101 b 311 -11 481 22 418 -11 l 301 -11 b 65 269 122 -11 65 53 l 65 667 l 286 667 l 286 289 b 388 156 286 179 300 156 l 399 156 b 511 290 488 156 511 183 l 511 667 l 732 667 m 289 733 l 236 806 l 486 1000 l 579 865 "},"û":{"ha":804,"x_min":0,"x_max":0,"o":"m 732 0 l 514 0 l 514 101 l 513 101 b 311 -11 481 22 418 -11 l 301 -11 b 65 269 122 -11 65 53 l 65 667 l 286 667 l 286 289 b 388 156 286 179 300 156 l 399 156 b 511 290 488 156 511 183 l 511 667 l 732 667 m 554 744 l 399 836 l 243 744 l 175 819 l 399 993 l 622 819 "},"ü":{"ha":804,"x_min":0,"x_max":0,"o":"m 732 0 l 514 0 l 514 101 l 513 101 b 311 -11 481 22 418 -11 l 301 -11 b 65 269 122 -11 65 53 l 65 667 l 286 667 l 286 289 b 388 156 286 179 300 156 l 399 156 b 511 290 488 156 511 183 l 511 667 l 732 667 m 347 772 l 161 772 l 161 944 l 347 944 m 650 772 l 464 772 l 464 944 l 650 944 "},"ý":{"ha":713,"x_min":0,"x_max":0,"o":"m 128 -75 b 176 -78 146 -78 169 -78 b 315 28 257 -78 297 -54 l 196 28 l 10 667 l 239 667 l 354 179 l 363 179 l 476 667 l 703 667 l 528 75 b 221 -242 450 -189 386 -242 b 128 -236 192 -242 158 -239 m 297 733 l 244 806 l 494 1000 l 588 865 "},"þ":{"ha":801,"x_min":0,"x_max":0,"o":"m 476 -11 b 296 82 386 -11 333 13 l 293 82 l 293 -236 l 72 -236 l 72 944 l 293 944 l 293 590 l 294 590 b 482 678 333 658 389 678 l 497 678 b 747 364 688 678 747 606 l 747 307 b 494 -11 747 65 688 -11 m 525 363 b 417 514 525 488 503 514 l 394 514 b 286 363 310 514 286 488 l 286 307 b 394 156 286 182 310 156 l 417 156 b 525 307 503 156 525 182 "},"ÿ":{"ha":713,"x_min":0,"x_max":0,"o":"m 128 -75 b 176 -78 146 -78 169 -78 b 315 28 257 -78 297 -54 l 196 28 l 10 667 l 239 667 l 354 179 l 363 179 l 476 667 l 703 667 l 528 75 b 221 -242 450 -189 386 -242 b 128 -236 192 -242 158 -239 m 301 772 l 115 772 l 115 944 l 301 944 m 604 772 l 418 772 l 418 944 l 604 944 "},"Ā":{"ha":982,"x_min":0,"x_max":0,"o":"m 969 0 l 713 0 l 660 183 l 314 183 l 261 0 l 13 0 l 321 944 l 658 944 m 607 361 l 490 771 l 483 771 l 364 361 m 688 1051 l 285 1051 l 285 1182 l 688 1182 "},"ā":{"ha":760,"x_min":0,"x_max":0,"o":"m 692 0 l 482 0 l 482 68 l 478 68 b 303 -11 449 14 407 -11 l 281 -11 b 56 196 103 -11 56 40 l 56 226 b 294 425 56 374 119 425 l 304 425 b 476 372 400 425 449 408 l 482 372 l 482 432 b 386 533 482 517 474 533 l 369 533 b 274 488 290 533 274 521 l 274 469 l 72 469 l 72 483 b 381 678 72 642 140 678 l 406 678 b 692 386 649 678 692 632 m 381 136 b 485 201 471 136 485 151 l 485 226 b 378 292 485 278 474 292 l 365 292 b 260 226 274 292 260 276 l 260 201 b 369 136 260 150 275 136 m 581 793 l 178 793 l 178 924 l 581 924 "},"Ă":{"ha":982,"x_min":0,"x_max":0,"o":"m 969 0 l 713 0 l 660 183 l 314 183 l 261 0 l 13 0 l 321 944 l 658 944 m 607 361 l 490 771 l 483 771 l 364 361 m 715 1211 b 486 1011 715 1075 625 1011 b 257 1211 347 1011 257 1076 l 364 1211 b 486 1138 374 1153 415 1138 b 608 1211 557 1138 597 1153 "},"ă":{"ha":760,"x_min":0,"x_max":0,"o":"m 692 0 l 482 0 l 482 68 l 478 68 b 303 -11 449 14 407 -11 l 281 -11 b 56 196 103 -11 56 40 l 56 226 b 294 425 56 374 119 425 l 304 425 b 476 372 400 425 449 408 l 482 372 l 482 432 b 386 533 482 517 474 533 l 369 533 b 274 488 290 533 274 521 l 274 469 l 72 469 l 72 483 b 381 678 72 642 140 678 l 406 678 b 692 386 649 678 692 632 m 381 136 b 485 201 471 136 485 151 l 485 226 b 378 292 485 278 474 292 l 365 292 b 260 226 274 292 260 276 l 260 201 b 369 136 260 150 275 136 m 608 949 b 379 749 608 813 518 749 b 150 949 240 749 150 814 l 257 949 b 379 875 267 890 308 875 b 501 949 450 875 490 890 "},"Ą":{"ha":982,"x_min":0,"x_max":0,"o":"m 261 0 l 13 0 l 321 944 l 658 944 l 969 0 l 926 0 b 818 -126 858 -31 818 -81 b 875 -172 818 -161 836 -172 b 949 -164 900 -172 925 -168 l 949 -265 b 824 -286 914 -278 871 -286 b 679 -171 731 -286 679 -253 b 786 0 679 -100 718 -51 l 713 0 l 660 183 l 314 183 m 607 361 l 490 771 l 483 771 l 364 361 "},"ą":{"ha":760,"x_min":0,"x_max":0,"o":"m 692 0 l 658 0 b 554 -126 594 -28 554 -81 b 610 -172 554 -161 572 -172 b 685 -164 635 -172 664 -168 l 685 -265 b 560 -286 650 -278 606 -286 b 415 -171 467 -286 415 -253 b 522 0 415 -100 454 -51 l 482 0 l 482 68 l 478 68 b 303 -11 449 14 407 -11 l 281 -11 b 56 196 103 -11 56 40 l 56 226 b 294 425 56 374 119 425 l 304 425 b 476 372 400 425 449 408 l 482 372 l 482 432 b 386 533 482 517 474 533 l 369 533 b 274 488 290 533 274 521 l 274 469 l 72 469 l 72 483 b 381 678 72 642 140 678 l 406 678 b 692 386 649 678 692 632 m 381 136 b 485 201 471 136 485 151 l 485 226 b 378 292 485 278 474 292 l 365 292 b 260 226 274 292 260 276 l 260 201 b 369 136 260 150 275 136 "},"Ć":{"ha":943,"x_min":0,"x_max":0,"o":"m 467 -11 b 58 403 140 -11 58 75 l 58 544 b 468 956 58 867 142 956 l 494 956 b 882 651 804 956 882 881 l 882 607 l 647 607 l 647 638 b 493 767 647 721 621 767 l 476 767 b 306 543 333 767 306 726 l 306 406 b 474 181 306 211 342 181 l 492 181 b 653 317 608 181 653 211 l 653 353 l 886 353 l 886 296 b 493 -11 886 58 793 -11 m 668 1101 l 365 1007 l 322 1085 l 596 1247 "},"ć":{"ha":743,"x_min":0,"x_max":0,"o":"m 363 -11 b 54 296 121 -11 54 61 l 54 372 b 368 678 54 607 125 678 l 400 678 b 692 446 631 678 692 608 l 692 414 l 490 414 l 490 429 b 399 514 490 492 468 514 l 375 514 b 275 372 290 514 275 485 l 275 296 b 379 156 275 183 294 156 l 404 156 b 489 243 474 156 489 178 l 489 257 l 692 257 l 692 232 b 394 -11 692 56 632 -11 m 292 733 l 239 806 l 489 1000 l 582 865 "},"Ĉ":{"ha":943,"x_min":0,"x_max":0,"o":"m 467 -11 b 58 403 140 -11 58 75 l 58 544 b 468 956 58 867 142 956 l 494 956 b 882 651 804 956 882 881 l 882 607 l 647 607 l 647 638 b 493 767 647 721 621 767 l 476 767 b 306 543 333 767 306 726 l 306 406 b 474 181 306 211 342 181 l 492 181 b 653 317 608 181 653 211 l 653 353 l 886 353 l 886 296 b 493 -11 886 58 793 -11 m 628 1011 l 472 1101 l 317 1011 l 249 1086 l 472 1258 l 696 1086 "},"ĉ":{"ha":743,"x_min":0,"x_max":0,"o":"m 363 -11 b 54 296 121 -11 54 61 l 54 372 b 368 678 54 607 125 678 l 400 678 b 692 446 631 678 692 608 l 692 414 l 490 414 l 490 429 b 399 514 490 492 468 514 l 375 514 b 275 372 290 514 275 485 l 275 296 b 379 156 275 183 294 156 l 404 156 b 489 243 474 156 489 178 l 489 257 l 692 257 l 692 232 b 394 -11 692 56 632 -11 m 535 744 l 379 836 l 224 744 l 156 819 l 379 993 l 603 819 "},"Ċ":{"ha":943,"x_min":0,"x_max":0,"o":"m 467 -11 b 58 403 140 -11 58 75 l 58 544 b 468 956 58 867 142 956 l 494 956 b 882 651 804 956 882 881 l 882 607 l 647 607 l 647 638 b 493 767 647 721 621 767 l 476 767 b 306 543 333 767 306 726 l 306 406 b 474 181 306 211 342 181 l 492 181 b 653 317 608 181 653 211 l 653 353 l 886 353 l 886 296 b 493 -11 886 58 793 -11 m 582 1033 l 361 1033 l 361 1206 l 582 1206 "},"ċ":{"ha":743,"x_min":0,"x_max":0,"o":"m 363 -11 b 54 296 121 -11 54 61 l 54 372 b 368 678 54 607 125 678 l 400 678 b 692 446 631 678 692 608 l 692 414 l 490 414 l 490 429 b 399 514 490 492 468 514 l 375 514 b 275 372 290 514 275 485 l 275 296 b 379 156 275 183 294 156 l 404 156 b 489 243 474 156 489 178 l 489 257 l 692 257 l 692 232 b 394 -11 692 56 632 -11 m 489 772 l 268 772 l 268 944 l 489 944 "},"Č":{"ha":943,"x_min":0,"x_max":0,"o":"m 467 -11 b 58 403 140 -11 58 75 l 58 544 b 468 956 58 867 142 956 l 494 956 b 882 651 804 956 882 881 l 882 607 l 647 607 l 647 638 b 493 767 647 721 621 767 l 476 767 b 306 543 333 767 306 726 l 306 406 b 474 181 306 211 342 181 l 492 181 b 653 317 608 181 653 211 l 653 353 l 886 353 l 886 296 b 493 -11 886 58 793 -11 m 474 986 l 250 1158 l 318 1233 l 474 1142 l 629 1233 l 697 1158 "},"č":{"ha":743,"x_min":0,"x_max":0,"o":"m 363 -11 b 54 296 121 -11 54 61 l 54 372 b 368 678 54 607 125 678 l 400 678 b 692 446 631 678 692 608 l 692 414 l 490 414 l 490 429 b 399 514 490 492 468 514 l 375 514 b 275 372 290 514 275 485 l 275 296 b 379 156 275 183 294 156 l 404 156 b 489 243 474 156 489 178 l 489 257 l 692 257 l 692 232 b 394 -11 692 56 632 -11 m 375 724 l 151 897 l 219 972 l 375 881 l 531 972 l 599 897 "},"Ď":{"ha":996,"x_min":0,"x_max":0,"o":"m 935 392 b 492 0 935 67 871 0 l 76 0 l 76 944 l 492 944 b 935 561 851 944 935 886 m 482 189 b 690 413 658 189 690 225 l 690 544 b 482 760 690 725 658 760 l 319 760 l 319 189 m 489 986 l 265 1158 l 333 1233 l 489 1142 l 644 1233 l 713 1158 "},"ď":{"ha":800,"x_min":0,"x_max":0,"o":"m 728 0 l 514 0 l 514 82 l 511 82 b 319 -11 469 1 406 -11 l 306 -11 b 54 307 114 -11 54 65 l 54 364 b 301 678 54 606 114 678 l 324 678 b 506 590 408 678 471 657 l 507 590 l 507 944 l 728 944 m 406 156 b 514 307 492 156 514 182 l 514 363 b 406 514 514 488 492 514 l 383 514 b 275 363 299 514 275 488 l 275 307 b 383 156 275 182 299 156 m 976 821 b 800 635 976 704 931 635 l 800 722 b 858 792 846 729 858 747 l 858 801 l 799 801 l 799 944 l 976 944 "},"Đ":{"ha":996,"x_min":0,"x_max":0,"o":"m 15 549 l 76 549 l 76 944 l 492 944 b 935 561 851 944 935 886 l 935 392 b 492 0 935 67 871 0 l 76 0 l 76 414 l 15 414 m 482 189 b 690 413 658 189 690 225 l 690 544 b 482 760 690 725 658 760 l 319 760 l 319 549 l 479 549 l 479 414 l 319 414 l 319 189 "},"đ":{"ha":800,"x_min":0,"x_max":0,"o":"m 306 863 l 507 863 l 507 944 l 728 944 l 728 863 l 778 863 l 778 739 l 728 739 l 728 0 l 514 0 l 514 82 l 511 82 b 319 -11 469 1 406 -11 l 306 -11 b 54 307 114 -11 54 65 l 54 364 b 301 678 54 606 114 678 l 324 678 b 506 590 408 678 471 657 l 507 590 l 507 739 l 306 739 m 406 156 b 514 307 492 156 514 182 l 514 363 b 406 514 514 488 492 514 l 383 514 b 275 363 299 514 275 488 l 275 307 b 383 156 275 182 299 156 "},"Ē":{"ha":813,"x_min":0,"x_max":0,"o":"m 771 0 l 76 0 l 76 944 l 757 944 l 757 760 l 318 760 l 318 569 l 728 569 l 728 394 l 318 394 l 318 189 l 771 189 m 615 1051 l 213 1051 l 213 1182 l 615 1182 "},"ē":{"ha":751,"x_min":0,"x_max":0,"o":"m 361 -11 b 54 296 119 -11 54 58 l 54 372 b 358 678 54 615 136 678 l 388 678 b 694 388 625 678 694 617 l 694 282 l 267 282 l 267 251 b 376 143 267 160 283 143 l 396 143 b 496 207 479 143 496 156 l 496 219 l 697 219 l 697 204 b 400 -11 697 44 614 -11 m 493 410 l 493 426 b 383 535 493 510 478 535 l 374 535 b 265 410 281 535 265 515 m 578 793 l 175 793 l 175 924 l 578 924 "},"Ĕ":{"ha":813,"x_min":0,"x_max":0,"o":"m 771 0 l 76 0 l 76 944 l 757 944 l 757 760 l 318 760 l 318 569 l 728 569 l 728 394 l 318 394 l 318 189 l 771 189 m 640 1211 b 411 1011 640 1075 550 1011 b 182 1211 272 1011 182 1076 l 289 1211 b 411 1138 299 1153 340 1138 b 533 1211 482 1138 522 1153 "},"ĕ":{"ha":751,"x_min":0,"x_max":0,"o":"m 361 -11 b 54 296 119 -11 54 58 l 54 372 b 358 678 54 615 136 678 l 388 678 b 694 388 625 678 694 617 l 694 282 l 267 282 l 267 251 b 376 143 267 160 283 143 l 396 143 b 496 207 479 143 496 156 l 496 219 l 697 219 l 697 204 b 400 -11 697 44 614 -11 m 493 410 l 493 426 b 383 535 493 510 478 535 l 374 535 b 265 410 281 535 265 515 m 604 949 b 375 749 604 813 514 749 b 146 949 236 749 146 814 l 253 949 b 375 875 263 890 304 875 b 497 949 446 875 486 890 "},"Ė":{"ha":813,"x_min":0,"x_max":0,"o":"m 771 0 l 76 0 l 76 944 l 757 944 l 757 760 l 318 760 l 318 569 l 728 569 l 728 394 l 318 394 l 318 189 l 771 189 m 517 1033 l 296 1033 l 296 1206 l 517 1206 "},"ė":{"ha":751,"x_min":0,"x_max":0,"o":"m 361 -11 b 54 296 119 -11 54 58 l 54 372 b 358 678 54 615 136 678 l 388 678 b 694 388 625 678 694 617 l 694 282 l 267 282 l 267 251 b 376 143 267 160 283 143 l 396 143 b 496 207 479 143 496 156 l 496 219 l 697 219 l 697 204 b 400 -11 697 44 614 -11 m 493 410 l 493 426 b 383 535 493 510 478 535 l 374 535 b 265 410 281 535 265 515 m 486 772 l 265 772 l 265 944 l 486 944 "},"Ę":{"ha":813,"x_min":0,"x_max":0,"o":"m 746 -265 b 621 -286 711 -278 668 -286 b 476 -171 528 -286 476 -253 b 586 0 476 -100 518 -49 l 76 0 l 76 944 l 757 944 l 757 760 l 318 760 l 318 569 l 728 569 l 728 394 l 318 394 l 318 189 l 771 189 l 771 0 l 719 0 b 615 -126 656 -32 615 -81 b 672 -172 615 -161 633 -172 b 746 -164 697 -172 725 -168 "},"ę":{"ha":751,"x_min":0,"x_max":0,"o":"m 550 3 b 449 -126 475 -44 449 -90 b 504 -172 449 -161 467 -172 b 579 -164 529 -172 558 -168 l 579 -265 b 454 -286 544 -278 500 -286 b 310 -171 361 -286 310 -253 b 404 -11 310 -106 346 -57 l 361 -11 b 54 296 119 -11 54 58 l 54 372 b 358 678 54 615 136 678 l 388 678 b 694 388 625 678 694 617 l 694 282 l 267 282 l 267 251 b 376 143 267 160 283 143 l 396 143 b 496 207 479 143 496 156 l 496 219 l 697 219 l 697 204 b 550 3 697 89 654 29 m 493 410 l 493 426 b 383 535 493 510 478 535 l 374 535 b 265 410 281 535 265 515 "},"Ě":{"ha":813,"x_min":0,"x_max":0,"o":"m 771 0 l 76 0 l 76 944 l 757 944 l 757 760 l 318 760 l 318 569 l 728 569 l 728 394 l 318 394 l 318 189 l 771 189 m 415 986 l 192 1158 l 260 1233 l 415 1142 l 571 1233 l 639 1158 "},"ě":{"ha":751,"x_min":0,"x_max":0,"o":"m 361 -11 b 54 296 119 -11 54 58 l 54 372 b 358 678 54 615 136 678 l 388 678 b 694 388 625 678 694 617 l 694 282 l 267 282 l 267 251 b 376 143 267 160 283 143 l 396 143 b 496 207 479 143 496 156 l 496 219 l 697 219 l 697 204 b 400 -11 697 44 614 -11 m 493 410 l 493 426 b 383 535 493 510 478 535 l 374 535 b 265 410 281 535 265 515 m 379 724 l 156 897 l 224 972 l 379 881 l 535 972 l 603 897 "},"Ĝ":{"ha":947,"x_min":0,"x_max":0,"o":"m 468 -11 b 58 406 140 -11 58 72 l 58 547 b 465 956 58 869 140 956 l 492 956 b 882 669 783 956 882 885 l 882 638 l 647 638 l 647 657 b 490 767 647 738 618 767 l 474 767 b 304 543 332 767 304 731 l 304 406 b 476 181 304 225 333 181 l 494 181 b 660 313 629 181 660 215 l 660 342 l 463 342 l 463 517 l 889 517 l 889 338 b 493 -11 889 60 808 -11 m 625 1011 l 469 1101 l 314 1011 l 246 1086 l 469 1258 l 693 1086 "},"ĝ":{"ha":793,"x_min":0,"x_max":0,"o":"m 371 -247 b 74 -49 139 -247 74 -215 l 74 -32 l 279 -32 l 279 -39 b 369 -89 279 -75 293 -89 l 394 -89 b 504 29 494 -89 504 -76 l 504 124 l 500 124 b 314 33 465 57 406 33 l 301 33 b 54 328 121 33 54 89 l 54 378 b 300 678 54 610 119 678 l 315 678 b 506 590 400 678 465 661 l 507 590 l 507 667 l 721 667 l 721 47 b 394 -247 721 -199 649 -247 m 401 193 b 507 333 486 193 507 218 l 507 374 b 401 514 507 489 486 514 l 381 514 b 275 374 297 514 275 489 l 275 333 b 381 193 275 218 297 193 m 535 744 l 379 836 l 224 744 l 156 819 l 379 993 l 603 819 "},"Ğ":{"ha":947,"x_min":0,"x_max":0,"o":"m 468 -11 b 58 406 140 -11 58 72 l 58 547 b 465 956 58 869 140 956 l 492 956 b 882 669 783 956 882 885 l 882 638 l 647 638 l 647 657 b 490 767 647 738 618 767 l 474 767 b 304 543 332 767 304 731 l 304 406 b 476 181 304 225 333 181 l 494 181 b 660 313 629 181 660 215 l 660 342 l 463 342 l 463 517 l 889 517 l 889 338 b 493 -11 889 60 808 -11 m 703 1211 b 474 1011 703 1075 613 1011 b 244 1211 335 1011 244 1076 l 351 1211 b 474 1138 361 1153 403 1138 b 596 1211 544 1138 585 1153 "},"ğ":{"ha":793,"x_min":0,"x_max":0,"o":"m 371 -247 b 74 -49 139 -247 74 -215 l 74 -32 l 279 -32 l 279 -39 b 369 -89 279 -75 293 -89 l 394 -89 b 504 29 494 -89 504 -76 l 504 124 l 500 124 b 314 33 465 57 406 33 l 301 33 b 54 328 121 33 54 89 l 54 378 b 300 678 54 610 119 678 l 315 678 b 506 590 400 678 465 661 l 507 590 l 507 667 l 721 667 l 721 47 b 394 -247 721 -199 649 -247 m 401 193 b 507 333 486 193 507 218 l 507 374 b 401 514 507 489 486 514 l 381 514 b 275 374 297 514 275 489 l 275 333 b 381 193 275 218 297 193 m 600 949 b 371 749 600 813 510 749 b 142 949 232 749 142 814 l 249 949 b 371 875 258 890 300 875 b 493 949 442 875 482 890 "},"Ġ":{"ha":947,"x_min":0,"x_max":0,"o":"m 468 -11 b 58 406 140 -11 58 72 l 58 547 b 465 956 58 869 140 956 l 492 956 b 882 669 783 956 882 885 l 882 638 l 647 638 l 647 657 b 490 767 647 738 618 767 l 474 767 b 304 543 332 767 304 731 l 304 406 b 476 181 304 225 333 181 l 494 181 b 660 313 629 181 660 215 l 660 342 l 463 342 l 463 517 l 889 517 l 889 338 b 493 -11 889 60 808 -11 m 581 1033 l 360 1033 l 360 1206 l 581 1206 "},"ġ":{"ha":793,"x_min":0,"x_max":0,"o":"m 371 -247 b 74 -49 139 -247 74 -215 l 74 -32 l 279 -32 l 279 -39 b 369 -89 279 -75 293 -89 l 394 -89 b 504 29 494 -89 504 -76 l 504 124 l 500 124 b 314 33 465 57 406 33 l 301 33 b 54 328 121 33 54 89 l 54 378 b 300 678 54 610 119 678 l 315 678 b 506 590 400 678 465 661 l 507 590 l 507 667 l 721 667 l 721 47 b 394 -247 721 -199 649 -247 m 401 193 b 507 333 486 193 507 218 l 507 374 b 401 514 507 489 486 514 l 381 514 b 275 374 297 514 275 489 l 275 333 b 381 193 275 218 297 193 m 486 772 l 265 772 l 265 944 l 486 944 "},"Ģ":{"ha":947,"x_min":0,"x_max":0,"o":"m 468 -11 b 58 406 140 -11 58 72 l 58 547 b 465 956 58 869 140 956 l 492 956 b 882 669 783 956 882 885 l 882 638 l 647 638 l 647 657 b 490 767 647 738 618 767 l 474 767 b 304 543 332 767 304 731 l 304 406 b 476 181 304 225 333 181 l 494 181 b 660 313 629 181 660 215 l 660 342 l 463 342 l 463 517 l 889 517 l 889 338 b 493 -11 889 60 808 -11 m 574 -203 b 374 -358 574 -318 535 -358 l 374 -282 b 453 -221 435 -282 453 -267 l 453 -211 l 394 -211 l 394 -68 l 574 -68 "},"ģ":{"ha":793,"x_min":0,"x_max":0,"o":"m 371 -247 b 74 -49 139 -247 74 -215 l 74 -32 l 279 -32 l 279 -39 b 369 -89 279 -75 293 -89 l 394 -89 b 504 29 494 -89 504 -76 l 504 124 l 500 124 b 314 33 465 57 406 33 l 301 33 b 54 328 121 33 54 89 l 54 378 b 300 678 54 610 119 678 l 315 678 b 506 590 400 678 465 661 l 507 590 l 507 667 l 721 667 l 721 47 b 394 -247 721 -199 649 -247 m 401 193 b 507 333 486 193 507 218 l 507 374 b 401 514 507 489 486 514 l 381 514 b 275 374 297 514 275 489 l 275 333 b 381 193 275 218 297 193 m 453 757 l 274 757 l 274 892 b 474 1047 274 1007 313 1047 l 474 971 b 394 910 413 971 394 956 l 394 900 l 453 900 "},"Ĥ":{"ha":972,"x_min":0,"x_max":0,"o":"m 896 0 l 653 0 l 653 376 l 319 376 l 319 0 l 76 0 l 76 944 l 319 944 l 319 588 l 653 588 l 653 944 l 896 944 m 642 1011 l 486 1101 l 331 1011 l 263 1086 l 486 1258 l 710 1086 "},"ĥ":{"ha":808,"x_min":0,"x_max":0,"o":"m 739 0 l 518 0 l 518 379 b 415 508 518 486 504 508 l 404 508 b 293 378 314 508 293 476 l 293 0 l 72 0 l 72 944 l 293 944 l 293 567 l 294 567 b 490 678 329 644 388 678 l 500 678 b 739 404 686 678 739 618 m 342 1011 l 186 1101 l 31 1011 l -37 1086 l 186 1258 l 410 1086 "},"Ħ":{"ha":972,"x_min":0,"x_max":0,"o":"m 896 0 l 653 0 l 653 376 l 319 376 l 319 0 l 76 0 l 76 701 l 22 701 l 22 828 l 76 828 l 76 944 l 319 944 l 319 828 l 653 828 l 653 944 l 896 944 l 896 828 l 951 828 l 951 701 l 896 701 m 653 588 l 653 701 l 319 701 l 319 588 "},"ħ":{"ha":808,"x_min":0,"x_max":0,"o":"m 19 863 l 72 863 l 72 944 l 293 944 l 293 863 l 490 863 l 490 739 l 293 739 l 293 567 l 294 567 b 490 678 329 644 388 678 l 500 678 b 739 404 686 678 739 618 l 739 0 l 518 0 l 518 379 b 415 508 518 486 504 508 l 404 508 b 293 378 314 508 293 476 l 293 0 l 72 0 l 72 739 l 19 739 "},"Ĩ":{"ha":396,"x_min":0,"x_max":0,"o":"m 319 0 l 76 0 l 76 944 l 319 944 m 404 1197 b 278 1028 400 1094 368 1028 b 190 1054 242 1028 217 1040 b 124 1078 167 1068 146 1078 b 75 1026 99 1078 79 1067 l -7 1046 b 117 1213 -4 1143 32 1213 b 203 1186 150 1213 175 1201 b 274 1160 228 1172 251 1160 b 319 1215 301 1160 318 1179 "},"ĩ":{"ha":365,"x_min":0,"x_max":0,"o":"m 293 0 l 72 0 l 72 667 l 293 667 m 385 935 b 258 765 381 832 349 765 b 171 792 222 765 197 778 b 104 815 147 806 126 815 b 56 764 79 815 60 804 l -26 783 b 97 950 -24 881 13 950 b 183 924 131 950 156 939 b 254 897 208 910 232 897 b 300 953 282 897 299 917 "},"Ī":{"ha":396,"x_min":0,"x_max":0,"o":"m 319 0 l 76 0 l 76 944 l 319 944 m 399 1051 l -4 1051 l -4 1182 l 399 1182 "},"ī":{"ha":365,"x_min":0,"x_max":0,"o":"m 293 0 l 72 0 l 72 667 l 293 667 m 383 793 l -19 793 l -19 924 l 383 924 "},"Į":{"ha":396,"x_min":0,"x_max":0,"o":"m 321 -267 b 199 -286 286 -278 246 -286 b 54 -171 114 -286 54 -260 b 154 0 54 -100 93 -51 l 76 0 l 76 944 l 319 944 l 319 0 l 267 0 b 193 -126 211 -57 193 -94 b 250 -172 193 -161 213 -172 b 321 -165 275 -172 300 -168 "},"į":{"ha":365,"x_min":0,"x_max":0,"o":"m 301 -267 b 181 -286 267 -278 226 -286 b 36 -171 93 -286 36 -258 b 136 0 36 -101 74 -53 l 72 0 l 72 667 l 293 667 l 293 0 l 249 0 b 175 -126 192 -57 175 -94 b 231 -172 175 -161 193 -172 b 301 -165 256 -172 281 -168 m 293 772 l 72 772 l 72 944 l 293 944 "},"İ":{"ha":396,"x_min":0,"x_max":0,"o":"m 319 0 l 76 0 l 76 944 l 319 944 m 308 1033 l 88 1033 l 88 1206 l 308 1206 "},"ı":{"ha":365,"x_min":0,"x_max":0,"o":"m 293 0 l 72 0 l 72 667 l 293 667 "},"Ĳ":{"ha":1204,"x_min":0,"x_max":0,"o":"m 319 0 l 76 0 l 76 944 l 319 944 m 765 -11 b 449 310 490 -11 449 53 l 449 381 l 668 381 l 668 328 b 776 181 668 197 682 181 l 793 181 b 889 300 876 181 889 200 l 889 944 l 1132 944 l 1132 321 b 796 -11 1132 47 1074 -11 "},"ĳ":{"ha":735,"x_min":0,"x_max":0,"o":"m 293 0 l 72 0 l 72 667 l 293 667 m 293 772 l 72 772 l 72 944 l 293 944 m 663 -39 b 444 -242 663 -196 589 -242 b 371 -236 419 -242 396 -240 l 371 -76 b 397 -78 383 -78 392 -78 b 442 -7 432 -78 442 -64 l 442 667 l 663 667 m 663 772 l 442 772 l 442 944 l 663 944 "},"Ĵ":{"ha":789,"x_min":0,"x_max":0,"o":"m 350 -11 b 33 310 75 -11 33 53 l 33 381 l 253 381 l 253 328 b 361 181 253 197 267 181 l 378 181 b 474 300 461 181 474 200 l 474 944 l 717 944 l 717 321 b 381 -11 717 47 658 -11 m 747 1011 l 592 1101 l 436 1011 l 368 1086 l 592 1258 l 815 1086 "},"ĵ":{"ha":369,"x_min":0,"x_max":0,"o":"m 297 -39 b 79 -242 297 -196 224 -242 b 6 -236 54 -242 31 -240 l 6 -76 b 32 -78 18 -78 26 -78 b 76 -7 67 -78 76 -64 l 76 667 l 297 667 m 340 744 l 185 836 l 29 744 l -39 819 l 185 993 l 408 819 "},"Ķ":{"ha":932,"x_min":0,"x_max":0,"o":"m 929 0 l 631 0 l 386 393 l 315 393 l 315 0 l 76 0 l 76 944 l 315 944 l 315 574 l 390 574 l 621 944 l 899 944 l 594 489 m 554 -203 b 354 -358 554 -318 515 -358 l 354 -282 b 433 -221 415 -282 433 -267 l 433 -211 l 375 -211 l 375 -68 l 554 -68 "},"ķ":{"ha":738,"x_min":0,"x_max":0,"o":"m 735 0 l 478 0 l 318 289 l 292 289 l 292 0 l 72 0 l 72 944 l 292 944 l 292 417 l 318 417 l 469 667 l 715 667 l 507 356 m 458 -203 b 258 -358 458 -318 419 -358 l 258 -282 b 338 -221 319 -282 338 -267 l 338 -211 l 279 -211 l 279 -68 l 458 -68 "},"Ĺ":{"ha":718,"x_min":0,"x_max":0,"o":"m 697 0 l 76 0 l 76 944 l 319 944 l 319 190 l 697 190 m 472 1101 l 169 1007 l 126 1085 l 400 1247 "},"ĺ":{"ha":365,"x_min":0,"x_max":0,"o":"m 293 0 l 72 0 l 72 944 l 293 944 m 439 1101 l 136 1007 l 93 1085 l 367 1247 "},"Ļ":{"ha":718,"x_min":0,"x_max":0,"o":"m 697 0 l 76 0 l 76 944 l 319 944 l 319 190 l 697 190 m 479 -203 b 279 -358 479 -318 440 -358 l 279 -282 b 358 -221 340 -282 358 -267 l 358 -211 l 300 -211 l 300 -68 l 479 -68 "},"ļ":{"ha":365,"x_min":0,"x_max":0,"o":"m 293 0 l 72 0 l 72 944 l 293 944 m 276 -203 b 76 -358 276 -318 238 -358 l 76 -282 b 156 -221 138 -282 156 -267 l 156 -211 l 97 -211 l 97 -68 l 276 -68 "},"Ľ":{"ha":718,"x_min":0,"x_max":0,"o":"m 697 0 l 76 0 l 76 944 l 319 944 l 319 190 l 697 190 m 581 821 b 404 635 581 704 535 635 l 404 722 b 463 792 450 729 463 747 l 463 801 l 403 801 l 403 944 l 581 944 "},"ľ":{"ha":365,"x_min":0,"x_max":0,"o":"m 293 0 l 72 0 l 72 944 l 293 944 m 540 821 b 364 635 540 704 494 635 l 364 722 b 422 792 410 729 422 747 l 422 801 l 363 801 l 363 944 l 540 944 "},"Ŀ":{"ha":718,"x_min":0,"x_max":0,"o":"m 697 0 l 76 0 l 76 944 l 319 944 l 319 190 l 697 190 m 679 396 l 450 396 l 450 625 l 679 625 "},"ŀ":{"ha":625,"x_min":0,"x_max":0,"o":"m 293 0 l 72 0 l 72 944 l 293 944 m 610 363 l 381 363 l 381 592 l 610 592 "},"Ł":{"ha":718,"x_min":0,"x_max":0,"o":"m 697 0 l 76 0 l 76 354 l 6 322 l 6 471 l 76 503 l 76 944 l 319 944 l 319 614 l 507 699 l 507 550 l 319 465 l 319 190 l 697 190 "},"ł":{"ha":381,"x_min":0,"x_max":0,"o":"m 301 0 l 81 0 l 81 350 l 26 317 l 26 453 l 81 486 l 81 944 l 301 944 l 301 597 l 358 635 l 358 499 l 301 461 "},"Ń":{"ha":1053,"x_min":0,"x_max":0,"o":"m 976 0 l 628 0 l 300 736 l 293 736 l 300 0 l 76 0 l 76 944 l 433 944 l 756 213 l 763 213 l 751 944 l 976 944 m 713 1101 l 410 1007 l 367 1085 l 640 1247 "},"ń":{"ha":808,"x_min":0,"x_max":0,"o":"m 739 0 l 518 0 l 518 379 b 415 508 518 485 504 508 l 404 508 b 293 378 317 508 293 476 l 293 0 l 72 0 l 72 667 l 290 667 l 290 567 l 292 567 b 490 678 326 644 386 678 l 500 678 b 739 404 686 678 739 617 m 325 733 l 272 806 l 522 1000 l 615 865 "},"Ņ":{"ha":1053,"x_min":0,"x_max":0,"o":"m 976 0 l 628 0 l 300 736 l 293 736 l 300 0 l 76 0 l 76 944 l 433 944 l 756 213 l 763 213 l 751 944 l 976 944 m 632 -203 b 432 -358 632 -318 593 -358 l 432 -282 b 511 -221 493 -282 511 -267 l 511 -211 l 453 -211 l 453 -68 l 632 -68 "},"ņ":{"ha":808,"x_min":0,"x_max":0,"o":"m 739 0 l 518 0 l 518 379 b 415 508 518 485 504 508 l 404 508 b 293 378 317 508 293 476 l 293 0 l 72 0 l 72 667 l 290 667 l 290 567 l 292 567 b 490 678 326 644 386 678 l 500 678 b 739 404 686 678 739 617 m 501 -203 b 301 -358 501 -318 463 -358 l 301 -282 b 381 -221 363 -282 381 -267 l 381 -211 l 322 -211 l 322 -68 l 501 -68 "},"Ň":{"ha":1053,"x_min":0,"x_max":0,"o":"m 976 0 l 628 0 l 300 736 l 293 736 l 300 0 l 76 0 l 76 944 l 433 944 l 756 213 l 763 213 l 751 944 l 976 944 m 529 986 l 306 1158 l 374 1233 l 529 1142 l 685 1233 l 753 1158 "},"ň":{"ha":808,"x_min":0,"x_max":0,"o":"m 739 0 l 518 0 l 518 379 b 415 508 518 485 504 508 l 404 508 b 293 378 317 508 293 476 l 293 0 l 72 0 l 72 667 l 290 667 l 290 567 l 292 567 b 490 678 326 644 386 678 l 500 678 b 739 404 686 678 739 617 m 421 724 l 197 897 l 265 972 l 421 881 l 576 972 l 644 897 "},"ŉ":{"ha":808,"x_min":0,"x_max":0,"o":"m 739 0 l 518 0 l 518 379 b 415 508 518 485 504 508 l 404 508 b 293 378 317 508 293 476 l 293 0 l 72 0 l 72 667 l 290 667 l 290 567 l 292 567 b 490 678 326 644 386 678 l 500 678 b 739 404 686 678 739 617 m 78 821 b -99 635 78 704 32 635 l -99 722 b -40 792 -53 729 -40 747 l -40 801 l -100 801 l -100 944 l 78 944 "},"Ō":{"ha":990,"x_min":0,"x_max":0,"o":"m 479 -11 b 58 401 140 -11 58 88 l 58 543 b 479 956 58 857 140 956 l 511 956 b 932 543 850 956 932 857 l 932 401 b 511 -11 932 88 850 -11 m 507 181 b 685 406 650 181 685 222 l 685 542 b 507 767 685 725 650 767 l 483 767 b 306 542 340 767 306 725 l 306 406 b 483 181 306 222 340 181 m 696 1051 l 293 1051 l 293 1182 l 696 1182 "},"ō":{"ha":781,"x_min":0,"x_max":0,"o":"m 401 156 b 508 296 489 156 508 186 l 508 372 b 401 514 508 485 489 514 l 379 514 b 272 372 293 514 272 485 l 272 296 b 379 156 272 186 293 156 m 374 -11 b 54 296 125 -11 54 60 l 54 372 b 374 678 54 606 126 678 l 408 678 b 726 372 656 678 726 606 l 726 296 b 408 -11 726 60 656 -11 m 592 793 l 189 793 l 189 924 l 592 924 "},"Ŏ":{"ha":990,"x_min":0,"x_max":0,"o":"m 479 -11 b 58 401 140 -11 58 88 l 58 543 b 479 956 58 857 140 956 l 511 956 b 932 543 850 956 932 857 l 932 401 b 511 -11 932 88 850 -11 m 507 181 b 685 406 650 181 685 222 l 685 542 b 507 767 685 725 650 767 l 483 767 b 306 542 340 767 306 725 l 306 406 b 483 181 306 222 340 181 m 724 1211 b 494 1011 724 1075 633 1011 b 265 1211 356 1011 265 1076 l 372 1211 b 494 1138 382 1153 424 1138 b 617 1211 565 1138 606 1153 "},"ŏ":{"ha":781,"x_min":0,"x_max":0,"o":"m 401 156 b 508 296 489 156 508 186 l 508 372 b 401 514 508 485 489 514 l 379 514 b 272 372 293 514 272 485 l 272 296 b 379 156 272 186 293 156 m 374 -11 b 54 296 125 -11 54 60 l 54 372 b 374 678 54 606 126 678 l 408 678 b 726 372 656 678 726 606 l 726 296 b 408 -11 726 60 656 -11 m 619 949 b 390 749 619 813 529 749 b 161 949 251 749 161 814 l 268 949 b 390 875 278 890 319 875 b 513 949 461 875 501 890 "},"Ő":{"ha":990,"x_min":0,"x_max":0,"o":"m 479 -11 b 58 401 140 -11 58 88 l 58 543 b 479 956 58 857 140 956 l 511 956 b 932 543 850 956 932 857 l 932 401 b 511 -11 932 88 850 -11 m 507 181 b 685 406 650 181 685 222 l 685 542 b 507 767 685 725 650 767 l 483 767 b 306 542 340 767 306 725 l 306 406 b 483 181 306 222 340 181 m 342 992 l 286 1063 l 488 1246 l 574 1142 m 607 989 l 553 1061 l 760 1243 l 844 1140 "},"ő":{"ha":781,"x_min":0,"x_max":0,"o":"m 401 156 b 508 296 489 156 508 186 l 508 372 b 401 514 508 485 489 514 l 379 514 b 272 372 293 514 272 485 l 272 296 b 379 156 272 186 293 156 m 374 -11 b 54 296 125 -11 54 60 l 54 372 b 374 678 54 606 126 678 l 408 678 b 726 372 656 678 726 606 l 726 296 b 408 -11 726 60 656 -11 m 474 897 l 250 735 l 192 804 l 382 996 m 739 897 l 510 735 l 450 804 l 647 996 "},"Ŕ":{"ha":928,"x_min":0,"x_max":0,"o":"m 482 472 b 621 606 593 472 621 499 l 621 635 b 481 763 621 743 593 763 l 314 763 l 314 472 m 861 0 l 622 0 l 622 133 b 442 296 622 275 597 296 l 314 296 l 314 0 l 76 0 l 76 944 l 535 944 b 860 667 803 944 860 867 l 860 644 b 724 403 860 497 824 424 l 724 397 b 861 153 838 376 861 332 m 643 1101 l 340 1007 l 297 1085 l 571 1247 "},"ŕ":{"ha":661,"x_min":0,"x_max":0,"o":"m 293 0 l 72 0 l 72 667 l 286 667 l 286 546 l 290 546 b 472 678 318 636 364 678 l 481 678 b 642 465 607 678 642 622 b 639 371 642 447 642 414 l 451 371 l 451 414 b 383 499 451 476 438 499 l 372 499 b 293 364 313 499 293 468 m 251 733 l 199 806 l 449 1000 l 542 865 "},"Ŗ":{"ha":928,"x_min":0,"x_max":0,"o":"m 482 472 b 621 606 593 472 621 499 l 621 635 b 481 763 621 743 593 763 l 314 763 l 314 472 m 861 0 l 622 0 l 622 133 b 442 296 622 275 597 296 l 314 296 l 314 0 l 76 0 l 76 944 l 535 944 b 860 667 803 944 860 867 l 860 644 b 724 403 860 497 824 424 l 724 397 b 861 153 838 376 861 332 m 564 -203 b 364 -358 564 -318 525 -358 l 364 -282 b 443 -221 425 -282 443 -267 l 443 -211 l 385 -211 l 385 -68 l 564 -68 "},"ŗ":{"ha":661,"x_min":0,"x_max":0,"o":"m 293 0 l 72 0 l 72 667 l 286 667 l 286 546 l 290 546 b 472 678 318 636 364 678 l 481 678 b 642 465 607 678 642 622 b 639 371 642 447 642 414 l 451 371 l 451 414 b 383 499 451 476 438 499 l 372 499 b 293 364 313 499 293 468 m 275 -203 b 75 -358 275 -318 236 -358 l 75 -282 b 154 -221 136 -282 154 -267 l 154 -211 l 96 -211 l 96 -68 l 275 -68 "},"Ř":{"ha":928,"x_min":0,"x_max":0,"o":"m 482 472 b 621 606 593 472 621 499 l 621 635 b 481 763 621 743 593 763 l 314 763 l 314 472 m 861 0 l 622 0 l 622 133 b 442 296 622 275 597 296 l 314 296 l 314 0 l 76 0 l 76 944 l 535 944 b 860 667 803 944 860 867 l 860 644 b 724 403 860 497 824 424 l 724 397 b 861 153 838 376 861 332 m 457 986 l 233 1158 l 301 1233 l 457 1142 l 613 1233 l 681 1158 "},"ř":{"ha":661,"x_min":0,"x_max":0,"o":"m 293 0 l 72 0 l 72 667 l 286 667 l 286 546 l 290 546 b 472 678 318 636 364 678 l 481 678 b 642 465 607 678 642 622 b 639 371 642 447 642 414 l 451 371 l 451 414 b 383 499 451 476 438 499 l 372 499 b 293 364 313 499 293 468 m 344 724 l 121 897 l 189 972 l 344 881 l 500 972 l 568 897 "},"Ś":{"ha":913,"x_min":0,"x_max":0,"o":"m 857 271 b 517 -11 857 57 774 -11 l 479 -11 b 60 253 108 -11 60 36 l 60 301 l 286 301 l 286 267 b 457 171 286 190 315 171 l 483 171 b 625 263 604 171 625 193 l 625 279 b 418 390 625 347 606 378 b 63 676 113 411 63 482 l 63 699 b 408 956 63 882 132 956 l 451 956 b 832 704 783 956 832 892 l 832 661 l 607 661 l 607 693 b 460 776 607 751 588 776 l 429 776 b 292 696 315 776 292 760 l 292 678 b 497 576 292 614 308 593 b 857 297 803 549 857 490 m 649 1101 l 346 1007 l 303 1085 l 576 1247 "},"ś":{"ha":731,"x_min":0,"x_max":0,"o":"m 353 -11 b 56 176 100 -11 56 39 l 56 207 l 260 207 l 260 197 b 353 138 260 149 274 138 l 383 138 b 476 192 460 138 476 147 l 476 200 b 315 274 476 243 468 264 b 60 472 104 288 60 333 l 60 486 b 326 678 60 626 119 678 l 356 678 b 658 493 613 678 658 636 l 658 475 l 460 475 l 460 481 b 372 535 460 521 449 535 l 353 535 b 265 486 275 535 265 524 l 265 476 b 389 425 265 443 278 433 b 683 222 635 406 683 361 l 683 200 b 388 -11 683 38 611 -11 m 269 733 l 217 806 l 467 1000 l 560 865 "},"Ŝ":{"ha":913,"x_min":0,"x_max":0,"o":"m 857 271 b 517 -11 857 57 774 -11 l 479 -11 b 60 253 108 -11 60 36 l 60 301 l 286 301 l 286 267 b 457 171 286 190 315 171 l 483 171 b 625 263 604 171 625 193 l 625 279 b 418 390 625 347 606 378 b 63 676 113 411 63 482 l 63 699 b 408 956 63 882 132 956 l 451 956 b 832 704 783 956 832 892 l 832 661 l 607 661 l 607 693 b 460 776 607 751 588 776 l 429 776 b 292 696 315 776 292 760 l 292 678 b 497 576 292 614 308 593 b 857 297 803 549 857 490 m 610 1011 l 454 1101 l 299 1011 l 231 1086 l 454 1258 l 678 1086 "},"ŝ":{"ha":731,"x_min":0,"x_max":0,"o":"m 353 -11 b 56 176 100 -11 56 39 l 56 207 l 260 207 l 260 197 b 353 138 260 149 274 138 l 383 138 b 476 192 460 138 476 147 l 476 200 b 315 274 476 243 468 264 b 60 472 104 288 60 333 l 60 486 b 326 678 60 626 119 678 l 356 678 b 658 493 613 678 658 636 l 658 475 l 460 475 l 460 481 b 372 535 460 521 449 535 l 353 535 b 265 486 275 535 265 524 l 265 476 b 389 425 265 443 278 433 b 683 222 635 406 683 361 l 683 200 b 388 -11 683 38 611 -11 m 514 744 l 358 836 l 203 744 l 135 819 l 358 993 l 582 819 "},"Ş":{"ha":913,"x_min":0,"x_max":0,"o":"m 857 271 b 517 -11 857 57 774 -11 l 479 -11 b 60 253 108 -11 60 36 l 60 301 l 286 301 l 286 267 b 457 171 286 190 315 171 l 483 171 b 625 263 604 171 625 193 l 625 279 b 418 390 625 347 606 378 b 63 676 113 411 63 482 l 63 699 b 408 956 63 882 132 956 l 451 956 b 832 704 783 956 832 892 l 832 661 l 607 661 l 607 693 b 460 776 607 751 588 776 l 429 776 b 292 696 315 776 292 760 l 292 678 b 497 576 292 614 308 593 b 857 297 803 549 857 490 m 310 -294 l 249 -225 l 476 -12 l 588 -136 "},"ş":{"ha":731,"x_min":0,"x_max":0,"o":"m 353 -11 b 56 176 100 -11 56 39 l 56 207 l 260 207 l 260 197 b 353 138 260 149 274 138 l 383 138 b 476 192 460 138 476 147 l 476 200 b 315 274 476 243 468 264 b 60 472 104 288 60 333 l 60 486 b 326 678 60 626 119 678 l 356 678 b 658 493 613 678 658 636 l 658 475 l 460 475 l 460 481 b 372 535 460 521 449 535 l 353 535 b 265 486 275 535 265 524 l 265 476 b 389 425 265 443 278 433 b 683 222 635 406 683 361 l 683 200 b 388 -11 683 38 611 -11 m 226 -294 l 165 -225 l 393 -12 l 504 -136 "},"Ţ":{"ha":792,"x_min":0,"x_max":0,"o":"m 518 0 l 275 0 l 275 756 l 17 756 l 17 944 l 775 944 l 775 756 l 518 756 m 489 -203 b 289 -358 489 -318 450 -358 l 289 -282 b 368 -221 350 -282 368 -267 l 368 -211 l 310 -211 l 310 -68 l 489 -68 "},"ţ":{"ha":644,"x_min":0,"x_max":0,"o":"m 343 -11 b 106 257 149 -11 106 35 l 106 508 l 17 508 l 17 667 l 106 667 l 106 840 l 322 840 l 322 667 l 597 667 l 597 508 l 321 508 l 321 281 b 379 156 321 163 329 156 l 389 156 b 443 272 438 156 443 165 l 443 293 l 614 293 l 614 229 b 367 -11 614 39 567 -11 m 453 -203 b 253 -358 453 -318 414 -358 l 253 -282 b 332 -221 314 -282 332 -267 l 332 -211 l 274 -211 l 274 -68 l 453 -68 "},"Ť":{"ha":792,"x_min":0,"x_max":0,"o":"m 518 0 l 275 0 l 275 756 l 17 756 l 17 944 l 775 944 l 775 756 l 518 756 m 396 986 l 172 1158 l 240 1233 l 396 1142 l 551 1233 l 619 1158 "},"ť":{"ha":644,"x_min":0,"x_max":0,"o":"m 350 -11 b 106 257 150 -11 106 35 l 106 508 l 17 508 l 17 667 l 106 667 l 106 840 l 322 840 l 322 667 l 513 667 l 513 508 l 322 508 l 322 281 b 381 156 322 163 329 156 l 389 156 b 443 272 438 156 443 165 l 443 293 l 614 293 l 614 229 b 374 -11 614 39 568 -11 m 719 821 b 543 635 719 704 674 635 l 543 722 b 601 792 589 729 601 747 l 601 801 l 542 801 l 542 944 l 719 944 "},"Ŧ":{"ha":792,"x_min":0,"x_max":0,"o":"m 518 0 l 275 0 l 275 503 l 93 503 l 93 633 l 275 633 l 275 756 l 17 756 l 17 944 l 775 944 l 775 756 l 518 756 l 518 633 l 708 633 l 708 503 l 518 503 "},"ŧ":{"ha":644,"x_min":0,"x_max":0,"o":"m 614 229 b 367 -11 614 39 567 -11 l 343 -11 b 106 257 149 -11 106 35 l 106 360 l 35 360 l 35 451 l 106 451 l 106 508 l 17 508 l 17 667 l 106 667 l 106 840 l 322 840 l 322 667 l 597 667 l 597 508 l 321 508 l 321 451 l 471 451 l 471 360 l 321 360 l 321 281 b 379 156 321 163 329 156 l 389 156 b 443 272 438 156 443 165 l 443 293 l 614 293 "},"Ũ":{"ha":969,"x_min":0,"x_max":0,"o":"m 471 -11 b 74 326 140 -11 74 57 l 74 944 l 317 944 l 317 350 b 474 181 317 206 336 181 l 494 181 b 653 350 633 181 653 206 l 653 944 l 896 944 l 896 326 b 497 -11 896 57 831 -11 m 690 1197 b 564 1028 686 1094 654 1028 b 476 1054 528 1028 503 1040 b 410 1078 453 1068 432 1078 b 361 1026 385 1078 365 1067 l 279 1046 b 403 1213 282 1143 318 1213 b 489 1186 436 1213 461 1201 b 560 1160 514 1172 538 1160 b 606 1215 588 1160 604 1179 "},"ũ":{"ha":804,"x_min":0,"x_max":0,"o":"m 732 0 l 514 0 l 514 101 l 513 101 b 311 -11 481 22 418 -11 l 301 -11 b 65 269 122 -11 65 53 l 65 667 l 286 667 l 286 289 b 388 156 286 179 300 156 l 399 156 b 511 290 488 156 511 183 l 511 667 l 732 667 m 604 935 b 478 765 600 832 568 765 b 390 792 442 765 417 778 b 324 815 367 806 346 815 b 275 764 299 815 279 804 l 193 783 b 317 950 196 881 232 950 b 403 924 350 950 375 939 b 474 897 428 910 451 897 b 519 953 501 897 518 917 "},"Ū":{"ha":969,"x_min":0,"x_max":0,"o":"m 471 -11 b 74 326 140 -11 74 57 l 74 944 l 317 944 l 317 350 b 474 181 317 206 336 181 l 494 181 b 653 350 633 181 653 206 l 653 944 l 896 944 l 896 326 b 497 -11 896 57 831 -11 m 686 1051 l 283 1051 l 283 1182 l 686 1182 "},"ū":{"ha":804,"x_min":0,"x_max":0,"o":"m 732 0 l 514 0 l 514 101 l 513 101 b 311 -11 481 22 418 -11 l 301 -11 b 65 269 122 -11 65 53 l 65 667 l 286 667 l 286 289 b 388 156 286 179 300 156 l 399 156 b 511 290 488 156 511 183 l 511 667 l 732 667 m 601 793 l 199 793 l 199 924 l 601 924 "},"Ŭ":{"ha":969,"x_min":0,"x_max":0,"o":"m 471 -11 b 74 326 140 -11 74 57 l 74 944 l 317 944 l 317 350 b 474 181 317 206 336 181 l 494 181 b 653 350 633 181 653 206 l 653 944 l 896 944 l 896 326 b 497 -11 896 57 831 -11 m 714 1211 b 485 1011 714 1075 624 1011 b 256 1211 346 1011 256 1076 l 363 1211 b 485 1138 372 1153 414 1138 b 607 1211 556 1138 596 1153 "},"ŭ":{"ha":804,"x_min":0,"x_max":0,"o":"m 732 0 l 514 0 l 514 101 l 513 101 b 311 -11 481 22 418 -11 l 301 -11 b 65 269 122 -11 65 53 l 65 667 l 286 667 l 286 289 b 388 156 286 179 300 156 l 399 156 b 511 290 488 156 511 183 l 511 667 l 732 667 m 628 949 b 399 749 628 813 538 749 b 169 949 260 749 169 814 l 276 949 b 399 875 286 890 328 875 b 521 949 469 875 510 890 "},"Ů":{"ha":969,"x_min":0,"x_max":0,"o":"m 471 -11 b 74 326 140 -11 74 57 l 74 944 l 317 944 l 317 350 b 474 181 317 206 336 181 l 494 181 b 653 350 633 181 653 206 l 653 944 l 896 944 l 896 326 b 497 -11 896 57 831 -11 m 482 992 b 321 1113 357 992 321 1024 l 321 1121 b 482 1240 321 1208 357 1240 l 488 1240 b 649 1121 613 1240 649 1208 l 649 1113 b 488 992 649 1024 613 992 m 488 1058 b 563 1111 549 1058 563 1069 l 563 1119 b 488 1172 563 1161 549 1172 l 482 1172 b 407 1119 421 1172 407 1161 l 407 1111 b 482 1058 407 1069 421 1058 "},"ů":{"ha":804,"x_min":0,"x_max":0,"o":"m 732 0 l 514 0 l 514 101 l 513 101 b 311 -11 481 22 418 -11 l 301 -11 b 65 269 122 -11 65 53 l 65 667 l 286 667 l 286 289 b 388 156 286 179 300 156 l 399 156 b 511 290 488 156 511 183 l 511 667 l 732 667 m 396 743 b 235 864 271 743 235 775 l 235 872 b 396 992 235 960 271 992 l 401 992 b 563 872 526 992 563 960 l 563 864 b 401 743 563 775 526 743 m 401 810 b 476 863 463 810 476 821 l 476 871 b 401 924 476 913 463 924 l 396 924 b 321 871 335 924 321 913 l 321 863 b 396 810 321 821 335 810 "},"Ű":{"ha":969,"x_min":0,"x_max":0,"o":"m 471 -11 b 74 326 140 -11 74 57 l 74 944 l 317 944 l 317 350 b 474 181 317 206 336 181 l 494 181 b 653 350 633 181 653 206 l 653 944 l 896 944 l 896 326 b 497 -11 896 57 831 -11 m 324 992 l 268 1063 l 469 1246 l 556 1142 m 589 989 l 535 1061 l 742 1243 l 826 1140 "},"ű":{"ha":804,"x_min":0,"x_max":0,"o":"m 732 0 l 514 0 l 514 101 l 513 101 b 311 -11 481 22 418 -11 l 301 -11 b 65 269 122 -11 65 53 l 65 667 l 286 667 l 286 289 b 388 156 286 179 300 156 l 399 156 b 511 290 488 156 511 183 l 511 667 l 732 667 m 482 897 l 258 735 l 200 804 l 390 996 m 747 897 l 518 735 l 458 804 l 656 996 "},"Ų":{"ha":969,"x_min":0,"x_max":0,"o":"m 617 -265 b 492 -286 582 -278 538 -286 b 347 -171 407 -286 347 -260 b 442 -10 347 -103 383 -56 b 74 326 136 -6 74 64 l 74 944 l 317 944 l 317 350 b 474 181 317 206 336 181 l 494 181 b 653 350 633 181 653 206 l 653 944 l 896 944 l 896 326 b 561 -10 896 75 839 0 b 486 -126 499 -58 486 -94 b 542 -172 486 -161 504 -172 b 617 -164 567 -172 596 -168 "},"ų":{"ha":804,"x_min":0,"x_max":0,"o":"m 732 0 l 694 0 b 589 -126 629 -28 589 -81 b 646 -172 589 -161 607 -172 b 719 -164 671 -172 699 -168 l 719 -265 b 594 -286 685 -278 642 -286 b 450 -171 501 -286 450 -253 b 557 0 450 -100 489 -51 l 514 0 l 514 101 l 513 101 b 311 -11 481 22 418 -11 l 301 -11 b 65 269 122 -11 65 53 l 65 667 l 286 667 l 286 289 b 388 156 286 179 300 156 l 399 156 b 511 290 488 156 511 183 l 511 667 l 732 667 "},"Ŵ":{"ha":1325,"x_min":0,"x_max":0,"o":"m 1106 0 l 807 0 l 667 717 l 663 717 l 521 0 l 222 0 l 18 944 l 261 944 l 379 199 l 385 199 l 532 944 l 801 944 l 950 199 l 954 199 l 1071 944 l 1307 944 m 821 1011 l 665 1101 l 510 1011 l 442 1086 l 665 1258 l 889 1086 "},"ŵ":{"ha":1150,"x_min":0,"x_max":0,"o":"m 958 0 l 661 0 l 578 449 l 574 449 l 492 0 l 193 0 l 17 667 l 250 667 l 347 160 l 353 160 l 458 667 l 699 667 l 808 160 l 814 160 l 908 667 l 1133 667 m 729 744 l 574 836 l 418 744 l 350 819 l 574 993 l 797 819 "},"Ŷ":{"ha":903,"x_min":0,"x_max":0,"o":"m 572 0 l 329 0 l 329 306 l 10 944 l 271 944 l 453 518 l 457 518 l 632 944 l 893 944 l 572 306 m 611 1011 l 456 1101 l 300 1011 l 232 1086 l 456 1258 l 679 1086 "},"ŷ":{"ha":713,"x_min":0,"x_max":0,"o":"m 128 -75 b 176 -78 146 -78 169 -78 b 315 28 257 -78 297 -54 l 196 28 l 10 667 l 239 667 l 354 179 l 363 179 l 476 667 l 703 667 l 528 75 b 221 -242 450 -189 386 -242 b 128 -236 192 -242 158 -239 m 514 744 l 358 836 l 203 744 l 135 819 l 358 993 l 582 819 "},"Ź":{"ha":840,"x_min":0,"x_max":0,"o":"m 792 0 l 50 0 l 50 188 l 503 761 l 503 763 l 61 763 l 61 944 l 782 944 l 782 756 l 331 186 l 331 183 l 792 183 m 628 1101 l 325 1007 l 282 1085 l 556 1247 "},"ź":{"ha":636,"x_min":0,"x_max":0,"o":"m 606 0 l 36 0 l 36 161 l 331 504 l 331 507 l 53 507 l 53 667 l 590 667 l 590 499 l 301 164 l 301 161 l 606 161 m 222 733 l 169 806 l 419 1000 l 513 865 "},"Ż":{"ha":840,"x_min":0,"x_max":0,"o":"m 792 0 l 50 0 l 50 188 l 503 761 l 503 763 l 61 763 l 61 944 l 782 944 l 782 756 l 331 186 l 331 183 l 792 183 m 533 1033 l 313 1033 l 313 1206 l 533 1206 "},"ż":{"ha":636,"x_min":0,"x_max":0,"o":"m 606 0 l 36 0 l 36 161 l 331 504 l 331 507 l 53 507 l 53 667 l 590 667 l 590 499 l 301 164 l 301 161 l 606 161 m 428 772 l 207 772 l 207 944 l 428 944 "},"Ș":{"ha":913,"x_min":0,"x_max":0,"o":"m 857 271 b 517 -11 857 57 774 -11 l 479 -11 b 60 253 108 -11 60 36 l 60 301 l 286 301 l 286 267 b 457 171 286 190 315 171 l 483 171 b 625 263 604 171 625 193 l 625 279 b 418 390 625 347 606 378 b 63 676 113 411 63 482 l 63 699 b 408 956 63 882 132 956 l 451 956 b 832 704 783 956 832 892 l 832 661 l 607 661 l 607 693 b 460 776 607 751 588 776 l 429 776 b 292 696 315 776 292 760 l 292 678 b 497 576 292 614 308 593 b 857 297 803 549 857 490 m 556 -203 b 356 -358 556 -318 517 -358 l 356 -282 b 435 -221 417 -282 435 -267 l 435 -211 l 376 -211 l 376 -68 l 556 -68 "},"ș":{"ha":731,"x_min":0,"x_max":0,"o":"m 353 -11 b 56 176 100 -11 56 39 l 56 207 l 260 207 l 260 197 b 353 138 260 149 274 138 l 383 138 b 476 192 460 138 476 147 l 476 200 b 315 274 476 243 468 264 b 60 472 104 288 60 333 l 60 486 b 326 678 60 626 119 678 l 356 678 b 658 493 613 678 658 636 l 658 475 l 460 475 l 460 481 b 372 535 460 521 449 535 l 353 535 b 265 486 275 535 265 524 l 265 476 b 389 425 265 443 278 433 b 683 222 635 406 683 361 l 683 200 b 388 -11 683 38 611 -11 m 472 -203 b 272 -358 472 -318 433 -358 l 272 -282 b 351 -221 333 -282 351 -267 l 351 -211 l 293 -211 l 293 -68 l 472 -68 "},"Ț":{"ha":792,"x_min":0,"x_max":0,"o":"m 518 0 l 275 0 l 275 756 l 17 756 l 17 944 l 775 944 l 775 756 l 518 756 m 489 -203 b 289 -358 489 -318 450 -358 l 289 -282 b 368 -221 350 -282 368 -267 l 368 -211 l 310 -211 l 310 -68 l 489 -68 "},"ț":{"ha":644,"x_min":0,"x_max":0,"o":"m 343 -11 b 106 257 149 -11 106 35 l 106 508 l 17 508 l 17 667 l 106 667 l 106 840 l 322 840 l 322 667 l 597 667 l 597 508 l 321 508 l 321 281 b 379 156 321 163 329 156 l 389 156 b 443 272 438 156 443 165 l 443 293 l 614 293 l 614 229 b 367 -11 614 39 567 -11 m 453 -203 b 253 -358 453 -318 414 -358 l 253 -282 b 332 -221 314 -282 332 -267 l 332 -211 l 274 -211 l 274 -68 l 453 -68 "},"ȷ":{"ha":369,"x_min":0,"x_max":0,"o":"m 297 -39 b 79 -242 297 -196 224 -242 b 6 -236 54 -242 31 -240 l 6 -76 b 32 -78 18 -78 26 -78 b 76 -7 67 -78 76 -64 l 76 667 l 297 667 "},"ˇ":{"ha":594,"x_min":0,"x_max":0,"o":"m 297 724 l 74 897 l 142 972 l 297 881 l 453 972 l 521 897 "},"ˉ":{"ha":594,"x_min":0,"x_max":0,"o":"m 499 1051 l 96 1051 l 96 1182 l 499 1182 "},"˘":{"ha":594,"x_min":0,"x_max":0,"o":"m 526 949 b 297 749 526 813 436 749 b 68 949 158 749 68 814 l 175 949 b 297 875 185 890 226 875 b 419 949 368 875 408 890 "},"˙":{"ha":594,"x_min":0,"x_max":0,"o":"m 407 772 l 186 772 l 186 944 l 407 944 "},"˚":{"ha":594,"x_min":0,"x_max":0,"o":"m 294 743 b 133 864 169 743 133 775 l 133 872 b 294 992 133 960 169 992 l 300 992 b 461 872 425 992 461 960 l 461 864 b 300 743 461 775 425 743 m 300 810 b 375 863 361 810 375 821 l 375 871 b 300 924 375 913 361 924 l 294 924 b 219 871 233 924 219 913 l 219 863 b 294 810 219 821 233 810 "},"˛":{"ha":594,"x_min":0,"x_max":0,"o":"m 425 -265 b 300 -286 390 -278 346 -286 b 156 -171 215 -286 156 -260 b 265 0 156 -97 197 -50 l 375 0 b 294 -126 310 -60 294 -93 b 350 -172 294 -161 313 -172 b 425 -164 375 -172 404 -168 "},"˝":{"ha":594,"x_min":0,"x_max":0,"o":"m 321 897 l 97 735 l 39 804 l 229 996 m 586 897 l 357 735 l 297 804 l 494 996 "},"Δ":{"ha":968,"x_min":0,"x_max":0,"o":"m 943 0 l 26 0 l 360 944 l 610 944 m 649 185 l 486 750 l 479 750 l 313 185 "},"Ω":{"ha":971,"x_min":0,"x_max":0,"o":"m 890 0 l 536 0 l 536 307 b 667 550 624 332 667 426 b 486 779 667 683 606 779 b 304 550 365 779 304 683 b 436 307 304 426 347 332 l 436 0 l 81 0 l 81 181 l 278 181 l 278 200 b 67 553 150 249 67 369 b 486 958 67 790 221 958 b 906 553 750 958 906 790 b 693 200 906 369 822 249 l 693 181 l 890 181 "},"μ":{"ha":817,"x_min":0,"x_max":0,"o":"m 744 0 l 528 0 l 528 99 l 525 99 b 369 -6 499 28 446 -6 l 364 -6 b 296 10 340 -6 308 1 l 293 10 l 293 -236 l 72 -236 l 72 667 l 293 667 l 293 279 b 399 156 293 175 314 156 l 410 156 b 524 289 499 156 524 182 l 524 667 l 744 667 "},"π":{"ha":875,"x_min":0,"x_max":0,"o":"m 824 7 b 710 -11 794 -4 758 -11 b 524 206 585 -11 524 38 l 524 488 l 343 488 l 343 0 l 122 0 l 122 488 l 51 488 l 51 667 l 824 667 l 824 488 l 742 488 l 742 238 b 792 144 742 158 756 144 b 824 149 804 144 815 146 "},"⁄":{"ha":200,"x_min":0,"x_max":0,"o":"m -24 0 l -156 0 l 225 944 l 356 944 "},"⁰":{"ha":586,"x_min":0,"x_max":0,"o":"m 281 624 b 50 854 88 624 50 674 l 50 926 b 281 1151 50 1096 88 1151 l 306 1151 b 536 926 499 1151 536 1094 l 536 854 b 306 624 536 675 499 624 m 303 738 b 392 846 378 738 392 761 l 392 929 b 303 1039 392 1015 378 1039 l 283 1039 b 194 929 208 1039 194 1015 l 194 846 b 283 738 194 761 208 738 "},"⁴":{"ha":601,"x_min":0,"x_max":0,"o":"m 496 629 l 349 629 l 349 733 l 46 733 l 46 869 l 292 1146 l 496 1146 l 496 838 l 564 838 l 564 733 l 496 733 m 349 838 l 349 1044 l 343 1044 l 169 839 l 169 838 "},"⁵":{"ha":569,"x_min":0,"x_max":0,"o":"m 272 624 b 57 771 90 624 57 656 l 57 789 l 190 789 l 190 778 b 268 733 190 743 206 733 l 289 733 b 378 792 369 733 378 740 l 378 810 b 290 874 378 865 369 874 l 268 874 b 199 839 208 874 200 865 l 63 839 l 63 1146 l 508 1146 l 508 1033 l 200 1033 l 200 943 l 201 943 b 315 978 218 967 249 978 l 336 978 b 521 819 483 978 521 946 l 521 793 b 294 624 521 663 478 624 "},"⁶":{"ha":574,"x_min":0,"x_max":0,"o":"m 297 732 b 381 789 374 732 381 739 l 381 801 b 297 858 381 850 374 858 l 279 858 b 196 801 203 858 196 850 l 196 789 b 279 732 196 739 203 732 m 274 624 b 53 833 88 624 53 663 l 53 942 b 282 1151 53 1117 92 1151 l 308 1151 b 513 1008 476 1151 513 1125 l 513 993 l 375 993 l 375 1003 b 303 1046 375 1038 363 1046 l 283 1046 b 197 961 207 1046 197 1035 l 197 928 l 200 928 b 306 961 215 950 247 961 l 328 961 b 524 817 488 961 524 926 l 524 790 b 300 624 524 657 485 624 "},"⁷":{"ha":543,"x_min":0,"x_max":0,"o":"m 275 629 l 110 629 l 317 1024 l 317 1026 l 46 1026 l 46 1146 l 492 1146 l 492 1043 "},"⁸":{"ha":561,"x_min":0,"x_max":0,"o":"m 267 624 b 50 756 83 624 50 651 l 50 776 b 118 890 50 842 68 875 l 118 892 b 51 1004 69 907 51 936 l 51 1024 b 265 1151 51 1124 85 1151 l 294 1151 b 510 1024 475 1151 510 1124 l 510 1004 b 443 892 510 936 492 907 l 443 890 b 513 776 493 875 513 842 l 513 756 b 294 624 513 651 478 624 m 292 942 b 368 988 363 942 368 949 l 368 1003 b 292 1049 368 1042 363 1049 l 269 1049 b 193 1003 199 1049 193 1042 l 193 988 b 269 942 193 949 199 942 m 293 728 b 371 774 364 728 371 735 l 371 799 b 293 843 371 838 364 843 l 269 843 b 192 799 197 843 192 838 l 192 774 b 269 728 192 735 197 728 "},"⁹":{"ha":574,"x_min":0,"x_max":0,"o":"m 294 917 b 378 974 371 917 378 925 l 378 986 b 294 1043 378 1036 369 1043 l 276 1043 b 193 986 201 1043 193 1036 l 193 974 b 276 917 193 925 201 917 m 264 624 b 54 767 89 624 54 650 l 54 782 l 193 782 l 193 772 b 271 729 193 738 201 729 l 289 729 b 376 814 368 729 376 738 l 376 847 l 375 847 b 269 814 357 825 326 814 l 246 814 b 50 963 86 814 50 849 l 50 989 b 275 1151 50 1118 90 1151 l 301 1151 b 522 944 486 1151 522 1113 l 522 836 b 290 624 522 658 482 624 "},"₀":{"ha":586,"x_min":0,"x_max":0,"o":"m 281 -219 b 50 11 88 -219 50 -169 l 50 83 b 281 308 50 253 88 308 l 306 308 b 536 83 499 308 536 251 l 536 11 b 306 -219 536 -168 499 -219 m 303 -106 b 392 3 378 -106 392 -82 l 392 86 b 303 196 392 172 378 196 l 283 196 b 194 86 208 196 194 172 l 194 3 b 283 -106 194 -82 208 -106 "},"₁":{"ha":457,"x_min":0,"x_max":0,"o":"m 342 -214 l 189 -214 l 189 168 l 186 168 l 78 85 l 13 182 l 168 303 l 342 303 "},"₂":{"ha":567,"x_min":0,"x_max":0,"o":"m 521 -214 l 57 -214 l 57 -112 b 265 76 57 10 100 49 b 369 138 363 93 369 104 l 369 157 b 279 200 369 192 357 200 l 271 200 b 196 142 203 200 196 189 l 196 122 l 56 122 l 56 146 b 269 308 56 271 86 308 l 283 308 b 518 158 479 308 518 271 l 518 144 b 313 -28 518 40 496 3 b 200 -87 219 -43 200 -54 l 200 -101 l 521 -101 "},"₃":{"ha":572,"x_min":0,"x_max":0,"o":"m 272 -219 b 53 -60 93 -219 53 -192 l 53 -36 l 192 -36 l 192 -61 b 271 -111 192 -104 201 -111 l 279 -111 b 378 -68 368 -111 378 -104 l 378 -49 b 317 -3 378 -14 367 -3 l 225 -3 l 225 94 l 318 94 b 368 139 360 94 368 104 l 368 160 b 278 200 368 192 358 200 l 269 200 b 192 151 203 200 192 194 l 192 129 l 56 129 l 56 150 b 271 308 56 281 96 308 l 288 308 b 517 174 475 308 517 281 l 517 161 b 450 49 517 85 499 64 l 450 47 b 526 -60 503 36 526 13 l 526 -79 b 289 -219 526 -190 474 -219 "},"₄":{"ha":601,"x_min":0,"x_max":0,"o":"m 496 -214 l 349 -214 l 349 -110 l 46 -110 l 46 26 l 292 303 l 496 303 l 496 -6 l 564 -6 l 564 -110 l 496 -110 m 349 -6 l 349 201 l 343 201 l 169 -4 l 169 -6 "},"₅":{"ha":569,"x_min":0,"x_max":0,"o":"m 272 -219 b 57 -72 90 -219 57 -187 l 57 -54 l 190 -54 l 190 -65 b 268 -110 190 -100 206 -110 l 289 -110 b 378 -51 369 -110 378 -103 l 378 -33 b 290 31 378 22 369 31 l 268 31 b 199 -4 208 31 200 22 l 63 -4 l 63 303 l 508 303 l 508 190 l 200 190 l 200 100 l 201 100 b 315 135 218 124 249 135 l 336 135 b 521 -24 483 135 521 103 l 521 -50 b 294 -219 521 -181 478 -219 "},"₆":{"ha":574,"x_min":0,"x_max":0,"o":"m 297 -111 b 381 -54 374 -111 381 -104 l 381 -42 b 297 15 381 7 374 15 l 279 15 b 196 -42 203 15 196 7 l 196 -54 b 279 -111 196 -104 203 -111 m 274 -219 b 53 -10 88 -219 53 -181 l 53 99 b 282 308 53 274 92 308 l 308 308 b 513 165 476 308 513 282 l 513 150 l 375 150 l 375 160 b 303 203 375 194 363 203 l 283 203 b 197 118 207 203 197 192 l 197 85 l 200 85 b 306 118 215 107 247 118 l 328 118 b 524 -26 488 118 524 83 l 524 -53 b 300 -219 524 -186 485 -219 "},"₇":{"ha":543,"x_min":0,"x_max":0,"o":"m 275 -214 l 110 -214 l 317 181 l 317 183 l 46 183 l 46 303 l 492 303 l 492 200 "},"₈":{"ha":561,"x_min":0,"x_max":0,"o":"m 267 -219 b 50 -87 83 -219 50 -192 l 50 -67 b 118 47 50 -1 68 32 l 118 49 b 51 161 69 64 51 93 l 51 181 b 265 308 51 281 85 308 l 294 308 b 510 181 475 308 510 281 l 510 161 b 443 49 510 93 492 64 l 443 47 b 513 -67 493 32 513 -1 l 513 -87 b 294 -219 513 -192 478 -219 m 292 99 b 368 144 363 99 368 106 l 368 160 b 292 206 368 199 363 206 l 269 206 b 193 160 199 206 193 199 l 193 144 b 269 99 193 106 199 99 m 293 -115 b 371 -69 364 -115 371 -108 l 371 -44 b 293 0 371 -6 364 0 l 269 0 b 192 -44 197 0 192 -6 l 192 -69 b 269 -115 192 -108 197 -115 "},"₉":{"ha":574,"x_min":0,"x_max":0,"o":"m 294 74 b 378 131 371 74 378 82 l 378 143 b 294 200 378 193 369 200 l 276 200 b 193 143 201 200 193 193 l 193 131 b 276 74 193 82 201 74 m 264 -219 b 54 -76 89 -219 54 -193 l 54 -61 l 193 -61 l 193 -71 b 271 -114 193 -106 201 -114 l 289 -114 b 376 -29 368 -114 376 -106 l 376 4 l 375 4 b 269 -29 357 -18 326 -29 l 246 -29 b 50 119 86 -29 50 6 l 50 146 b 275 308 50 275 90 308 l 301 308 b 522 101 486 308 522 269 l 522 -7 b 290 -219 522 -185 482 -219 "},"ℓ":{"ha":633,"x_min":0,"x_max":0,"o":"m 558 86 b 339 -11 490 26 425 -11 b 144 204 211 -11 144 71 l 144 217 b 86 169 125 200 106 185 l 32 276 b 143 376 71 310 108 343 l 143 692 b 374 1001 143 910 233 1001 b 564 790 493 1001 564 925 b 317 333 564 642 465 485 l 317 251 b 393 133 317 171 339 133 b 492 182 428 133 460 154 m 317 517 b 421 785 383 608 421 697 b 371 878 421 849 403 878 b 317 717 333 878 317 842 "},"Ω":{"ha":971,"x_min":0,"x_max":0,"o":"m 890 0 l 536 0 l 536 307 b 667 550 624 332 667 426 b 486 779 667 683 606 779 b 304 550 365 779 304 683 b 436 307 304 426 347 332 l 436 0 l 81 0 l 81 181 l 278 181 l 278 200 b 67 553 150 249 67 369 b 486 958 67 790 221 958 b 906 553 750 958 906 790 b 693 200 906 369 822 249 l 693 181 l 890 181 "},"℮":{"ha":1006,"x_min":0,"x_max":0,"o":"m 894 228 b 500 -4 790 68 683 -4 b 56 475 231 -4 56 210 b 500 949 56 742 231 949 b 950 475 769 949 949 756 l 251 475 l 251 161 b 500 61 317 94 403 61 b 835 267 644 61 750 121 m 754 536 l 754 785 b 500 892 682 856 597 892 b 251 785 403 892 317 856 l 251 536 "},"∂":{"ha":792,"x_min":0,"x_max":0,"o":"m 115 907 b 365 1001 167 957 256 1001 b 732 515 601 1001 732 826 b 374 -11 732 183 617 -11 b 64 308 175 -11 64 107 b 358 625 64 489 175 625 b 540 546 444 625 507 594 l 544 546 b 543 582 544 557 544 571 b 353 832 529 725 461 832 b 185 765 293 832 232 806 m 533 383 b 396 469 496 439 456 469 b 263 311 310 469 263 417 b 388 156 263 210 315 156 b 533 383 472 156 524 238 "},"∆":{"ha":968,"x_min":0,"x_max":0,"o":"m 943 0 l 26 0 l 360 944 l 610 944 m 649 185 l 486 750 l 479 750 l 313 185 "},"∏":{"ha":1043,"x_min":0,"x_max":0,"o":"m 903 -299 l 682 -299 l 682 894 l 361 894 l 361 -299 l 140 -299 l 140 894 l 61 894 l 61 1092 l 982 1092 l 982 894 l 903 894 "},"∑":{"ha":851,"x_min":0,"x_max":0,"o":"m 790 -297 l 61 -297 l 61 -144 l 413 442 l 75 939 l 75 1092 l 769 1092 l 769 894 l 368 894 l 368 892 l 653 442 l 335 -93 l 335 -96 l 790 -96 "},"−":{"ha":788,"x_min":0,"x_max":0,"o":"m 710 338 l 78 338 l 78 506 l 710 506 "},"∕":{"ha":200,"x_min":0,"x_max":0,"o":"m -24 0 l -156 0 l 225 944 l 356 944 "},"∙":{"ha":371,"x_min":0,"x_max":0,"o":"m 300 256 l 71 256 l 71 485 l 300 485 "},"√":{"ha":876,"x_min":0,"x_max":0,"o":"m 551 -299 l 339 -299 l 161 174 l 85 149 l 38 272 l 271 360 l 429 -92 l 432 -92 l 663 1093 l 840 1093 "},"∞":{"ha":1121,"x_min":0,"x_max":0,"o":"m 560 486 b 819 631 628 567 704 631 b 1067 385 972 631 1067 526 b 822 133 1067 242 976 133 b 560 268 710 133 629 188 b 303 133 489 188 419 133 b 54 383 149 133 54 235 b 300 631 54 525 149 631 b 560 486 415 631 493 565 m 463 379 b 315 474 421 425 372 474 b 229 381 258 474 229 431 b 319 290 229 326 261 290 b 463 379 376 290 424 333 m 658 379 b 801 290 697 333 743 290 b 892 381 860 290 892 326 b 801 475 892 433 861 475 b 658 379 746 475 697 425 "},"∫":{"ha":692,"x_min":0,"x_max":0,"o":"m 63 -132 b 119 -136 78 -135 97 -136 b 238 196 206 -136 238 -93 l 238 535 b 544 1096 238 964 310 1096 b 632 1088 575 1096 619 1092 l 632 926 b 575 931 617 929 597 931 b 457 599 489 931 457 888 l 457 260 b 151 -301 457 -169 386 -301 b 63 -293 121 -301 75 -297 "},"≈":{"ha":788,"x_min":0,"x_max":0,"o":"m 710 649 b 525 426 701 503 644 426 b 397 458 481 426 436 442 b 267 492 354 476 311 492 b 207 428 228 492 211 468 l 78 428 b 261 650 88 576 146 650 b 394 617 307 650 354 633 b 521 585 436 600 478 585 b 581 649 560 585 576 608 m 710 368 b 525 144 701 222 644 144 b 397 176 481 144 436 160 b 267 210 354 194 311 210 b 207 146 228 210 211 186 l 78 146 b 261 368 88 294 146 368 b 394 336 307 368 354 353 b 521 303 436 319 478 303 b 581 368 560 303 576 328 "},"≠":{"ha":788,"x_min":0,"x_max":0,"o":"m 710 192 l 357 192 l 269 7 l 147 64 l 208 192 l 78 192 l 78 358 l 289 358 l 343 469 l 78 469 l 78 636 l 424 636 l 514 822 l 636 765 l 574 636 l 710 636 l 710 469 l 493 469 l 438 358 l 710 358 "},"≤":{"ha":788,"x_min":0,"x_max":0,"o":"m 710 204 l 78 435 l 78 597 l 710 829 l 710 651 l 289 518 l 289 514 l 710 382 m 710 0 l 78 0 l 78 168 l 710 168 "},"≥":{"ha":788,"x_min":0,"x_max":0,"o":"m 708 435 l 78 204 l 78 382 l 497 514 l 497 518 l 78 651 l 78 829 l 708 597 m 708 0 l 78 0 l 78 168 l 708 168 "},"◊":{"ha":701,"x_min":0,"x_max":0,"o":"m 354 164 l 485 481 l 351 776 l 349 776 l 217 481 l 353 164 m 419 0 l 282 0 l 56 481 l 282 944 l 419 944 l 646 481 "},"":{"ha":388,"x_min":0,"x_max":0,"o":"m 299 0 l 89 0 l 89 188 l 299 188 m 289 264 l 99 264 l 85 733 l 303 733 "},"":{"ha":804,"x_min":0,"x_max":0,"o":"m 458 -89 l 368 -89 l 368 -10 b 78 204 113 -6 78 39 l 78 239 l 282 239 l 282 210 b 368 140 282 158 293 143 l 368 297 b 79 526 118 332 79 375 l 79 546 b 368 744 79 688 142 744 l 368 811 l 458 811 l 458 744 b 731 546 700 739 731 689 l 731 510 l 529 510 l 529 539 b 458 597 529 581 519 594 l 458 451 b 754 235 701 418 754 379 l 754 211 b 458 -10 754 40 701 -8 m 458 140 b 549 203 538 142 549 156 l 549 222 b 458 283 549 256 539 271 m 283 522 b 368 464 283 488 292 474 l 368 597 b 283 542 293 596 283 583 "},"":{"ha":958,"x_min":0,"x_max":0,"o":"m 228 364 b 67 535 106 364 67 403 l 67 565 b 228 736 67 697 106 736 l 246 736 b 407 565 368 736 407 697 l 407 535 b 246 364 407 403 368 364 m 242 461 b 282 531 274 461 282 472 l 282 571 b 242 640 282 629 274 640 l 232 640 b 192 571 200 640 192 629 l 192 531 b 232 461 192 472 200 461 m 386 0 l 264 0 l 575 733 l 696 733 m 713 -1 b 551 169 590 -1 551 38 l 551 200 b 713 371 551 332 590 371 l 731 371 b 892 200 853 371 892 332 l 892 169 b 731 -1 892 38 853 -1 m 726 96 b 767 165 758 96 767 107 l 767 206 b 726 275 767 264 758 275 l 717 275 b 676 206 685 275 676 264 l 676 165 b 717 96 676 107 685 96 "},"":{"ha":899,"x_min":0,"x_max":0,"o":"m 875 115 l 776 -7 l 696 49 b 397 -11 660 1 575 -11 l 381 -11 b 78 208 111 -11 78 31 l 78 229 b 193 411 78 349 118 394 b 128 561 142 456 128 500 l 128 574 b 400 744 128 707 185 744 l 419 744 b 699 533 664 744 699 706 l 699 518 l 524 518 l 524 539 b 426 603 524 590 510 603 l 410 603 b 322 561 332 603 322 588 l 322 551 b 388 461 322 529 328 506 l 575 322 l 575 410 l 738 410 l 738 385 b 735 210 738 332 736 263 b 875 115 776 182 821 150 m 396 139 b 542 156 478 139 522 139 l 315 314 b 267 246 285 308 267 293 l 267 231 b 388 139 267 150 285 139 "},"":{"ha":660,"x_min":0,"x_max":0,"o":"m 418 0 l 208 0 l 208 188 l 418 188 m 404 249 l 218 249 l 218 288 b 340 447 218 389 247 422 b 424 525 419 468 424 488 l 424 533 b 336 597 424 585 407 597 l 321 597 b 226 507 242 597 226 586 l 226 478 l 47 478 l 47 507 b 324 744 47 710 100 744 l 339 744 b 614 544 553 744 614 711 l 614 525 b 471 331 614 414 585 369 b 404 267 408 314 404 303 "},"":{"ha":828,"x_min":0,"x_max":0,"o":"m 817 0 l 586 0 l 546 139 l 276 139 l 236 0 l 11 0 l 268 733 l 558 733 m 500 290 l 414 582 l 410 582 l 322 290 "},"":{"ha":801,"x_min":0,"x_max":0,"o":"m 74 0 l 74 733 l 494 733 b 738 538 681 733 738 688 b 650 381 738 444 715 403 l 650 378 b 756 203 722 357 756 313 b 515 0 756 50 692 0 m 469 147 b 544 226 531 147 544 168 b 469 307 544 285 526 307 l 288 307 l 288 147 m 467 440 b 529 515 515 440 529 456 b 467 588 529 572 517 588 l 288 588 l 288 440 "},"":{"ha":813,"x_min":0,"x_max":0,"o":"m 401 -11 b 60 322 128 -11 60 56 l 60 418 b 400 744 60 672 125 744 l 424 744 b 750 503 686 744 750 678 l 750 461 l 538 461 l 538 488 b 428 579 538 553 515 579 l 413 579 b 282 429 304 579 282 551 l 282 314 b 411 157 282 185 304 157 l 425 157 b 542 249 517 157 542 181 l 542 283 l 754 283 l 754 232 b 426 -11 754 42 683 -11 "},"":{"ha":851,"x_min":0,"x_max":0,"o":"m 793 328 b 431 0 793 68 749 0 l 74 0 l 74 733 l 431 733 b 793 413 733 733 793 671 m 417 164 b 572 314 553 164 572 190 l 572 429 b 417 572 572 544 553 572 l 294 572 l 294 164 "},"":{"ha":704,"x_min":0,"x_max":0,"o":"m 660 0 l 74 0 l 74 733 l 649 733 l 649 576 l 293 576 l 293 449 l 624 449 l 624 300 l 293 300 l 293 160 l 660 160 "},"":{"ha":657,"x_min":0,"x_max":0,"o":"m 603 260 l 293 260 l 293 0 l 74 0 l 74 733 l 624 733 l 624 572 l 293 572 l 293 414 l 603 414 "},"":{"ha":817,"x_min":0,"x_max":0,"o":"m 408 -11 b 60 324 119 -11 60 61 l 60 418 b 408 744 60 672 125 744 l 431 744 b 751 519 682 744 751 678 l 751 490 l 539 490 l 539 504 b 428 582 539 554 524 582 l 413 582 b 279 429 306 582 279 554 l 279 315 b 414 154 279 182 306 154 l 429 154 b 554 236 529 154 554 169 l 554 264 l 411 264 l 411 406 l 757 406 l 757 260 b 431 -11 757 42 696 -11 "},"":{"ha":840,"x_min":0,"x_max":0,"o":"m 767 0 l 546 0 l 546 288 l 294 288 l 294 0 l 74 0 l 74 733 l 294 733 l 294 463 l 546 463 l 546 733 l 767 733 "},"":{"ha":368,"x_min":0,"x_max":0,"o":"m 294 0 l 74 0 l 74 733 l 294 733 "},"":{"ha":694,"x_min":0,"x_max":0,"o":"m 310 -10 b 40 231 82 -10 40 40 l 40 307 l 240 307 l 240 257 b 319 158 240 171 253 158 l 333 158 b 403 236 390 158 403 172 l 403 733 l 624 733 l 624 247 b 335 -10 624 38 571 -10 "},"":{"ha":807,"x_min":0,"x_max":0,"o":"m 797 0 l 526 0 l 335 299 l 290 299 l 290 0 l 74 0 l 74 733 l 290 733 l 290 454 l 338 454 l 519 733 l 772 733 l 522 381 "},"":{"ha":617,"x_min":0,"x_max":0,"o":"m 597 0 l 74 0 l 74 733 l 294 733 l 294 167 l 597 167 "},"":{"ha":1100,"x_min":0,"x_max":0,"o":"m 1026 0 l 819 0 l 826 539 l 824 539 l 644 0 l 451 0 l 276 539 l 272 539 l 279 0 l 74 0 l 74 733 l 388 733 l 550 197 l 553 197 l 724 733 l 1026 733 "},"":{"ha":899,"x_min":0,"x_max":0,"o":"m 825 0 l 519 0 l 274 551 l 271 551 l 276 0 l 74 0 l 74 733 l 383 733 l 624 178 l 628 178 l 622 733 l 825 733 "},"":{"ha":849,"x_min":0,"x_max":0,"o":"m 411 -11 b 60 315 133 -11 60 65 l 60 418 b 411 744 60 668 133 744 l 438 744 b 789 418 714 744 789 668 l 789 315 b 438 -11 789 65 714 -11 m 433 158 b 565 325 540 158 565 193 l 565 413 b 433 579 565 544 540 579 l 415 579 b 283 413 308 579 283 544 l 283 325 b 415 158 283 193 308 158 "},"":{"ha":775,"x_min":0,"x_max":0,"o":"m 404 351 b 511 451 500 351 511 374 l 511 478 b 403 579 511 561 499 579 l 290 579 l 290 351 m 290 0 l 74 0 l 74 733 l 417 733 b 726 486 667 733 726 688 l 726 444 b 425 196 726 244 660 196 l 290 196 "},"":{"ha":856,"x_min":0,"x_max":0,"o":"m 411 -11 b 60 315 133 -11 60 65 l 60 418 b 411 744 60 668 133 744 l 438 744 b 786 418 714 744 786 668 l 786 315 b 768 149 786 247 781 193 l 846 103 l 768 -18 l 694 42 b 438 -11 642 3 558 -11 m 571 413 b 433 582 571 547 543 582 l 415 582 b 278 413 306 582 278 547 l 278 325 b 415 156 278 193 306 156 l 433 156 b 514 168 468 156 494 158 l 396 240 l 478 350 l 571 282 "},"":{"ha":793,"x_min":0,"x_max":0,"o":"m 413 376 b 517 465 500 376 517 394 l 517 489 b 411 579 517 563 500 579 l 290 579 l 290 376 m 735 0 l 517 0 l 517 113 b 381 229 517 214 499 229 l 290 229 l 290 0 l 74 0 l 74 733 l 456 733 b 735 519 683 733 735 686 l 735 493 b 643 314 735 392 708 338 l 643 311 b 735 125 717 297 735 253 "},"":{"ha":775,"x_min":0,"x_max":0,"o":"m 383 -10 b 57 203 106 -10 57 39 l 57 238 l 267 238 l 267 211 b 381 149 267 163 283 149 l 403 149 b 514 213 504 149 514 163 l 514 222 b 356 299 514 268 497 285 b 60 519 103 322 60 368 l 60 540 b 353 744 60 689 125 744 l 388 744 b 704 549 657 744 704 692 l 704 511 l 500 511 l 500 538 b 403 589 500 572 488 589 l 379 589 b 268 538 282 589 268 575 l 268 524 b 425 456 268 482 279 468 b 725 238 675 435 725 385 l 725 214 b 415 -10 725 44 667 -10 "},"":{"ha":682,"x_min":0,"x_max":0,"o":"m 451 0 l 231 0 l 231 568 l 22 568 l 22 733 l 660 733 l 660 568 l 451 568 "},"":{"ha":835,"x_min":0,"x_max":0,"o":"m 407 -10 b 71 260 129 -10 71 47 l 71 733 l 292 733 l 292 278 b 410 160 292 179 310 160 l 426 160 b 543 278 526 160 543 179 l 543 733 l 764 733 l 764 260 b 429 -10 764 47 708 -10 "},"":{"ha":797,"x_min":0,"x_max":0,"o":"m 540 0 l 260 0 l 11 733 l 244 733 l 400 192 l 406 192 l 564 733 l 786 733 "},"":{"ha":1119,"x_min":0,"x_max":0,"o":"m 932 0 l 671 0 l 564 522 l 560 522 l 453 0 l 189 0 l 17 733 l 239 733 l 329 186 l 332 186 l 443 733 l 682 733 l 794 186 l 797 186 l 888 733 l 1103 733 "},"":{"ha":808,"x_min":0,"x_max":0,"o":"m 792 0 l 535 0 l 404 268 l 272 0 l 17 0 l 242 378 l 38 733 l 286 733 l 406 485 l 525 733 l 769 733 l 565 378 "},"":{"ha":765,"x_min":0,"x_max":0,"o":"m 493 0 l 272 0 l 272 238 l 8 733 l 246 733 l 385 413 l 388 413 l 519 733 l 757 733 l 493 238 "},"":{"ha":732,"x_min":0,"x_max":0,"o":"m 678 0 l 54 0 l 54 156 l 404 575 l 404 578 l 64 578 l 64 733 l 669 733 l 669 576 l 318 161 l 318 158 l 678 158 "},"":{"ha":828,"x_min":0,"x_max":0,"o":"m 817 0 l 586 0 l 546 139 l 276 139 l 236 0 l 11 0 l 268 733 l 558 733 m 500 290 l 414 582 l 410 582 l 322 290 m 468 792 l 178 921 l 269 1058 l 519 864 "},"":{"ha":828,"x_min":0,"x_max":0,"o":"m 817 0 l 586 0 l 546 139 l 276 139 l 236 0 l 11 0 l 268 733 l 558 733 m 500 290 l 414 582 l 410 582 l 322 290 m 349 792 l 297 864 l 546 1058 l 639 921 "},"":{"ha":828,"x_min":0,"x_max":0,"o":"m 817 0 l 586 0 l 546 139 l 276 139 l 236 0 l 11 0 l 268 733 l 558 733 m 500 290 l 414 582 l 410 582 l 322 290 m 569 803 l 414 894 l 258 803 l 190 878 l 414 1051 l 638 878 "},"":{"ha":828,"x_min":0,"x_max":0,"o":"m 817 0 l 586 0 l 546 139 l 276 139 l 236 0 l 11 0 l 268 733 l 558 733 m 500 290 l 414 582 l 410 582 l 322 290 m 617 993 b 490 824 613 890 581 824 b 403 850 454 824 429 836 b 336 874 379 864 358 874 b 288 822 311 874 292 863 l 206 842 b 329 1008 208 939 244 1008 b 415 982 363 1008 388 997 b 486 956 440 968 464 956 b 532 1011 514 956 531 975 "},"":{"ha":828,"x_min":0,"x_max":0,"o":"m 817 0 l 586 0 l 546 139 l 276 139 l 236 0 l 11 0 l 268 733 l 558 733 m 500 290 l 414 582 l 410 582 l 322 290 m 356 831 l 169 831 l 169 1003 l 356 1003 m 658 831 l 472 831 l 472 1003 l 658 1003 "},"":{"ha":828,"x_min":0,"x_max":0,"o":"m 817 0 l 586 0 l 546 139 l 276 139 l 236 0 l 11 0 l 268 733 l 558 733 m 500 290 l 414 582 l 410 582 l 322 290 m 411 799 b 250 919 286 799 250 831 l 250 928 b 411 1047 250 1015 286 1047 l 417 1047 b 578 928 542 1047 578 1015 l 578 919 b 417 799 578 831 542 799 m 417 865 b 492 918 478 865 492 876 l 492 926 b 417 979 492 968 478 979 l 411 979 b 336 926 350 979 336 968 l 336 918 b 411 865 336 876 350 865 "},"":{"ha":828,"x_min":0,"x_max":0,"o":"m 817 0 l 586 0 l 546 139 l 276 139 l 236 0 l 11 0 l 268 733 l 558 733 m 500 290 l 414 582 l 410 582 l 322 290 m 615 853 l 213 853 l 213 983 l 615 983 "},"":{"ha":828,"x_min":0,"x_max":0,"o":"m 817 0 l 586 0 l 546 139 l 276 139 l 236 0 l 11 0 l 268 733 l 558 733 m 500 290 l 414 582 l 410 582 l 322 290 m 643 1007 b 414 807 643 871 553 807 b 185 1007 275 807 185 874 l 292 1007 b 414 933 301 949 343 933 b 536 1007 485 933 525 949 "},"":{"ha":828,"x_min":0,"x_max":0,"o":"m 817 0 l 779 0 b 675 -126 714 -32 675 -81 b 731 -172 675 -161 693 -172 b 806 -164 756 -172 785 -168 l 806 -265 b 681 -286 771 -278 726 -286 b 536 -171 586 -286 536 -253 b 643 0 536 -100 575 -51 l 586 0 l 546 139 l 276 139 l 236 0 l 11 0 l 268 733 l 558 733 m 500 290 l 414 582 l 410 582 l 322 290 "},"":{"ha":1186,"x_min":0,"x_max":0,"o":"m 1142 0 l 560 0 l 560 139 l 303 139 l 240 0 l 8 0 l 371 733 l 1131 733 l 1131 576 l 775 576 l 775 449 l 1106 449 l 1106 300 l 775 300 l 775 160 l 1142 160 m 560 290 l 560 578 l 504 578 l 374 290 "},"":{"ha":813,"x_min":0,"x_max":0,"o":"m 401 -11 b 60 322 128 -11 60 56 l 60 418 b 400 744 60 672 125 744 l 424 744 b 750 503 686 744 750 678 l 750 461 l 538 461 l 538 488 b 428 579 538 553 515 579 l 413 579 b 282 429 304 579 282 551 l 282 314 b 411 157 282 185 304 157 l 425 157 b 542 249 517 157 542 181 l 542 283 l 754 283 l 754 232 b 426 -11 754 42 683 -11 m 332 792 l 281 864 l 529 1058 l 622 921 "},"":{"ha":813,"x_min":0,"x_max":0,"o":"m 401 -11 b 60 322 128 -11 60 56 l 60 418 b 400 744 60 672 125 744 l 424 744 b 750 503 686 744 750 678 l 750 461 l 538 461 l 538 488 b 428 579 538 553 515 579 l 413 579 b 282 429 304 579 282 551 l 282 314 b 411 157 282 185 304 157 l 425 157 b 542 249 517 157 542 181 l 542 283 l 754 283 l 754 232 b 426 -11 754 42 683 -11 m 565 803 l 410 894 l 254 803 l 186 878 l 410 1051 l 633 878 "},"":{"ha":813,"x_min":0,"x_max":0,"o":"m 401 -11 b 60 322 128 -11 60 56 l 60 418 b 400 744 60 672 125 744 l 424 744 b 750 503 686 744 750 678 l 750 461 l 538 461 l 538 488 b 428 579 538 553 515 579 l 413 579 b 282 429 304 579 282 551 l 282 314 b 411 157 282 185 304 157 l 425 157 b 542 249 517 157 542 181 l 542 283 l 754 283 l 754 232 b 426 -11 754 42 683 -11 m 410 782 l 186 956 l 254 1031 l 410 939 l 565 1031 l 633 956 "},"":{"ha":813,"x_min":0,"x_max":0,"o":"m 401 -11 b 60 322 128 -11 60 56 l 60 418 b 400 744 60 672 125 744 l 424 744 b 750 503 686 744 750 678 l 750 461 l 538 461 l 538 488 b 428 579 538 553 515 579 l 413 579 b 282 429 304 579 282 551 l 282 314 b 411 157 282 185 304 157 l 425 157 b 542 249 517 157 542 181 l 542 283 l 754 283 l 754 232 b 426 -11 754 42 683 -11 m 517 831 l 296 831 l 296 1003 l 517 1003 "},"":{"ha":813,"x_min":0,"x_max":0,"o":"m 401 -11 b 60 322 128 -11 60 56 l 60 418 b 400 744 60 672 125 744 l 424 744 b 750 503 686 744 750 678 l 750 461 l 538 461 l 538 488 b 428 579 538 553 515 579 l 413 579 b 282 429 304 579 282 551 l 282 314 b 411 157 282 185 304 157 l 425 157 b 542 249 517 157 542 181 l 542 283 l 754 283 l 754 232 b 426 -11 754 42 683 -11 m 264 -294 l 203 -225 l 431 -12 l 542 -136 "},"":{"ha":851,"x_min":0,"x_max":0,"o":"m 793 328 b 431 0 793 68 749 0 l 74 0 l 74 733 l 431 733 b 793 413 733 733 793 671 m 417 164 b 572 314 553 164 572 190 l 572 429 b 417 572 572 544 553 572 l 294 572 l 294 164 m 415 782 l 192 956 l 260 1031 l 415 939 l 571 1031 l 639 956 "},"":{"ha":851,"x_min":0,"x_max":0,"o":"m 14 431 l 74 431 l 74 733 l 431 733 b 793 413 733 733 793 671 l 793 328 b 431 0 793 68 749 0 l 74 0 l 74 310 l 14 310 m 417 164 b 572 314 553 164 572 190 l 572 429 b 417 572 572 544 553 572 l 294 572 l 294 431 l 408 431 l 408 310 l 294 310 l 294 164 "},"":{"ha":851,"x_min":0,"x_max":0,"o":"m 14 431 l 74 431 l 74 733 l 431 733 b 793 413 733 733 793 671 l 793 328 b 431 0 793 68 749 0 l 74 0 l 74 310 l 14 310 m 417 164 b 572 314 553 164 572 190 l 572 429 b 417 572 572 544 553 572 l 294 572 l 294 431 l 408 431 l 408 310 l 294 310 l 294 164 "},"":{"ha":704,"x_min":0,"x_max":0,"o":"m 660 0 l 74 0 l 74 733 l 649 733 l 649 576 l 293 576 l 293 449 l 624 449 l 624 300 l 293 300 l 293 160 l 660 160 m 460 792 l 169 921 l 261 1058 l 511 864 "},"":{"ha":704,"x_min":0,"x_max":0,"o":"m 660 0 l 74 0 l 74 733 l 649 733 l 649 576 l 293 576 l 293 449 l 624 449 l 624 300 l 293 300 l 293 160 l 660 160 m 251 792 l 200 864 l 449 1058 l 542 921 "},"":{"ha":704,"x_min":0,"x_max":0,"o":"m 660 0 l 74 0 l 74 733 l 649 733 l 649 576 l 293 576 l 293 449 l 624 449 l 624 300 l 293 300 l 293 160 l 660 160 m 518 803 l 363 894 l 207 803 l 139 878 l 363 1051 l 586 878 "},"":{"ha":704,"x_min":0,"x_max":0,"o":"m 660 0 l 74 0 l 74 733 l 649 733 l 649 576 l 293 576 l 293 449 l 624 449 l 624 300 l 293 300 l 293 160 l 660 160 m 361 782 l 138 956 l 206 1031 l 361 939 l 517 1031 l 585 956 "},"":{"ha":704,"x_min":0,"x_max":0,"o":"m 660 0 l 74 0 l 74 733 l 649 733 l 649 576 l 293 576 l 293 449 l 624 449 l 624 300 l 293 300 l 293 160 l 660 160 m 300 831 l 114 831 l 114 1003 l 300 1003 m 603 831 l 417 831 l 417 1003 l 603 1003 "},"":{"ha":704,"x_min":0,"x_max":0,"o":"m 660 0 l 74 0 l 74 733 l 649 733 l 649 576 l 293 576 l 293 449 l 624 449 l 624 300 l 293 300 l 293 160 l 660 160 m 469 831 l 249 831 l 249 1003 l 469 1003 "},"":{"ha":704,"x_min":0,"x_max":0,"o":"m 660 0 l 74 0 l 74 733 l 649 733 l 649 576 l 293 576 l 293 449 l 624 449 l 624 300 l 293 300 l 293 160 l 660 160 m 561 853 l 158 853 l 158 983 l 561 983 "},"":{"ha":704,"x_min":0,"x_max":0,"o":"m 660 0 l 74 0 l 74 733 l 649 733 l 649 576 l 293 576 l 293 449 l 624 449 l 624 300 l 293 300 l 293 160 l 660 160 m 589 1007 b 360 807 589 871 499 807 b 131 1007 221 807 131 874 l 238 1007 b 360 933 247 949 289 933 b 482 1007 431 933 471 949 "},"":{"ha":704,"x_min":0,"x_max":0,"o":"m 631 -265 b 506 -286 594 -278 553 -286 b 361 -171 413 -286 361 -253 b 471 0 361 -100 404 -49 l 74 0 l 74 733 l 649 733 l 649 576 l 293 576 l 293 449 l 624 449 l 624 300 l 293 300 l 293 160 l 660 160 l 660 0 l 606 0 b 500 -126 540 -32 500 -81 b 557 -172 500 -161 519 -172 b 631 -164 582 -172 610 -168 "},"":{"ha":817,"x_min":0,"x_max":0,"o":"m 408 -11 b 60 324 119 -11 60 61 l 60 418 b 408 744 60 672 125 744 l 431 744 b 751 519 682 744 751 678 l 751 490 l 539 490 l 539 504 b 428 582 539 554 524 582 l 413 582 b 279 429 306 582 279 554 l 279 315 b 414 154 279 182 306 154 l 429 154 b 554 236 529 154 554 169 l 554 264 l 411 264 l 411 406 l 757 406 l 757 260 b 431 -11 757 42 696 -11 m 564 803 l 408 894 l 253 803 l 185 878 l 408 1051 l 632 878 "},"":{"ha":817,"x_min":0,"x_max":0,"o":"m 408 -11 b 60 324 119 -11 60 61 l 60 418 b 408 744 60 672 125 744 l 431 744 b 751 519 682 744 751 678 l 751 490 l 539 490 l 539 504 b 428 582 539 554 524 582 l 413 582 b 279 429 306 582 279 554 l 279 315 b 414 154 279 182 306 154 l 429 154 b 554 236 529 154 554 169 l 554 264 l 411 264 l 411 406 l 757 406 l 757 260 b 431 -11 757 42 696 -11 m 519 831 l 299 831 l 299 1003 l 519 1003 "},"":{"ha":817,"x_min":0,"x_max":0,"o":"m 408 -11 b 60 324 119 -11 60 61 l 60 418 b 408 744 60 672 125 744 l 431 744 b 751 519 682 744 751 678 l 751 490 l 539 490 l 539 504 b 428 582 539 554 524 582 l 413 582 b 279 429 306 582 279 554 l 279 315 b 414 154 279 182 306 154 l 429 154 b 554 236 529 154 554 169 l 554 264 l 411 264 l 411 406 l 757 406 l 757 260 b 431 -11 757 42 696 -11 m 638 1007 b 408 807 638 871 547 807 b 179 1007 269 807 179 874 l 286 1007 b 408 933 296 949 338 933 b 531 1007 479 933 519 949 "},"":{"ha":817,"x_min":0,"x_max":0,"o":"m 408 -11 b 60 324 119 -11 60 61 l 60 418 b 408 744 60 672 125 744 l 431 744 b 751 519 682 744 751 678 l 751 490 l 539 490 l 539 504 b 428 582 539 554 524 582 l 413 582 b 279 429 306 582 279 554 l 279 315 b 414 154 279 182 306 154 l 429 154 b 554 236 529 154 554 169 l 554 264 l 411 264 l 411 406 l 757 406 l 757 260 b 431 -11 757 42 696 -11 m 508 -203 b 308 -358 508 -318 469 -358 l 308 -282 b 388 -221 369 -282 388 -267 l 388 -211 l 329 -211 l 329 -68 l 508 -68 "},"":{"ha":840,"x_min":0,"x_max":0,"o":"m 767 0 l 546 0 l 546 288 l 294 288 l 294 0 l 74 0 l 74 733 l 294 733 l 294 463 l 546 463 l 546 733 l 767 733 m 575 803 l 419 894 l 264 803 l 196 878 l 419 1051 l 643 878 "},"":{"ha":840,"x_min":0,"x_max":0,"o":"m 767 0 l 546 0 l 546 288 l 294 288 l 294 0 l 74 0 l 74 539 l 26 539 l 26 650 l 74 650 l 74 733 l 294 733 l 294 650 l 546 650 l 546 733 l 767 733 l 767 650 l 813 650 l 813 539 l 767 539 m 546 463 l 546 539 l 294 539 l 294 463 "},"":{"ha":368,"x_min":0,"x_max":0,"o":"m 294 0 l 74 0 l 74 733 l 294 733 m 235 792 l -56 921 l 36 1058 l 286 864 "},"":{"ha":368,"x_min":0,"x_max":0,"o":"m 294 0 l 74 0 l 74 733 l 294 733 m 139 792 l 88 864 l 336 1058 l 429 921 "},"":{"ha":368,"x_min":0,"x_max":0,"o":"m 294 0 l 74 0 l 74 733 l 294 733 m 339 803 l 183 894 l 28 803 l -40 878 l 183 1051 l 407 878 "},"":{"ha":368,"x_min":0,"x_max":0,"o":"m 294 0 l 74 0 l 74 733 l 294 733 m 389 993 b 263 824 385 890 353 824 b 175 850 226 824 201 836 b 108 874 151 864 131 874 b 60 822 83 874 64 863 l -22 842 b 101 1008 -19 939 17 1008 b 188 982 135 1008 160 997 b 258 956 213 968 236 956 b 304 1011 286 956 303 975 "},"":{"ha":368,"x_min":0,"x_max":0,"o":"m 294 0 l 74 0 l 74 733 l 294 733 m 125 831 l -61 831 l -61 1003 l 125 1003 m 428 831 l 242 831 l 242 1003 l 428 1003 "},"":{"ha":368,"x_min":0,"x_max":0,"o":"m 294 0 l 74 0 l 74 733 l 294 733 m 385 853 l -18 853 l -18 983 l 385 983 "},"":{"ha":368,"x_min":0,"x_max":0,"o":"m 294 0 l 74 0 l 74 733 l 294 733 m 294 831 l 74 831 l 74 1003 l 294 1003 "},"":{"ha":368,"x_min":0,"x_max":0,"o":"m 301 -267 b 181 -286 267 -278 226 -286 b 36 -171 93 -286 36 -258 b 136 0 36 -101 74 -53 l 74 0 l 74 733 l 294 733 l 294 0 l 249 0 b 175 -126 192 -57 175 -94 b 231 -172 175 -161 193 -172 b 301 -165 256 -172 282 -168 "},"":{"ha":694,"x_min":0,"x_max":0,"o":"m 310 -10 b 40 231 82 -10 40 40 l 40 307 l 240 307 l 240 257 b 319 158 240 171 253 158 l 333 158 b 403 236 390 158 403 172 l 403 733 l 624 733 l 624 247 b 335 -10 624 38 571 -10 m 667 803 l 511 894 l 356 803 l 288 878 l 511 1051 l 735 878 "},"":{"ha":807,"x_min":0,"x_max":0,"o":"m 797 0 l 526 0 l 335 299 l 290 299 l 290 0 l 74 0 l 74 733 l 290 733 l 290 454 l 338 454 l 519 733 l 772 733 l 522 381 m 493 -203 b 293 -358 493 -318 454 -358 l 293 -282 b 372 -221 354 -282 372 -267 l 372 -211 l 314 -211 l 314 -68 l 493 -68 "},"":{"ha":617,"x_min":0,"x_max":0,"o":"m 597 0 l 74 0 l 74 733 l 294 733 l 294 167 l 597 167 m 207 792 l 156 864 l 404 1058 l 497 921 "},"":{"ha":617,"x_min":0,"x_max":0,"o":"m 597 0 l 74 0 l 74 733 l 294 733 l 294 167 l 597 167 m 542 610 b 365 424 542 493 496 424 l 365 511 b 424 581 411 518 424 536 l 424 590 l 364 590 l 364 733 l 542 733 "},"":{"ha":617,"x_min":0,"x_max":0,"o":"m 597 0 l 74 0 l 74 733 l 294 733 l 294 167 l 597 167 m 418 -203 b 218 -358 418 -318 379 -358 l 218 -282 b 297 -221 279 -282 297 -267 l 297 -211 l 239 -211 l 239 -68 l 418 -68 "},"":{"ha":636,"x_min":0,"x_max":0,"o":"m 597 0 l 74 0 l 74 733 l 294 733 l 294 167 l 597 167 m 615 335 l 386 335 l 386 564 l 615 564 "},"":{"ha":617,"x_min":0,"x_max":0,"o":"m 597 0 l 74 0 l 74 283 l 14 260 l 14 388 l 74 413 l 74 733 l 294 733 l 294 499 l 440 557 l 440 429 l 294 369 l 294 167 l 597 167 "},"":{"ha":899,"x_min":0,"x_max":0,"o":"m 825 0 l 519 0 l 274 551 l 271 551 l 276 0 l 74 0 l 74 733 l 383 733 l 624 178 l 628 178 l 622 733 l 825 733 m 329 792 l 278 864 l 526 1058 l 619 921 "},"":{"ha":899,"x_min":0,"x_max":0,"o":"m 825 0 l 519 0 l 274 551 l 271 551 l 276 0 l 74 0 l 74 733 l 383 733 l 624 178 l 628 178 l 622 733 l 825 733 m 450 782 l 226 956 l 294 1031 l 450 939 l 606 1031 l 674 956 "},"":{"ha":899,"x_min":0,"x_max":0,"o":"m 825 0 l 519 0 l 274 551 l 271 551 l 276 0 l 74 0 l 74 733 l 383 733 l 624 178 l 628 178 l 622 733 l 825 733 m 656 993 b 529 824 651 890 619 824 b 442 850 493 824 468 836 b 375 874 418 864 397 874 b 326 822 350 874 331 863 l 244 842 b 368 1008 247 939 283 1008 b 454 982 401 1008 426 997 b 525 956 479 968 503 956 b 571 1011 553 956 569 975 "},"":{"ha":899,"x_min":0,"x_max":0,"o":"m 825 0 l 519 0 l 274 551 l 271 551 l 276 0 l 74 0 l 74 733 l 383 733 l 624 178 l 628 178 l 622 733 l 825 733 m 551 -203 b 351 -358 551 -318 513 -358 l 351 -282 b 431 -221 413 -282 431 -267 l 431 -211 l 372 -211 l 372 -68 l 551 -68 "},"":{"ha":849,"x_min":0,"x_max":0,"o":"m 411 -11 b 60 315 133 -11 60 65 l 60 418 b 411 744 60 668 133 744 l 438 744 b 789 418 714 744 789 668 l 789 315 b 438 -11 789 65 714 -11 m 433 158 b 565 325 540 158 565 193 l 565 413 b 433 579 565 544 540 579 l 415 579 b 283 413 308 579 283 544 l 283 325 b 415 158 283 193 308 158 m 535 792 l 244 921 l 336 1058 l 586 864 "},"":{"ha":849,"x_min":0,"x_max":0,"o":"m 411 -11 b 60 315 133 -11 60 65 l 60 418 b 411 744 60 668 133 744 l 438 744 b 789 418 714 744 789 668 l 789 315 b 438 -11 789 65 714 -11 m 433 158 b 565 325 540 158 565 193 l 565 413 b 433 579 565 544 540 579 l 415 579 b 283 413 308 579 283 544 l 283 325 b 415 158 283 193 308 158 m 313 792 l 261 864 l 510 1058 l 603 921 "},"":{"ha":849,"x_min":0,"x_max":0,"o":"m 411 -11 b 60 315 133 -11 60 65 l 60 418 b 411 744 60 668 133 744 l 438 744 b 789 418 714 744 789 668 l 789 315 b 438 -11 789 65 714 -11 m 433 158 b 565 325 540 158 565 193 l 565 413 b 433 579 565 544 540 579 l 415 579 b 283 413 308 579 283 544 l 283 325 b 415 158 283 193 308 158 m 579 803 l 424 894 l 268 803 l 200 878 l 424 1051 l 647 878 "},"":{"ha":849,"x_min":0,"x_max":0,"o":"m 411 -11 b 60 315 133 -11 60 65 l 60 418 b 411 744 60 668 133 744 l 438 744 b 789 418 714 744 789 668 l 789 315 b 438 -11 789 65 714 -11 m 433 158 b 565 325 540 158 565 193 l 565 413 b 433 579 565 544 540 579 l 415 579 b 283 413 308 579 283 544 l 283 325 b 415 158 283 193 308 158 m 629 993 b 503 824 625 890 593 824 b 415 850 467 824 442 836 b 349 874 392 864 371 874 b 300 822 324 874 304 863 l 218 842 b 342 1008 221 939 257 1008 b 428 982 375 1008 400 997 b 499 956 453 968 476 956 b 544 1011 526 956 543 975 "},"":{"ha":849,"x_min":0,"x_max":0,"o":"m 411 -11 b 60 315 133 -11 60 65 l 60 418 b 411 744 60 668 133 744 l 438 744 b 789 418 714 744 789 668 l 789 315 b 438 -11 789 65 714 -11 m 433 158 b 565 325 540 158 565 193 l 565 413 b 433 579 565 544 540 579 l 415 579 b 283 413 308 579 283 544 l 283 325 b 415 158 283 193 308 158 m 365 831 l 179 831 l 179 1003 l 365 1003 m 668 831 l 482 831 l 482 1003 l 668 1003 "},"":{"ha":849,"x_min":0,"x_max":0,"o":"m 411 -11 b 60 315 133 -11 60 65 l 60 418 b 411 744 60 668 133 744 l 438 744 b 789 418 714 744 789 668 l 789 315 b 438 -11 789 65 714 -11 m 433 158 b 565 325 540 158 565 193 l 565 413 b 433 579 565 544 540 579 l 415 579 b 283 413 308 579 283 544 l 283 325 b 415 158 283 193 308 158 m 625 853 l 222 853 l 222 983 l 625 983 "},"":{"ha":849,"x_min":0,"x_max":0,"o":"m 411 -11 b 60 315 133 -11 60 65 l 60 418 b 411 744 60 668 133 744 l 438 744 b 789 418 714 744 789 668 l 789 315 b 438 -11 789 65 714 -11 m 433 158 b 565 325 540 158 565 193 l 565 413 b 433 579 565 544 540 579 l 415 579 b 283 413 308 579 283 544 l 283 325 b 415 158 283 193 308 158 m 653 1007 b 424 807 653 871 563 807 b 194 1007 285 807 194 874 l 301 1007 b 424 933 311 949 353 933 b 546 1007 494 933 535 949 "},"":{"ha":849,"x_min":0,"x_max":0,"o":"m 411 -11 b 60 315 133 -11 60 65 l 60 418 b 411 744 60 668 133 744 l 438 744 b 789 418 714 744 789 668 l 789 315 b 438 -11 789 65 714 -11 m 433 158 b 565 325 540 158 565 193 l 565 413 b 433 579 565 544 540 579 l 415 579 b 283 413 308 579 283 544 l 283 325 b 415 158 283 193 308 158 m 286 793 l 228 863 l 418 1054 l 510 956 m 546 793 l 486 863 l 683 1054 l 775 956 "},"":{"ha":846,"x_min":0,"x_max":0,"o":"m 410 -11 b 156 38 290 -11 210 3 l 88 -31 l 29 31 l 97 100 b 60 315 69 150 60 221 l 60 418 b 410 744 60 668 132 744 l 436 744 b 683 699 550 744 629 731 l 747 761 l 806 700 l 743 638 b 786 418 774 588 786 517 l 786 315 b 436 -11 786 65 713 -11 m 569 464 l 304 188 b 414 156 325 164 360 156 l 432 156 b 569 325 542 156 569 190 m 432 582 l 414 582 b 276 413 304 582 276 547 l 276 281 l 538 551 b 432 582 521 574 497 582 "},"":{"ha":1183,"x_min":0,"x_max":0,"o":"m 1139 0 l 563 0 l 563 49 l 561 49 b 381 -11 531 7 457 -11 l 360 -11 b 60 324 122 -11 60 53 l 60 418 b 361 744 60 675 128 744 l 383 744 b 561 688 479 744 531 725 l 563 688 l 563 733 l 1128 733 l 1128 576 l 772 576 l 772 449 l 1103 449 l 1103 300 l 772 300 l 772 160 l 1139 160 m 563 413 b 431 579 563 544 538 579 l 411 579 b 279 413 304 579 279 544 l 279 325 b 411 158 279 193 304 158 l 431 158 b 563 325 538 158 563 193 "},"":{"ha":793,"x_min":0,"x_max":0,"o":"m 413 376 b 517 465 500 376 517 394 l 517 489 b 411 579 517 563 500 579 l 290 579 l 290 376 m 735 0 l 517 0 l 517 113 b 381 229 517 214 499 229 l 290 229 l 290 0 l 74 0 l 74 733 l 456 733 b 735 519 683 733 735 686 l 735 493 b 643 314 735 392 708 338 l 643 311 b 735 125 717 297 735 253 m 303 792 l 251 864 l 500 1058 l 593 921 "},"":{"ha":793,"x_min":0,"x_max":0,"o":"m 413 376 b 517 465 500 376 517 394 l 517 489 b 411 579 517 563 500 579 l 290 579 l 290 376 m 735 0 l 517 0 l 517 113 b 381 229 517 214 499 229 l 290 229 l 290 0 l 74 0 l 74 733 l 456 733 b 735 519 683 733 735 686 l 735 493 b 643 314 735 392 708 338 l 643 311 b 735 125 717 297 735 253 m 499 -203 b 299 -358 499 -318 460 -358 l 299 -282 b 378 -221 360 -282 378 -267 l 378 -211 l 319 -211 l 319 -68 l 499 -68 "},"":{"ha":793,"x_min":0,"x_max":0,"o":"m 413 376 b 517 465 500 376 517 394 l 517 489 b 411 579 517 563 500 579 l 290 579 l 290 376 m 735 0 l 517 0 l 517 113 b 381 229 517 214 499 229 l 290 229 l 290 0 l 74 0 l 74 733 l 456 733 b 735 519 683 733 735 686 l 735 493 b 643 314 735 392 708 338 l 643 311 b 735 125 717 297 735 253 m 400 782 l 176 956 l 244 1031 l 400 939 l 556 1031 l 624 956 "},"":{"ha":775,"x_min":0,"x_max":0,"o":"m 383 -10 b 57 203 106 -10 57 39 l 57 238 l 267 238 l 267 211 b 381 149 267 163 283 149 l 403 149 b 514 213 504 149 514 163 l 514 222 b 356 299 514 268 497 285 b 60 519 103 322 60 368 l 60 540 b 353 744 60 689 125 744 l 388 744 b 704 549 657 744 704 692 l 704 511 l 500 511 l 500 538 b 403 589 500 572 488 589 l 379 589 b 268 538 282 589 268 575 l 268 524 b 425 456 268 482 279 468 b 725 238 675 435 725 385 l 725 214 b 415 -10 725 44 667 -10 m 285 792 l 233 864 l 482 1058 l 575 921 "},"":{"ha":775,"x_min":0,"x_max":0,"o":"m 383 -10 b 57 203 106 -10 57 39 l 57 238 l 267 238 l 267 211 b 381 149 267 163 283 149 l 403 149 b 514 213 504 149 514 163 l 514 222 b 356 299 514 268 497 285 b 60 519 103 322 60 368 l 60 540 b 353 744 60 689 125 744 l 388 744 b 704 549 657 744 704 692 l 704 511 l 500 511 l 500 538 b 403 589 500 572 488 589 l 379 589 b 268 538 282 589 268 575 l 268 524 b 425 456 268 482 279 468 b 725 238 675 435 725 385 l 725 214 b 415 -10 725 44 667 -10 m 546 803 l 390 894 l 235 803 l 167 878 l 390 1051 l 614 878 "},"":{"ha":775,"x_min":0,"x_max":0,"o":"m 383 -10 b 57 203 106 -10 57 39 l 57 238 l 267 238 l 267 211 b 381 149 267 163 283 149 l 403 149 b 514 213 504 149 514 163 l 514 222 b 356 299 514 268 497 285 b 60 519 103 322 60 368 l 60 540 b 353 744 60 689 125 744 l 388 744 b 704 549 657 744 704 692 l 704 511 l 500 511 l 500 538 b 403 589 500 572 488 589 l 379 589 b 268 538 282 589 268 575 l 268 524 b 425 456 268 482 279 468 b 725 238 675 435 725 385 l 725 214 b 415 -10 725 44 667 -10 m 388 782 l 164 956 l 232 1031 l 388 939 l 543 1031 l 611 956 "},"":{"ha":775,"x_min":0,"x_max":0,"o":"m 383 -10 b 57 203 106 -10 57 39 l 57 238 l 267 238 l 267 211 b 381 149 267 163 283 149 l 403 149 b 514 213 504 149 514 163 l 514 222 b 356 299 514 268 497 285 b 60 519 103 322 60 368 l 60 540 b 353 744 60 689 125 744 l 388 744 b 704 549 657 744 704 692 l 704 511 l 500 511 l 500 538 b 403 589 500 572 488 589 l 379 589 b 268 538 282 589 268 575 l 268 524 b 425 456 268 482 279 468 b 725 238 675 435 725 385 l 725 214 b 415 -10 725 44 667 -10 m 244 -294 l 183 -225 l 411 -12 l 522 -136 "},"":{"ha":775,"x_min":0,"x_max":0,"o":"m 383 -10 b 57 203 106 -10 57 39 l 57 238 l 267 238 l 267 211 b 381 149 267 163 283 149 l 403 149 b 514 213 504 149 514 163 l 514 222 b 356 299 514 268 497 285 b 60 519 103 322 60 368 l 60 540 b 353 744 60 689 125 744 l 388 744 b 704 549 657 744 704 692 l 704 511 l 500 511 l 500 538 b 403 589 500 572 488 589 l 379 589 b 268 538 282 589 268 575 l 268 524 b 425 456 268 482 279 468 b 725 238 675 435 725 385 l 725 214 b 415 -10 725 44 667 -10 m 492 -203 b 292 -358 492 -318 453 -358 l 292 -282 b 371 -221 353 -282 371 -267 l 371 -211 l 313 -211 l 313 -68 l 492 -68 "},"":{"ha":1550,"x_min":0,"x_max":0,"o":"m 383 -10 b 57 203 106 -10 57 39 l 57 238 l 267 238 l 267 211 b 381 149 267 163 283 149 l 403 149 b 514 213 504 149 514 163 l 514 222 b 356 299 514 268 497 285 b 60 519 103 322 60 368 l 60 540 b 353 744 60 689 125 744 l 388 744 b 704 549 657 744 704 692 l 704 511 l 500 511 l 500 538 b 403 589 500 572 488 589 l 379 589 b 268 538 282 589 268 575 l 268 524 b 425 456 268 482 279 468 b 725 238 675 435 725 385 l 725 214 b 415 -10 725 44 667 -10 m 1158 -10 b 832 203 881 -10 832 39 l 832 238 l 1042 238 l 1042 211 b 1156 149 1042 163 1058 149 l 1178 149 b 1289 213 1279 149 1289 163 l 1289 222 b 1131 299 1289 268 1272 285 b 835 519 878 322 835 368 l 835 540 b 1128 744 835 689 900 744 l 1163 744 b 1479 549 1432 744 1479 692 l 1479 511 l 1275 511 l 1275 538 b 1178 589 1275 572 1263 589 l 1154 589 b 1043 538 1057 589 1043 575 l 1043 524 b 1200 456 1043 482 1054 468 b 1500 238 1450 435 1500 385 l 1500 214 b 1190 -10 1500 44 1442 -10 "},"":{"ha":682,"x_min":0,"x_max":0,"o":"m 451 0 l 231 0 l 231 568 l 22 568 l 22 733 l 660 733 l 660 568 l 451 568 m 342 782 l 118 956 l 186 1031 l 342 939 l 497 1031 l 565 956 "},"":{"ha":682,"x_min":0,"x_max":0,"o":"m 451 0 l 231 0 l 231 568 l 22 568 l 22 733 l 660 733 l 660 568 l 451 568 m 432 -203 b 232 -358 432 -318 393 -358 l 232 -282 b 311 -221 293 -282 311 -267 l 311 -211 l 253 -211 l 253 -68 l 432 -68 "},"":{"ha":682,"x_min":0,"x_max":0,"o":"m 451 0 l 231 0 l 231 358 l 76 358 l 76 474 l 231 474 l 231 568 l 22 568 l 22 733 l 660 733 l 660 568 l 451 568 l 451 474 l 606 474 l 606 358 l 451 358 "},"":{"ha":776,"x_min":0,"x_max":0,"o":"m 290 0 l 74 0 l 74 733 l 290 733 l 290 642 l 415 642 b 726 394 668 642 726 596 l 726 353 b 424 104 726 156 663 104 l 290 104 m 404 260 b 511 360 500 260 511 282 l 511 386 b 403 488 511 469 499 488 l 290 488 l 290 260 "},"":{"ha":835,"x_min":0,"x_max":0,"o":"m 407 -10 b 71 260 129 -10 71 47 l 71 733 l 292 733 l 292 278 b 410 160 292 179 310 160 l 426 160 b 543 278 526 160 543 179 l 543 733 l 764 733 l 764 260 b 429 -10 764 47 708 -10 m 529 792 l 239 921 l 331 1058 l 581 864 "},"":{"ha":835,"x_min":0,"x_max":0,"o":"m 407 -10 b 71 260 129 -10 71 47 l 71 733 l 292 733 l 292 278 b 410 160 292 179 310 160 l 426 160 b 543 278 526 160 543 179 l 543 733 l 764 733 l 764 260 b 429 -10 764 47 708 -10 m 310 792 l 258 864 l 507 1058 l 600 921 "},"":{"ha":835,"x_min":0,"x_max":0,"o":"m 407 -10 b 71 260 129 -10 71 47 l 71 733 l 292 733 l 292 278 b 410 160 292 179 310 160 l 426 160 b 543 278 526 160 543 179 l 543 733 l 764 733 l 764 260 b 429 -10 764 47 708 -10 m 572 803 l 417 894 l 261 803 l 193 878 l 417 1051 l 640 878 "},"":{"ha":835,"x_min":0,"x_max":0,"o":"m 407 -10 b 71 260 129 -10 71 47 l 71 733 l 292 733 l 292 278 b 410 160 292 179 310 160 l 426 160 b 543 278 526 160 543 179 l 543 733 l 764 733 l 764 260 b 429 -10 764 47 708 -10 m 622 993 b 496 824 618 890 586 824 b 408 850 460 824 435 836 b 342 874 385 864 364 874 b 293 822 317 874 297 863 l 211 842 b 335 1008 214 939 250 1008 b 421 982 368 1008 393 997 b 492 956 446 968 469 956 b 538 1011 519 956 536 975 "},"":{"ha":835,"x_min":0,"x_max":0,"o":"m 407 -10 b 71 260 129 -10 71 47 l 71 733 l 292 733 l 292 278 b 410 160 292 179 310 160 l 426 160 b 543 278 526 160 543 179 l 543 733 l 764 733 l 764 260 b 429 -10 764 47 708 -10 m 358 831 l 172 831 l 172 1003 l 358 1003 m 661 831 l 475 831 l 475 1003 l 661 1003 "},"":{"ha":835,"x_min":0,"x_max":0,"o":"m 407 -10 b 71 260 129 -10 71 47 l 71 733 l 292 733 l 292 278 b 410 160 292 179 310 160 l 426 160 b 543 278 526 160 543 179 l 543 733 l 764 733 l 764 260 b 429 -10 764 47 708 -10 m 618 853 l 215 853 l 215 983 l 618 983 "},"":{"ha":835,"x_min":0,"x_max":0,"o":"m 407 -10 b 71 260 129 -10 71 47 l 71 733 l 292 733 l 292 278 b 410 160 292 179 310 160 l 426 160 b 543 278 526 160 543 179 l 543 733 l 764 733 l 764 260 b 429 -10 764 47 708 -10 m 646 1007 b 417 807 646 871 556 807 b 188 1007 278 807 188 874 l 294 1007 b 417 933 304 949 346 933 b 539 1007 488 933 528 949 "},"":{"ha":835,"x_min":0,"x_max":0,"o":"m 407 -10 b 71 260 129 -10 71 47 l 71 733 l 292 733 l 292 278 b 410 160 292 179 310 160 l 426 160 b 543 278 526 160 543 179 l 543 733 l 764 733 l 764 260 b 429 -10 764 47 708 -10 m 414 799 b 253 919 289 799 253 831 l 253 928 b 414 1047 253 1015 289 1047 l 419 1047 b 581 928 544 1047 581 1015 l 581 919 b 419 799 581 831 544 799 m 419 865 b 494 918 481 865 494 876 l 494 926 b 419 979 494 968 481 979 l 414 979 b 339 926 353 979 339 968 l 339 918 b 414 865 339 876 353 865 "},"":{"ha":835,"x_min":0,"x_max":0,"o":"m 407 -10 b 71 260 129 -10 71 47 l 71 733 l 292 733 l 292 278 b 410 160 292 179 310 160 l 426 160 b 543 278 526 160 543 179 l 543 733 l 764 733 l 764 260 b 429 -10 764 47 708 -10 m 261 793 l 203 863 l 393 1054 l 485 956 m 521 793 l 461 863 l 658 1054 l 750 956 "},"":{"ha":835,"x_min":0,"x_max":0,"o":"m 547 -265 b 421 -286 511 -278 468 -286 b 278 -171 325 -286 278 -251 b 372 -10 278 -103 311 -56 b 71 260 125 -4 71 56 l 71 733 l 292 733 l 292 278 b 410 160 292 179 310 160 l 426 160 b 543 278 526 160 543 179 l 543 733 l 764 733 l 764 260 b 494 -8 764 65 717 1 b 417 -126 440 -49 417 -86 b 472 -172 417 -161 435 -172 b 547 -164 497 -172 526 -168 "},"":{"ha":1119,"x_min":0,"x_max":0,"o":"m 932 0 l 671 0 l 564 522 l 560 522 l 453 0 l 189 0 l 17 733 l 239 733 l 329 186 l 332 186 l 443 733 l 682 733 l 794 186 l 797 186 l 888 733 l 1103 733 m 715 803 l 560 894 l 404 803 l 336 878 l 560 1051 l 783 878 "},"":{"ha":765,"x_min":0,"x_max":0,"o":"m 493 0 l 272 0 l 272 238 l 8 733 l 246 733 l 385 413 l 388 413 l 519 733 l 757 733 l 493 238 m 303 792 l 251 864 l 500 1058 l 593 921 "},"":{"ha":765,"x_min":0,"x_max":0,"o":"m 493 0 l 272 0 l 272 238 l 8 733 l 246 733 l 385 413 l 388 413 l 519 733 l 757 733 l 493 238 m 542 803 l 386 894 l 231 803 l 163 878 l 386 1051 l 610 878 "},"":{"ha":765,"x_min":0,"x_max":0,"o":"m 493 0 l 272 0 l 272 238 l 8 733 l 246 733 l 385 413 l 388 413 l 519 733 l 757 733 l 493 238 m 328 831 l 142 831 l 142 1003 l 328 1003 m 631 831 l 444 831 l 444 1003 l 631 1003 "},"":{"ha":732,"x_min":0,"x_max":0,"o":"m 678 0 l 54 0 l 54 156 l 404 575 l 404 578 l 64 578 l 64 733 l 669 733 l 669 576 l 318 161 l 318 158 l 678 158 m 278 792 l 226 864 l 475 1058 l 568 921 "},"":{"ha":732,"x_min":0,"x_max":0,"o":"m 678 0 l 54 0 l 54 156 l 404 575 l 404 578 l 64 578 l 64 733 l 669 733 l 669 576 l 318 161 l 318 158 l 678 158 m 372 782 l 149 956 l 217 1031 l 372 939 l 528 1031 l 596 956 "},"":{"ha":732,"x_min":0,"x_max":0,"o":"m 678 0 l 54 0 l 54 156 l 404 575 l 404 578 l 64 578 l 64 733 l 669 733 l 669 576 l 318 161 l 318 158 l 678 158 m 479 831 l 258 831 l 258 1003 l 479 1003 "},"":{"ha":1046,"x_min":0,"x_max":0,"o":"m 603 260 l 293 260 l 293 0 l 74 0 l 74 733 l 624 733 l 624 572 l 293 572 l 293 414 l 603 414 m 972 0 l 751 0 l 751 733 l 972 733 "},"":{"ha":1294,"x_min":0,"x_max":0,"o":"m 603 260 l 293 260 l 293 0 l 74 0 l 74 733 l 624 733 l 624 572 l 293 572 l 293 414 l 603 414 m 1275 0 l 751 0 l 751 733 l 972 733 l 972 167 l 1275 167 "},"":{"ha":1063,"x_min":0,"x_max":0,"o":"m 294 0 l 74 0 l 74 733 l 294 733 m 678 -10 b 408 231 450 -10 408 40 l 408 307 l 608 307 l 608 257 b 688 158 608 171 621 158 l 701 158 b 771 236 758 158 771 172 l 771 733 l 992 733 l 992 247 b 703 -10 992 38 939 -10 "},"":{"ha":388,"x_min":0,"x_max":0,"o":"m 89 733 l 299 733 l 299 546 l 89 546 m 99 469 l 289 469 l 303 0 l 85 0 "},"":{"ha":667,"x_min":0,"x_max":0,"o":"m 249 733 l 458 733 l 458 546 l 249 546 m 263 485 l 449 485 l 449 446 b 326 286 449 344 419 311 b 243 208 247 265 243 246 l 243 200 b 331 136 243 149 260 136 l 346 136 b 440 226 425 136 440 147 l 440 256 l 619 256 l 619 226 b 343 -11 619 24 567 -11 l 328 -11 b 53 189 114 -11 53 22 l 53 208 b 196 403 53 319 82 364 b 263 467 258 419 263 431 "},"":{"ha":879,"x_min":0,"x_max":0,"o":"m 479 -10 b 154 271 215 -10 160 38 l 65 271 l 65 350 l 153 350 l 153 392 l 65 392 l 65 472 l 154 472 b 481 744 160 701 219 744 l 501 744 b 800 554 753 744 800 699 l 800 526 l 596 526 l 596 539 b 494 589 596 576 575 589 l 481 589 b 371 472 390 589 375 582 l 633 472 l 633 392 l 369 392 l 369 350 l 633 350 l 633 271 l 369 271 b 482 149 374 157 392 149 l 497 149 b 601 201 575 149 601 160 l 601 218 l 807 218 l 807 186 b 500 -10 807 44 753 -10 "},"":{"ha":707,"x_min":0,"x_max":0,"o":"m 404 -33 l 314 -33 l 314 86 b 64 319 118 90 64 146 l 64 392 b 314 625 64 564 115 619 l 314 733 l 404 733 l 404 625 b 643 440 594 622 643 569 l 643 406 l 463 406 l 463 425 b 404 485 463 467 450 483 l 404 229 b 463 288 449 229 463 246 l 463 310 l 643 310 l 643 271 b 404 86 643 140 590 89 m 251 317 b 314 229 251 244 264 231 l 314 485 b 251 396 264 485 251 464 "},"":{"ha":808,"x_min":0,"x_max":0,"o":"m 743 0 l 75 0 l 75 157 b 161 272 138 160 157 182 l 75 272 l 75 414 l 164 414 l 164 457 b 438 744 167 688 225 744 l 467 744 b 726 532 685 744 726 700 l 726 507 l 536 507 l 536 526 b 463 590 536 578 525 590 l 450 590 b 364 482 379 590 365 578 l 364 414 l 599 414 l 599 272 l 360 272 b 276 163 349 214 321 182 l 276 158 l 743 158 "},"":{"ha":794,"x_min":0,"x_max":0,"o":"m 325 507 b 608 744 354 672 438 744 b 749 728 658 744 703 738 l 749 583 b 640 597 719 590 678 597 b 518 464 564 597 536 572 l 514 439 l 703 439 l 703 292 l 489 292 l 460 113 b 175 -118 435 -39 363 -118 b 39 -104 129 -118 72 -112 l 39 43 b 138 26 64 35 107 26 b 264 156 213 26 244 47 l 288 292 l 118 292 l 118 439 l 313 439 "},"":{"ha":803,"x_min":0,"x_max":0,"o":"m 507 0 l 294 0 l 294 196 l 92 196 l 92 299 l 290 299 b 251 367 290 299 289 299 l 92 367 l 92 469 l 193 469 l 44 733 l 274 733 l 401 431 l 404 431 l 528 733 l 758 733 l 608 471 l 710 471 l 710 367 l 549 367 l 511 299 l 710 299 l 710 196 l 507 196 "},"":{"ha":1358,"x_min":0,"x_max":0,"o":"m 228 364 b 67 535 106 364 67 403 l 67 565 b 228 736 67 697 106 736 l 246 736 b 407 565 368 736 407 697 l 407 535 b 246 364 407 403 368 364 m 242 461 b 282 531 274 461 282 472 l 282 571 b 242 640 282 629 274 640 l 232 640 b 192 571 200 640 192 629 l 192 531 b 232 461 192 472 200 461 m 386 0 l 264 0 l 575 733 l 696 733 m 713 -1 b 551 169 590 -1 551 38 l 551 200 b 713 371 551 332 590 371 l 731 371 b 892 200 853 371 892 332 l 892 169 b 731 -1 892 38 853 -1 m 726 96 b 767 165 758 96 767 107 l 767 206 b 726 275 767 264 758 275 l 717 275 b 676 206 685 275 676 264 l 676 165 b 717 96 676 107 685 96 m 1113 -1 b 951 169 990 -1 951 38 l 951 200 b 1113 371 951 332 990 371 l 1131 371 b 1292 200 1253 371 1292 332 l 1292 169 b 1131 -1 1292 38 1253 -1 m 1126 96 b 1167 165 1158 96 1167 107 l 1167 206 b 1126 275 1167 264 1158 275 l 1117 275 b 1076 206 1085 275 1076 264 l 1076 165 b 1117 96 1076 107 1085 96 "},"":{"ha":526,"x_min":0,"x_max":0,"o":"m 433 -11 l 344 -11 b 156 151 214 -11 156 26 l 156 233 b 85 315 156 285 140 315 l 85 424 b 156 506 140 424 156 453 l 156 582 b 344 744 156 706 213 744 l 433 744 l 433 618 l 403 618 b 335 564 346 618 335 606 l 335 510 b 260 371 335 432 326 388 l 260 367 b 335 229 328 353 335 307 l 335 169 b 403 117 335 129 346 117 l 433 117 "},"":{"ha":526,"x_min":0,"x_max":0,"o":"m 93 -11 l 93 117 l 124 117 b 192 169 181 117 192 129 l 192 229 b 268 367 192 307 199 353 l 268 371 b 192 510 201 388 192 432 l 192 564 b 124 618 192 606 181 618 l 93 618 l 93 744 l 182 744 b 371 582 315 744 371 706 l 371 506 b 442 424 371 453 386 424 l 442 315 b 371 233 386 315 371 285 l 371 151 b 182 -11 371 26 313 -11 "},"":{"ha":493,"x_min":0,"x_max":0,"o":"m 400 -11 l 104 -11 l 104 744 l 400 744 l 400 596 l 286 596 l 286 138 l 400 138 "},"":{"ha":493,"x_min":0,"x_max":0,"o":"m 389 -11 l 93 -11 l 93 138 l 207 138 l 207 596 l 93 596 l 93 744 l 389 744 "},"":{"ha":471,"x_min":0,"x_max":0,"o":"m 378 -11 l 353 -11 b 85 351 150 -11 85 39 l 85 382 b 353 744 85 694 150 744 l 378 744 l 378 585 l 360 585 b 275 378 299 585 275 560 l 275 356 b 360 150 275 174 299 150 l 378 150 "},"":{"ha":471,"x_min":0,"x_max":0,"o":"m 93 -11 l 93 150 l 111 150 b 196 356 172 150 196 174 l 196 378 b 111 585 196 560 172 585 l 93 585 l 93 744 l 118 744 b 386 382 322 744 386 694 l 386 351 b 118 -11 386 39 322 -11 "},"":{"ha":664,"x_min":0,"x_max":0,"o":"m 276 297 l 72 297 l 72 500 b 296 733 72 665 115 733 l 296 621 b 211 526 226 621 211 589 l 211 513 l 276 513 m 583 297 l 379 297 l 379 500 b 603 733 379 665 422 733 l 603 621 b 518 526 533 621 518 589 l 518 513 l 583 513 "},"":{"ha":664,"x_min":0,"x_max":0,"o":"m 594 531 b 371 297 594 365 551 297 l 371 410 b 456 504 440 410 456 442 l 456 518 l 390 518 l 390 733 l 594 733 m 288 531 b 64 297 288 365 244 297 l 64 410 b 149 504 133 410 149 442 l 149 518 l 83 518 l 83 733 l 288 733 "},"":{"ha":357,"x_min":0,"x_max":0,"o":"m 276 297 l 72 297 l 72 500 b 296 733 72 665 115 733 l 296 621 b 211 526 226 621 211 589 l 211 513 l 276 513 "},"":{"ha":357,"x_min":0,"x_max":0,"o":"m 288 531 b 64 297 288 365 244 297 l 64 410 b 149 504 133 410 149 442 l 149 518 l 83 518 l 83 733 l 288 733 "},"":{"ha":790,"x_min":0,"x_max":0,"o":"m 403 161 b 519 297 497 161 519 186 l 519 442 b 403 576 519 553 497 576 l 389 576 b 272 442 293 576 272 553 l 272 297 b 389 161 272 186 293 161 m 383 -11 b 67 301 124 -11 67 54 l 67 432 b 383 744 67 679 124 744 l 407 744 b 724 432 665 744 724 679 l 724 301 b 407 -11 724 54 665 -11 "},"":{"ha":615,"x_min":0,"x_max":0,"o":"m 490 0 l 281 0 l 281 546 l 278 546 l 124 410 l 18 525 l 249 733 l 490 733 "},"":{"ha":765,"x_min":0,"x_max":0,"o":"m 706 0 l 67 0 l 67 129 b 346 407 67 311 110 361 b 500 506 479 432 500 449 l 500 522 b 389 590 500 575 485 590 l 374 590 b 261 504 274 590 261 574 l 261 476 l 69 476 l 69 499 b 365 744 69 700 121 744 l 381 744 b 704 533 644 744 704 693 l 704 510 b 444 264 704 365 667 304 b 275 171 283 235 275 225 l 275 156 l 706 156 "},"":{"ha":778,"x_min":0,"x_max":0,"o":"m 718 189 b 400 -11 718 36 660 -11 l 378 -11 b 65 217 106 -11 65 32 l 65 254 l 260 254 l 260 221 b 363 147 260 163 276 147 l 376 147 b 508 214 493 147 508 161 l 508 233 b 422 297 508 282 490 297 l 296 297 l 296 443 l 424 443 b 496 507 482 443 496 457 l 496 529 b 378 590 496 576 479 590 l 364 590 b 260 519 275 590 260 574 l 260 486 l 68 486 l 68 521 b 360 744 68 700 107 744 l 382 744 b 704 546 656 744 704 700 l 704 521 b 621 374 704 433 682 394 l 621 371 b 718 217 683 351 718 314 "},"":{"ha":817,"x_min":0,"x_max":0,"o":"m 667 0 l 464 0 l 464 146 l 64 146 l 64 336 l 400 733 l 667 733 l 667 299 l 760 299 l 760 146 l 667 146 m 464 299 l 464 564 l 460 564 l 244 301 l 244 299 "},"":{"ha":771,"x_min":0,"x_max":0,"o":"m 713 221 b 385 -11 713 38 653 -11 l 357 -11 b 68 196 113 -11 68 40 l 68 229 l 261 229 l 261 213 b 382 146 261 161 275 146 l 399 146 b 504 229 493 146 504 161 l 504 261 b 389 344 504 335 494 344 l 367 344 b 269 288 283 344 271 332 l 78 288 l 78 733 l 686 733 l 686 581 l 272 581 l 272 442 l 275 442 b 438 497 300 479 339 497 l 468 497 b 713 289 663 497 713 454 "},"":{"ha":779,"x_min":0,"x_max":0,"o":"m 376 -11 b 67 282 111 -11 67 42 l 67 435 b 382 744 67 696 119 744 l 408 744 b 703 539 664 744 703 704 l 703 515 l 508 515 l 508 528 b 413 589 508 575 499 589 l 396 589 b 274 476 283 589 274 578 l 274 425 l 276 425 b 417 469 299 454 349 469 l 439 469 b 717 256 676 469 717 425 l 717 221 b 406 -11 717 44 663 -11 m 401 146 b 514 226 504 146 514 153 l 514 242 b 401 324 514 314 506 324 l 386 324 b 272 242 281 324 272 314 l 272 226 b 386 146 272 153 281 146 "},"":{"ha":719,"x_min":0,"x_max":0,"o":"m 364 0 l 133 0 l 438 564 l 438 568 l 47 568 l 47 733 l 669 733 l 669 583 "},"":{"ha":779,"x_min":0,"x_max":0,"o":"m 378 -11 b 63 179 113 -11 63 25 l 63 203 b 157 376 63 296 83 351 l 157 378 b 67 536 88 396 67 436 l 67 558 b 378 744 67 704 111 744 l 400 744 b 711 558 668 744 711 704 l 711 536 b 617 376 711 439 689 397 l 617 375 b 717 203 696 353 717 299 l 717 179 b 400 -11 717 25 665 -11 m 394 450 b 508 514 499 450 508 458 l 508 533 b 394 599 508 589 499 599 l 383 599 b 271 533 281 599 271 589 l 271 514 b 383 450 271 458 281 450 m 394 143 b 513 208 501 143 513 154 l 513 236 b 394 301 513 290 501 301 l 385 301 b 267 236 276 301 267 290 l 267 208 b 385 143 267 154 278 143 "},"":{"ha":779,"x_min":0,"x_max":0,"o":"m 369 -11 b 71 196 107 -11 71 32 l 71 219 l 265 219 l 265 207 b 367 146 265 158 275 146 l 382 146 b 506 258 496 146 506 157 l 506 310 l 503 310 b 363 265 479 279 433 265 l 340 265 b 63 478 103 265 63 310 l 63 513 b 375 744 63 689 117 744 l 403 744 b 714 451 669 744 714 693 l 714 299 b 396 -11 714 35 661 -11 m 393 413 b 508 493 499 413 508 422 l 508 510 b 393 590 508 582 499 590 l 378 590 b 265 510 276 590 265 582 l 265 493 b 378 413 265 422 275 413 "},"":{"ha":929,"x_min":0,"x_max":0,"o":"m 474 182 b 633 383 603 182 633 211 l 633 561 b 474 763 633 733 603 763 l 456 763 b 296 561 326 763 296 733 l 296 383 b 456 182 296 211 326 182 m 450 -11 b 68 397 144 -11 68 69 l 68 547 b 450 956 68 875 144 956 l 479 956 b 861 547 785 956 861 875 l 861 397 b 479 -11 861 69 785 -11 "},"":{"ha":929,"x_min":0,"x_max":0,"o":"m 674 0 l 440 0 l 440 731 l 436 731 l 226 549 l 113 696 l 400 944 l 674 944 "},"":{"ha":929,"x_min":0,"x_max":0,"o":"m 853 0 l 86 0 l 86 165 b 422 514 86 383 115 458 b 617 657 594 544 617 568 l 617 679 b 471 778 617 754 603 778 l 453 778 b 306 651 318 778 306 758 l 306 625 l 88 625 l 88 644 b 443 956 88 901 140 956 l 461 956 b 853 688 778 956 853 896 l 853 657 b 536 342 853 444 797 393 b 319 211 326 300 319 286 l 319 182 l 853 182 "},"":{"ha":929,"x_min":0,"x_max":0,"o":"m 860 238 b 468 -11 860 44 785 -11 l 440 -11 b 78 276 129 -11 78 36 l 78 319 l 296 319 l 296 271 b 435 171 296 179 313 171 l 450 171 b 625 261 603 171 625 183 l 625 290 b 510 388 625 367 603 388 l 364 388 l 364 561 l 511 561 b 610 656 589 561 610 583 l 610 686 b 451 775 610 757 586 775 l 436 775 b 296 674 315 775 296 765 l 296 633 l 81 633 l 81 671 b 426 956 81 903 138 956 l 454 956 b 844 704 772 956 844 908 l 844 676 b 710 478 844 543 811 504 l 710 474 b 860 275 815 453 860 418 "},"":{"ha":929,"x_min":0,"x_max":0,"o":"m 768 0 l 544 0 l 544 190 l 56 190 l 56 428 l 460 944 l 768 944 l 768 369 l 882 369 l 882 190 l 768 190 m 544 369 l 544 769 l 540 769 l 249 375 l 249 369 "},"":{"ha":929,"x_min":0,"x_max":0,"o":"m 440 -11 b 83 257 135 -11 83 46 l 83 281 l 297 281 l 297 264 b 460 175 297 188 319 175 l 481 175 b 624 300 610 175 624 199 l 624 326 b 468 456 624 435 614 456 l 442 456 b 310 376 331 456 311 436 l 96 376 l 96 944 l 821 944 l 821 763 l 313 763 l 313 561 l 315 561 b 514 635 344 614 393 635 l 551 635 b 854 371 789 635 854 576 l 854 299 b 474 -11 854 53 786 -11 "},"":{"ha":929,"x_min":0,"x_max":0,"o":"m 449 -11 b 79 361 135 -11 79 50 l 79 563 b 467 956 79 903 144 956 l 496 956 b 833 688 789 956 833 904 l 833 664 l 619 664 l 619 681 b 489 772 619 754 607 772 l 472 772 b 310 603 325 772 310 756 l 310 528 l 313 528 b 496 599 342 574 399 599 l 522 599 b 854 326 796 599 854 550 l 854 279 b 481 -11 854 46 788 -11 m 474 171 b 628 290 614 171 628 189 l 628 311 b 474 425 628 410 614 425 l 463 425 b 307 311 322 425 307 410 l 307 290 b 463 171 307 188 321 171 "},"":{"ha":929,"x_min":0,"x_max":0,"o":"m 469 0 l 210 0 l 579 747 l 579 751 l 100 751 l 100 944 l 840 944 l 840 772 "},"":{"ha":929,"x_min":0,"x_max":0,"o":"m 497 569 b 650 660 642 569 650 585 l 650 690 b 497 785 650 768 642 785 l 486 785 b 332 690 342 785 332 768 l 332 660 b 486 569 332 585 342 569 m 497 167 b 654 260 639 167 654 179 l 654 306 b 497 394 654 382 639 394 l 486 394 b 329 306 344 394 329 382 l 329 260 b 486 167 329 179 344 167 m 478 -11 b 103 219 178 -11 103 21 l 103 250 b 257 481 103 397 136 461 l 257 483 b 108 693 139 503 108 549 l 108 724 b 478 956 108 917 172 956 l 506 956 b 874 724 810 956 874 917 l 874 693 b 718 483 874 551 843 504 l 718 481 b 881 250 846 461 881 400 l 881 219 b 506 -11 881 21 806 -11 "},"":{"ha":929,"x_min":0,"x_max":0,"o":"m 436 -11 b 90 257 142 -11 90 40 l 90 281 l 306 281 l 306 264 b 444 175 306 192 324 175 l 461 175 b 622 342 608 175 622 188 l 622 418 l 619 418 b 436 347 592 372 532 347 l 410 347 b 78 619 140 347 78 400 l 78 665 b 451 956 78 896 144 956 l 483 956 b 853 583 793 956 853 893 l 853 382 b 467 -11 853 42 788 -11 m 471 521 b 625 640 611 521 625 539 l 625 661 b 471 775 625 760 611 775 l 460 775 b 304 661 319 775 304 760 l 304 640 b 460 521 304 538 318 521 "},"":{"ha":457,"x_min":0,"x_max":0,"o":"m 342 428 l 189 428 l 189 810 l 186 810 l 78 726 l 13 824 l 168 944 l 342 944 "},"":{"ha":567,"x_min":0,"x_max":0,"o":"m 521 428 l 57 428 l 57 529 b 265 718 57 651 100 690 b 369 779 363 735 369 746 l 369 799 b 279 842 369 833 357 842 l 271 842 b 196 783 203 842 196 831 l 196 764 l 56 764 l 56 788 b 269 950 56 913 86 950 l 283 950 b 518 800 479 950 518 913 l 518 786 b 313 614 518 682 496 644 b 200 554 219 599 200 588 l 200 540 l 521 540 "},"":{"ha":572,"x_min":0,"x_max":0,"o":"m 272 422 b 53 582 93 422 53 450 l 53 606 l 192 606 l 192 581 b 271 531 192 538 201 531 l 279 531 b 378 574 368 531 378 538 l 378 593 b 317 639 378 628 367 639 l 225 639 l 225 736 l 318 736 b 368 781 360 736 368 746 l 368 801 b 278 842 368 833 358 842 l 269 842 b 192 793 203 842 192 836 l 192 771 l 56 771 l 56 792 b 271 950 56 922 96 950 l 288 950 b 517 815 475 950 517 922 l 517 803 b 450 690 517 726 499 706 l 450 689 b 526 582 503 678 526 654 l 526 563 b 289 422 526 451 474 422 "},"":{"ha":601,"x_min":0,"x_max":0,"o":"m 496 428 l 349 428 l 349 532 l 46 532 l 46 668 l 292 944 l 496 944 l 496 636 l 564 636 l 564 532 l 496 532 m 349 636 l 349 843 l 343 843 l 169 638 l 169 636 "},"":{"ha":569,"x_min":0,"x_max":0,"o":"m 272 422 b 57 569 90 422 57 454 l 57 588 l 190 588 l 190 576 b 268 532 190 542 206 532 l 289 532 b 378 590 369 532 378 539 l 378 608 b 290 672 378 664 369 672 l 268 672 b 199 638 208 672 200 664 l 63 638 l 63 944 l 508 944 l 508 832 l 200 832 l 200 742 l 201 742 b 315 776 218 765 249 776 l 336 776 b 521 618 483 776 521 744 l 521 592 b 294 422 521 461 478 422 "},"":{"ha":574,"x_min":0,"x_max":0,"o":"m 297 531 b 381 588 374 531 381 538 l 381 600 b 297 657 381 649 374 657 l 279 657 b 196 600 203 657 196 649 l 196 588 b 279 531 196 538 203 531 m 274 422 b 53 632 88 422 53 461 l 53 740 b 282 950 53 915 92 950 l 308 950 b 513 807 476 950 513 924 l 513 792 l 375 792 l 375 801 b 303 844 375 836 363 844 l 283 844 b 197 760 207 844 197 833 l 197 726 l 200 726 b 306 760 215 749 247 760 l 328 760 b 524 615 488 760 524 725 l 524 589 b 300 422 524 456 485 422 "},"":{"ha":543,"x_min":0,"x_max":0,"o":"m 275 428 l 110 428 l 317 822 l 317 825 l 46 825 l 46 944 l 492 944 l 492 842 "},"":{"ha":561,"x_min":0,"x_max":0,"o":"m 267 422 b 50 554 83 422 50 450 l 50 575 b 118 689 50 640 68 674 l 118 690 b 51 803 69 706 51 735 l 51 822 b 265 950 51 922 85 950 l 294 950 b 510 822 475 950 510 922 l 510 803 b 443 690 510 735 492 706 l 443 689 b 513 575 493 674 513 640 l 513 554 b 294 422 513 450 478 422 m 292 740 b 368 786 363 740 368 747 l 368 801 b 292 847 368 840 363 847 l 269 847 b 193 801 199 847 193 840 l 193 786 b 269 740 193 747 199 740 m 293 526 b 371 572 364 526 371 533 l 371 597 b 293 642 371 636 364 642 l 269 642 b 192 597 197 642 192 636 l 192 572 b 269 526 192 533 197 526 "},"":{"ha":574,"x_min":0,"x_max":0,"o":"m 294 715 b 378 772 371 715 378 724 l 378 785 b 294 842 378 835 369 842 l 276 842 b 193 785 201 842 193 835 l 193 772 b 276 715 193 724 201 715 m 264 422 b 54 565 89 422 54 449 l 54 581 l 193 581 l 193 571 b 271 528 193 536 201 528 l 289 528 b 376 613 368 528 376 536 l 376 646 l 375 646 b 269 613 357 624 326 613 l 246 613 b 50 761 86 613 50 647 l 50 788 b 275 950 50 917 90 950 l 301 950 b 522 743 486 950 522 911 l 522 635 b 290 422 522 457 482 422 "},"":{"ha":586,"x_min":0,"x_max":0,"o":"m 281 422 b 50 653 88 422 50 472 l 50 725 b 281 950 50 894 88 950 l 306 950 b 536 725 499 950 536 893 l 536 653 b 306 422 536 474 499 422 m 303 536 b 392 644 378 536 392 560 l 392 728 b 303 838 392 814 378 838 l 283 838 b 194 728 208 838 194 814 l 194 644 b 283 536 194 560 208 536 "},"":{"ha":457,"x_min":0,"x_max":0,"o":"m 342 0 l 189 0 l 189 382 l 186 382 l 78 299 l 13 396 l 168 517 l 342 517 "},"":{"ha":567,"x_min":0,"x_max":0,"o":"m 521 0 l 57 0 l 57 101 b 265 290 57 224 100 263 b 369 351 363 307 369 318 l 369 371 b 279 414 369 406 357 414 l 271 414 b 196 356 203 414 196 403 l 196 336 l 56 336 l 56 360 b 269 522 56 485 86 522 l 283 522 b 518 372 479 522 518 485 l 518 358 b 313 186 518 254 496 217 b 200 126 219 171 200 160 l 200 113 l 521 113 "},"":{"ha":572,"x_min":0,"x_max":0,"o":"m 272 -6 b 53 154 93 -6 53 22 l 53 178 l 192 178 l 192 153 b 271 103 192 110 201 103 l 279 103 b 378 146 368 103 378 110 l 378 165 b 317 211 378 200 367 211 l 225 211 l 225 308 l 318 308 b 368 353 360 308 368 318 l 368 374 b 278 414 368 406 358 414 l 269 414 b 192 365 203 414 192 408 l 192 343 l 56 343 l 56 364 b 271 522 56 494 96 522 l 288 522 b 517 388 475 522 517 494 l 517 375 b 450 263 517 299 499 278 l 450 261 b 526 154 503 250 526 226 l 526 135 b 289 -6 526 24 474 -6 "},"":{"ha":601,"x_min":0,"x_max":0,"o":"m 496 0 l 349 0 l 349 104 l 46 104 l 46 240 l 292 517 l 496 517 l 496 208 l 564 208 l 564 104 l 496 104 m 349 208 l 349 415 l 343 415 l 169 210 l 169 208 "},"":{"ha":569,"x_min":0,"x_max":0,"o":"m 272 -6 b 57 142 90 -6 57 26 l 57 160 l 190 160 l 190 149 b 268 104 190 114 206 104 l 289 104 b 378 163 369 104 378 111 l 378 181 b 290 244 378 236 369 244 l 268 244 b 199 210 208 244 200 236 l 63 210 l 63 517 l 508 517 l 508 404 l 200 404 l 200 314 l 201 314 b 315 349 218 338 249 349 l 336 349 b 521 190 483 349 521 317 l 521 164 b 294 -6 521 33 478 -6 "},"":{"ha":574,"x_min":0,"x_max":0,"o":"m 297 103 b 381 160 374 103 381 110 l 381 172 b 297 229 381 221 374 229 l 279 229 b 196 172 203 229 196 221 l 196 160 b 279 103 196 110 203 103 m 274 -6 b 53 204 88 -6 53 33 l 53 313 b 282 522 53 488 92 522 l 308 522 b 513 379 476 522 513 496 l 513 364 l 375 364 l 375 374 b 303 417 375 408 363 417 l 283 417 b 197 332 207 417 197 406 l 197 299 l 200 299 b 306 332 215 321 247 332 l 328 332 b 524 188 488 332 524 297 l 524 161 b 300 -6 524 28 485 -6 "},"":{"ha":543,"x_min":0,"x_max":0,"o":"m 275 0 l 110 0 l 317 394 l 317 397 l 46 397 l 46 517 l 492 517 l 492 414 "},"":{"ha":561,"x_min":0,"x_max":0,"o":"m 267 -6 b 50 126 83 -6 50 22 l 50 147 b 118 261 50 213 68 246 l 118 263 b 51 375 69 278 51 307 l 51 394 b 265 522 51 494 85 522 l 294 522 b 510 394 475 522 510 494 l 510 375 b 443 263 510 307 492 278 l 443 261 b 513 147 493 246 513 213 l 513 126 b 294 -6 513 22 478 -6 m 292 313 b 368 358 363 313 368 319 l 368 374 b 292 419 368 413 363 419 l 269 419 b 193 374 199 419 193 413 l 193 358 b 269 313 193 319 199 313 m 293 99 b 371 144 364 99 371 106 l 371 169 b 293 214 371 208 364 214 l 269 214 b 192 169 197 214 192 208 l 192 144 b 269 99 192 106 197 99 "},"":{"ha":574,"x_min":0,"x_max":0,"o":"m 294 288 b 378 344 371 288 378 296 l 378 357 b 294 414 378 407 369 414 l 276 414 b 193 357 201 414 193 407 l 193 344 b 276 288 193 296 201 288 m 264 -6 b 54 138 89 -6 54 21 l 54 153 l 193 153 l 193 143 b 271 100 193 108 201 100 l 289 100 b 376 185 368 100 376 108 l 376 218 l 375 218 b 269 185 357 196 326 185 l 246 185 b 50 333 86 185 50 219 l 50 360 b 275 522 50 489 90 522 l 301 522 b 522 315 486 522 522 483 l 522 207 b 290 -6 522 29 482 -6 "},"":{"ha":586,"x_min":0,"x_max":0,"o":"m 281 -6 b 50 225 88 -6 50 44 l 50 297 b 281 522 50 467 88 522 l 306 522 b 536 297 499 522 536 465 l 536 225 b 306 -6 536 46 499 -6 m 303 108 b 392 217 378 108 392 132 l 392 300 b 303 410 392 386 378 410 l 283 410 b 194 300 208 410 194 386 l 194 217 b 283 108 194 132 208 108 "},"":{"ha":929,"x_min":0,"x_max":0,"o":"m 511 -112 l 418 -112 l 418 -11 b 74 244 115 -7 74 53 l 74 301 l 296 301 l 296 267 b 418 165 296 188 314 167 l 418 389 b 76 676 131 424 76 486 l 76 699 b 418 956 76 888 151 956 l 418 1042 l 511 1042 l 511 954 b 839 704 797 949 839 886 l 839 661 l 619 661 l 619 693 b 511 782 619 751 607 778 l 511 575 b 864 297 794 543 864 489 l 864 271 b 511 -11 864 53 790 -11 m 511 165 b 640 263 625 168 640 193 l 640 279 b 511 375 640 333 626 361 m 299 678 b 418 589 299 625 310 603 l 418 783 b 299 696 315 781 299 760 "},"":{"ha":929,"x_min":0,"x_max":0,"o":"m 889 235 b 529 -11 889 57 826 -11 l 507 -11 b 121 354 188 -11 128 58 l 17 354 l 17 447 l 121 447 l 121 507 l 17 507 l 17 599 l 122 599 b 506 956 129 893 194 956 l 531 956 b 882 717 828 956 882 897 l 882 692 l 656 692 l 656 703 b 531 776 656 756 638 776 l 513 776 b 361 599 389 776 365 760 l 694 599 l 694 507 l 360 507 l 360 447 l 694 447 l 694 354 l 360 354 b 511 172 364 190 386 172 l 529 172 b 664 247 643 172 664 192 l 664 265 l 889 265 "},"":{"ha":929,"x_min":0,"x_max":0,"o":"m 860 0 l 71 0 l 71 182 b 179 358 151 188 174 222 l 71 358 l 71 519 l 181 519 l 181 582 b 501 956 183 889 244 956 l 536 956 b 847 688 776 956 847 911 l 847 668 l 632 668 l 632 686 b 531 776 632 758 617 776 l 514 776 b 397 615 417 776 397 760 l 397 519 l 683 519 l 683 358 l 394 358 b 272 189 385 256 351 215 l 272 185 l 860 185 "},"":{"ha":929,"x_min":0,"x_max":0,"o":"m 581 0 l 349 0 l 349 257 l 103 257 l 103 368 l 346 368 l 346 375 l 292 483 l 103 483 l 103 594 l 233 594 l 50 944 l 300 944 l 464 519 l 467 519 l 631 944 l 879 944 l 697 596 l 826 596 l 826 483 l 638 483 l 582 375 l 582 368 l 826 368 l 826 257 l 581 257 "},"":{"ha":594,"x_min":0,"x_max":0,"o":"m 411 1007 l 108 1101 l 181 1247 l 454 1085 "},"":{"ha":594,"x_min":0,"x_max":0,"o":"m 489 1101 l 186 1007 l 143 1085 l 417 1247 "},"":{"ha":594,"x_min":0,"x_max":0,"o":"m 453 1011 l 297 1101 l 142 1011 l 74 1086 l 297 1258 l 521 1086 "},"":{"ha":594,"x_min":0,"x_max":0,"o":"m 297 986 l 74 1158 l 142 1233 l 297 1142 l 453 1233 l 521 1158 "},"":{"ha":594,"x_min":0,"x_max":0,"o":"m 503 1197 b 376 1028 499 1094 467 1028 b 289 1054 340 1028 315 1040 b 222 1078 265 1068 244 1078 b 174 1026 197 1078 178 1067 l 92 1046 b 215 1213 94 1143 131 1213 b 301 1186 249 1213 274 1201 b 372 1160 326 1172 350 1160 b 418 1215 400 1160 417 1179 "},"":{"ha":594,"x_min":0,"x_max":0,"o":"m 238 1033 l 51 1033 l 51 1206 l 238 1206 m 543 1033 l 357 1033 l 357 1206 l 543 1206 "},"":{"ha":594,"x_min":0,"x_max":0,"o":"m 499 1051 l 96 1051 l 96 1182 l 499 1182 "},"":{"ha":594,"x_min":0,"x_max":0,"o":"m 526 1211 b 297 1011 526 1075 436 1011 b 68 1211 158 1011 68 1076 l 175 1211 b 297 1138 185 1153 226 1138 b 419 1211 368 1138 408 1153 "},"":{"ha":594,"x_min":0,"x_max":0,"o":"m 294 992 b 133 1113 169 992 133 1024 l 133 1121 b 294 1240 133 1208 169 1240 l 300 1240 b 461 1121 425 1240 461 1208 l 461 1113 b 300 992 461 1024 425 992 m 300 1058 b 375 1111 361 1058 375 1069 l 375 1119 b 300 1172 375 1161 361 1172 l 294 1172 b 219 1119 233 1172 219 1161 l 219 1111 b 294 1058 219 1069 233 1058 "},"":{"ha":594,"x_min":0,"x_max":0,"o":"m 90 992 l 35 1063 l 236 1246 l 322 1142 m 356 989 l 301 1061 l 508 1243 l 593 1140 "},"":{"ha":594,"x_min":0,"x_max":0,"o":"m 407 1033 l 186 1033 l 186 1206 l 407 1206 "},"":{"ha":594,"x_min":0,"x_max":0,"o":"m 381 821 b 204 635 381 704 335 635 l 204 722 b 263 792 250 729 263 747 l 263 801 l 203 801 l 203 944 l 381 944 "},"":{"ha":594,"x_min":0,"x_max":0,"o":"m 382 -203 b 182 -358 382 -318 343 -358 l 182 -282 b 261 -221 243 -282 261 -267 l 261 -211 l 203 -211 l 203 -68 l 382 -68 "},"":{"ha":594,"x_min":0,"x_max":0,"o":"m 390 757 l 211 757 l 211 892 b 411 1047 211 1007 250 1047 l 411 971 b 332 910 350 971 332 956 l 332 900 l 390 900 "},"":{"ha":593,"x_min":0,"x_max":0,"o":"m 388 792 l 97 921 l 189 1058 l 439 864 "},"":{"ha":593,"x_min":0,"x_max":0,"o":"m 194 792 l 143 864 l 392 1058 l 485 921 "},"":{"ha":593,"x_min":0,"x_max":0,"o":"m 453 803 l 297 894 l 142 803 l 74 878 l 297 1051 l 521 878 "},"":{"ha":593,"x_min":0,"x_max":0,"o":"m 297 782 l 74 956 l 142 1031 l 297 939 l 453 1031 l 521 956 "},"":{"ha":593,"x_min":0,"x_max":0,"o":"m 503 993 b 376 824 499 890 467 824 b 289 850 340 824 315 836 b 222 874 265 864 244 874 b 174 822 197 874 178 863 l 92 842 b 215 1008 94 939 131 1008 b 301 982 249 1008 274 997 b 372 956 326 968 350 956 b 418 1011 400 956 417 975 "},"":{"ha":593,"x_min":0,"x_max":0,"o":"m 239 831 l 53 831 l 53 1003 l 239 1003 m 542 831 l 356 831 l 356 1003 l 542 1003 "},"":{"ha":593,"x_min":0,"x_max":0,"o":"m 499 853 l 96 853 l 96 983 l 499 983 "},"":{"ha":593,"x_min":0,"x_max":0,"o":"m 526 1007 b 297 807 526 871 436 807 b 68 1007 158 807 68 874 l 175 1007 b 297 933 185 949 226 933 b 419 1007 368 933 408 949 "},"":{"ha":593,"x_min":0,"x_max":0,"o":"m 294 799 b 133 919 169 799 133 831 l 133 928 b 294 1047 133 1015 169 1047 l 300 1047 b 461 928 425 1047 461 1015 l 461 919 b 300 799 461 831 425 799 m 300 865 b 375 918 361 865 375 876 l 375 926 b 300 979 375 968 361 979 l 294 979 b 219 926 233 979 219 968 l 219 918 b 294 865 219 876 233 865 "},"":{"ha":593,"x_min":0,"x_max":0,"o":"m 97 793 l 39 863 l 229 1054 l 321 956 m 357 793 l 297 863 l 494 1054 l 586 956 "},"":{"ha":593,"x_min":0,"x_max":0,"o":"m 407 831 l 186 831 l 186 1003 l 407 1003 "},"":{"ha":929,"x_min":0,"x_max":0,"o":"m 521 -44 l 429 -44 l 429 111 b 126 404 186 114 126 178 l 126 508 b 429 800 126 733 190 797 l 429 944 l 521 944 l 521 800 b 806 568 744 799 806 739 l 806 536 l 611 536 l 611 557 b 521 638 611 615 596 636 l 521 276 b 611 358 597 278 611 303 l 611 379 l 806 379 l 806 343 b 521 111 806 174 746 113 m 336 404 b 429 276 336 299 350 279 l 429 636 b 336 508 350 635 336 615 "},"":{"ha":674,"x_min":0,"x_max":0,"o":"m 292 154 l 292 242 l 365 242 l 365 154 m 293 308 l 293 331 b 372 513 293 424 308 457 b 436 624 428 568 436 592 b 336 735 436 686 390 735 b 229 610 283 735 239 700 l 163 621 b 340 801 175 747 246 801 b 504 629 436 801 504 733 b 421 472 504 572 488 533 b 357 332 358 415 357 403 l 357 308 m 608 65 l 608 878 l 65 878 l 65 65 m 674 944 l 674 0 l 0 0 l 0 944 "},"ﬁ":{"ha":842,"x_min":0,"x_max":0,"o":"m 326 0 l 107 0 l 107 511 l 21 511 l 21 667 l 107 667 l 107 717 b 349 954 107 894 174 954 b 471 947 392 954 436 951 l 471 793 b 411 796 454 794 432 796 b 326 704 343 796 326 782 l 326 667 l 476 667 l 476 511 l 326 511 m 769 0 l 549 0 l 549 667 l 769 667 m 769 772 l 549 772 l 549 944 l 769 944 "},"ﬂ":{"ha":842,"x_min":0,"x_max":0,"o":"m 326 0 l 107 0 l 107 511 l 21 511 l 21 667 l 107 667 l 107 717 b 349 954 107 894 174 954 b 471 947 392 954 436 951 l 471 793 b 411 796 454 794 432 796 b 326 704 343 796 326 782 l 326 667 l 476 667 l 476 511 l 326 511 m 769 0 l 549 0 l 549 944 l 769 944 "}}}
